<?xml version="1.0" encoding="UTF-8" standalone="no"?>
<!-- Created with Inkscape (http://www.inkscape.org/) -->

<svg
   xmlns:ns0="http://www.iki.fi/pav/software/textext/"
   xmlns:dc="http://purl.org/dc/elements/1.1/"
   xmlns:cc="http://creativecommons.org/ns#"
   xmlns:rdf="http://www.w3.org/1999/02/22-rdf-syntax-ns#"
   xmlns:svg="http://www.w3.org/2000/svg"
   xmlns="http://www.w3.org/2000/svg"
   xmlns:sodipodi="http://sodipodi.sourceforge.net/DTD/sodipodi-0.dtd"
   xmlns:inkscape="http://www.inkscape.org/namespaces/inkscape"
   width="80.125084mm"
   height="19.104475mm"
   viewBox="0 0 283.90778 67.693021"
   id="svg2"
   version="1.1"
   inkscape:version="0.91 r13725"
   sodipodi:docname="BPP3.svg">
  <defs
     id="defs4">
    <marker
       inkscape:stockid="DotM"
       orient="auto"
       refY="0"
       refX="0"
       id="DotM"
       style="overflow:visible"
       inkscape:isstock="true">
      <path
         inkscape:connector-curvature="0"
         id="path4206"
         d="m -2.5,-1 c 0,2.76 -2.24,5 -5,5 -2.76,0 -5,-2.24 -5,-5 0,-2.76 2.24,-5 5,-5 2.76,0 5,2.24 5,5 z"
         style="fill:#000000;fill-opacity:1;fill-rule:evenodd;stroke:#000000;stroke-width:1pt;stroke-opacity:1"
         transform="matrix(0.4,0,0,0.4,2.96,0.4)" />
    </marker>
    <marker
       inkscape:stockid="DotM"
       orient="auto"
       refY="0"
       refX="0"
       id="DotM-0"
       style="overflow:visible"
       inkscape:isstock="true">
      <path
         inkscape:connector-curvature="0"
         id="path4206-9"
         d="m -2.5,-1 c 0,2.76 -2.24,5 -5,5 -2.76,0 -5,-2.24 -5,-5 0,-2.76 2.24,-5 5,-5 2.76,0 5,2.24 5,5 z"
         style="fill:#000000;fill-opacity:1;fill-rule:evenodd;stroke:#000000;stroke-width:1pt;stroke-opacity:1"
         transform="matrix(0.4,0,0,0.4,2.96,0.4)" />
    </marker>
  </defs>
  <sodipodi:namedview
     id="base"
     pagecolor="#ffffff"
     bordercolor="#666666"
     borderopacity="1.0"
     inkscape:pageopacity="0.0"
     inkscape:pageshadow="2"
     inkscape:zoom="2.8"
     inkscape:cx="42.485615"
     inkscape:cy="25.624439"
     inkscape:document-units="px"
     inkscape:current-layer="layer1"
     showgrid="false"
     inkscape:window-width="1855"
     inkscape:window-height="1056"
     inkscape:window-x="65"
     inkscape:window-y="24"
     inkscape:window-maximized="1"
     fit-margin-top="0"
     fit-margin-left="0"
     fit-margin-right="0"
     fit-margin-bottom="0" />
  <metadata
     id="metadata7">
    <rdf:RDF>
      <cc:Work
         rdf:about="">
        <dc:format>image/svg+xml</dc:format>
        <dc:type
           rdf:resource="http://purl.org/dc/dcmitype/StillImage" />
        <dc:title></dc:title>
      </cc:Work>
    </rdf:RDF>
  </metadata>
  <g
     inkscape:label="Layer 1"
     inkscape:groupmode="layer"
     id="layer1"
     transform="translate(-180.61691,-106.12076)">
    <path
       sodipodi:nodetypes="cssc"
       inkscape:connector-curvature="0"
       id="path5662-2"
       d="m 346.96114,151.69281 c 0.74509,-20.06642 29.80735,-36.03433 23.27726,-18.25505 -4.26312,11.60706 56.33848,-20.29044 45.09576,2.61611 -5.68853,11.59015 2.57396,8.81861 8.55692,15.63894"
       style="fill:#00ffff;fill-opacity:0.62893078;fill-rule:evenodd;stroke:#000000;stroke-width:1.5;stroke-linecap:butt;stroke-linejoin:miter;stroke-miterlimit:4;stroke-dasharray:none;stroke-opacity:1" />
    <g
       ns0:preamble=""
       ns0:text="$Q_{l+1,j-1}^m$"
       word-spacing="normal"
       letter-spacing="normal"
       font-size-adjust="none"
       font-stretch="normal"
       font-weight="normal"
       font-variant="normal"
       font-style="normal"
       stroke-miterlimit="10.433"
       xml:space="preserve"
       transform="matrix(1,0,0,-1,142.79084,853.4607)"
       id="content"
       style="font-style:normal;font-variant:normal;font-weight:normal;font-stretch:normal;letter-spacing:normal;word-spacing:normal;text-anchor:start;fill:none;fill-opacity:1;fill-rule:evenodd;stroke:#000000;stroke-linecap:butt;stroke-linejoin:miter;stroke-miterlimit:10.43299961;stroke-dasharray:none;stroke-dashoffset:0;stroke-opacity:1"><path
         id="path5904"
         d="m 227.8,707.18 0.14,0.06 0.14,0.07 0.15,0.07 0.14,0.08 0.14,0.08 0.14,0.09 0.13,0.1 0.14,0.1 0.13,0.11 0.13,0.11 0.12,0.12 0.13,0.12 0.12,0.13 0.11,0.13 0.11,0.13 0.11,0.14 0.1,0.15 0.1,0.14 0.09,0.16 0.09,0.15 0.08,0.16 0.08,0.16 0.07,0.16 0.06,0.17 0.06,0.17 0.05,0.17 0.04,0.17 0.04,0.17 0.03,0.18 0.02,0.18 0.01,0.18 0,0.18 c 0,1.6 -1.05,2.68 -2.54,2.68 l -0.05,-0.25 c 0.99,0 1.72,-0.78 1.72,-2.12 0,-0.99 -0.51,-3.32 -2.18,-4.26 -0.05,0.35 -0.15,1.08 -0.88,1.08 l 0,-0.22 c 0.42,0 0.61,-0.24 0.61,-0.85 0,-0.15 -0.01,-0.16 -0.11,-0.2 -0.26,-0.11 -0.56,-0.18 -0.84,-0.18 l 0,0 c -0.14,0 -0.46,0 -0.46,0.43 0,0.4 0.38,0.8 0.8,0.8 l 0,0.22 c -0.53,0 -1.02,-0.5 -1.02,-1.02 0,-0.2 0.06,-0.31 0.06,-0.32 l 0,0 c -0.77,0.31 -1.11,1.09 -1.11,1.98 0,0.69 0.26,2.11 1.01,3.18 0.73,1.02 1.67,1.48 2.4,1.48 l 0.05,0.25 c -2.15,0 -4.34,-2.26 -4.34,-4.59 0,-1.65 1.12,-2.66 2.55,-2.66 0.25,0 0.59,0.04 0.98,0.15 -0.04,-0.62 -0.04,-0.64 -0.04,-0.76 0,-0.32 0,-1.1 0.82,-1.1 1.19,0 1.67,1.82 1.67,1.93 0,0.07 -0.07,0.1 -0.11,0.1 -0.08,0 -0.1,-0.05 -0.12,-0.11 -0.24,-0.7 -0.82,-0.95 -1.17,-0.95 -0.46,0 -0.6,0.26 -0.7,1.02 z"
         inkscape:connector-curvature="0"
         style="fill:#000000;stroke-width:0" /><path
         id="path5906"
         d="m 234.33,711.3 0,-0.01 0,-0.02 -0.01,-0.01 0,-0.01 0,-0.02 -0.01,-0.01 -0.01,-0.04 0,-0.03 -0.01,-0.03 -0.01,-0.03 0,-0.02 -0.01,-0.01 0,-0.02 -0.01,-0.01 0,-0.02 0,-0.01 -0.01,-0.01 0,-0.02 0,-0.01 0,-0.01 -0.01,-0.01 0,-0.01 0,-0.01 0,-0.01 0,0 0,-0.01 0,-0.01 0,0 c 0,-0.15 0.12,-0.22 0.23,-0.22 0.13,0 0.24,0.09 0.28,0.15 0.03,0.06 0.09,0.29 0.12,0.43 0.04,0.14 0.11,0.46 0.15,0.63 0.05,0.15 0.09,0.31 0.12,0.47 0.08,0.3 0.08,0.31 0.22,0.53 0.22,0.34 0.57,0.74 1.12,0.74 0.39,0 0.41,-0.32 0.41,-0.49 0,-0.42 -0.3,-1.19 -0.41,-1.49 -0.08,-0.19 -0.11,-0.25 -0.11,-0.37 0,-0.37 0.31,-0.6 0.66,-0.6 0.7,0 1.01,0.96 1.01,1.06 0,0.1 -0.09,0.1 -0.11,0.1 -0.1,0 -0.11,-0.05 -0.14,-0.12 -0.16,-0.56 -0.46,-0.85 -0.74,-0.85 -0.14,0 -0.17,0.1 -0.17,0.25 0,0.16 0.03,0.25 0.16,0.56 0.08,0.22 0.37,0.96 0.37,1.35 0,0.11 0,0.4 -0.26,0.6 -0.12,0.1 -0.32,0.19 -0.65,0.19 -0.62,0 -1.01,-0.41 -1.23,-0.7 -0.06,0.59 -0.55,0.7 -0.91,0.7 -0.58,0 -0.97,-0.35 -1.18,-0.63 -0.05,0.48 -0.46,0.63 -0.74,0.63 -0.3,0 -0.46,-0.21 -0.55,-0.37 -0.16,-0.26 -0.26,-0.66 -0.26,-0.69 0,-0.09 0.1,-0.09 0.12,-0.09 0.1,0 0.11,0.02 0.16,0.2 0.1,0.42 0.23,0.76 0.51,0.76 0.18,0 0.23,-0.16 0.23,-0.34 0,-0.14 -0.07,-0.39 -0.11,-0.58 -0.05,-0.19 -0.12,-0.48 -0.16,-0.63 l -0.22,-0.89 c -0.03,-0.09 -0.07,-0.27 -0.07,-0.29 0,-0.15 0.12,-0.22 0.24,-0.22 0.12,0 0.23,0.09 0.27,0.15 0.03,0.06 0.09,0.29 0.12,0.43 0.04,0.14 0.12,0.46 0.16,0.63 0.04,0.15 0.08,0.31 0.11,0.47 0.08,0.28 0.1,0.34 0.3,0.63 0.19,0.28 0.52,0.64 1.04,0.64 0.41,0 0.42,-0.36 0.42,-0.49 0,-0.17 -0.02,-0.27 -0.12,-0.66 z"
         inkscape:connector-curvature="0"
         style="fill:#000000;stroke-width:0" /><path
         id="path5908"
         d="m 233.27,708.93 0,0 0,0 0.01,0.01 0,0 0,0 0,0 0,0 0,0 0,0 0,0.01 0,0 0,0.01 0,0 0,0 0,0.01 0.01,0 0,0.01 0,0 0,0.01 0,0.01 0,0.01 0,0 0.01,0 0,0.01 0,0 0,0.01 0,0 0,0 0,0 0,0.01 0,0 0,0 0,0 0,0 0,0 0,0 0,0 0,0 0,0 0,0 c 0,0.04 -0.03,0.1 -0.11,0.1 -0.14,0 -0.72,-0.05 -0.89,-0.07 -0.05,0 -0.15,-0.01 -0.15,-0.16 0,-0.09 0.1,-0.09 0.18,-0.09 0.33,0 0.33,-0.05 0.33,-0.11 0,-0.05 -0.01,-0.09 -0.03,-0.15 l -0.86,-3.45 c -0.02,-0.07 -0.03,-0.14 -0.03,-0.21 0,-0.45 0.4,-0.67 0.73,-0.67 0.17,0 0.38,0.06 0.56,0.37 0.15,0.26 0.24,0.67 0.24,0.7 0,0.09 -0.09,0.09 -0.11,0.09 -0.09,0 -0.11,-0.04 -0.14,-0.17 -0.09,-0.35 -0.22,-0.79 -0.52,-0.79 -0.19,0 -0.24,0.17 -0.24,0.34 0,0.08 0.02,0.21 0.04,0.29 z"
         inkscape:connector-curvature="0"
         style="fill:#000000;stroke-width:0" /><path
         id="path5910"
         d="m 237.09,705.88 2.14,0 c 0.09,0 0.26,0 0.26,0.17 0,0.17 -0.16,0.17 -0.26,0.17 l -2.14,0 0,2.14 c 0,0.09 0,0.26 -0.16,0.26 -0.18,0 -0.18,-0.16 -0.18,-0.26 l 0,-2.14 -2.14,0 c -0.09,0 -0.26,0 -0.26,-0.17 0,-0.17 0.16,-0.17 0.26,-0.17 l 2.14,0 0,-2.14 c 0,-0.09 0,-0.26 0.17,-0.26 0.17,0 0.17,0.16 0.17,0.26 z"
         inkscape:connector-curvature="0"
         style="fill:#000000;stroke-width:0" /><path
         id="path5912"
         d="m 242.32,708.74 0,0.01 0,0.01 0,0 0,0.01 0,0.01 0,0.01 0,0 0,0.01 0,0.01 0,0 0,0.01 0,0.01 0,0 0,0.01 0,0 0,0.01 -0.01,0 0,0.01 0,0.01 0,0 0,0.01 -0.01,0.01 0,0.01 -0.01,0 0,0.01 -0.01,0 0,0 -0.01,0.01 -0.01,0 0,0 -0.01,0.01 -0.01,0 -0.01,0 0,0 -0.01,0 0,0 -0.01,0 -0.01,0 0,0 -0.01,0 -0.01,0 0,0 -0.01,0 -0.01,0 -0.01,0 0,0 -0.01,0 -0.01,0 -0.01,0 -0.01,0 c -0.44,-0.44 -1.08,-0.44 -1.37,-0.44 l 0,-0.25 c 0.17,0 0.63,0 1.02,0.19 l 0,-3.56 c 0,-0.23 0,-0.32 -0.7,-0.32 l -0.27,0 0,-0.25 c 0.13,0.01 0.99,0.03 1.25,0.03 0.21,0 1.09,-0.02 1.24,-0.03 l 0,0.25 -0.26,0 c -0.7,0 -0.7,0.09 -0.7,0.32 z"
         inkscape:connector-curvature="0"
         style="fill:#000000;stroke-width:0" /><path
         id="path5914"
         d="m 245.42,704.41 0,-0.07 0,-0.07 -0.01,-0.08 0,-0.07 -0.01,-0.04 -0.01,-0.04 0,-0.04 -0.01,-0.04 -0.01,-0.04 -0.01,-0.04 -0.02,-0.04 -0.01,-0.04 -0.02,-0.04 -0.01,-0.04 -0.02,-0.04 -0.02,-0.04 -0.02,-0.04 -0.02,-0.05 -0.03,-0.04 -0.03,-0.04 -0.02,-0.04 -0.03,-0.04 -0.04,-0.04 -0.03,-0.04 -0.04,-0.05 -0.04,-0.04 -0.04,-0.04 -0.04,-0.04 c -0.03,-0.03 -0.05,-0.05 -0.05,-0.09 0,-0.04 0.06,-0.09 0.1,-0.09 0.1,0 0.69,0.56 0.69,1.38 0,0.44 -0.17,0.76 -0.49,0.76 -0.23,0 -0.4,-0.18 -0.4,-0.39 0,-0.23 0.16,-0.41 0.41,-0.41 0.16,0 0.28,0.11 0.28,0.11 z"
         inkscape:connector-curvature="0"
         style="fill:#000000;stroke-width:0" /><path
         id="path5916"
         d="m 249.38,708.66 0,0.01 0,0.01 0,0.02 0,0.01 0,0.01 -0.01,0.01 0,0.01 0,0.01 -0.01,0.01 0,0.02 -0.01,0.01 0,0.01 -0.01,0.01 -0.01,0.01 -0.01,0.01 0,0.01 -0.01,0.01 -0.01,0.01 -0.01,0.01 -0.01,0 -0.02,0.01 -0.01,0.01 -0.01,0.01 -0.01,0 -0.02,0.01 -0.01,0 -0.01,0.01 -0.02,0 -0.01,0 -0.02,0 -0.02,0.01 -0.02,0 c -0.2,0 -0.39,-0.2 -0.39,-0.39 0,-0.11 0.09,-0.26 0.28,-0.26 0.19,0 0.39,0.18 0.39,0.38 z"
         inkscape:connector-curvature="0"
         style="fill:#000000;stroke-width:0" /><path
         id="path5918"
         d="m 247.91,703.96 -0.02,-0.04 -0.01,-0.05 -0.01,-0.04 -0.02,-0.05 -0.02,-0.04 -0.02,-0.04 -0.02,-0.04 -0.02,-0.04 -0.02,-0.04 -0.02,-0.04 -0.03,-0.03 -0.02,-0.04 -0.03,-0.04 -0.03,-0.03 -0.03,-0.03 -0.02,-0.03 -0.03,-0.03 -0.04,-0.03 -0.03,-0.03 -0.03,-0.02 -0.03,-0.02 -0.04,-0.03 -0.03,-0.02 -0.04,-0.01 -0.03,-0.02 -0.04,-0.01 -0.04,-0.02 -0.03,-0.01 -0.04,0 -0.04,-0.01 -0.04,0 -0.03,0 c -0.1,0 -0.18,0.01 -0.25,0.04 0.18,0.08 0.23,0.25 0.23,0.35 0,0.17 -0.13,0.26 -0.27,0.26 -0.22,0 -0.4,-0.19 -0.4,-0.41 0,-0.27 0.27,-0.44 0.69,-0.44 0.42,0 1.24,0.25 1.45,1.1 l 0.63,2.5 c 0.02,0.07 0.04,0.14 0.04,0.24 0,0.39 -0.33,0.66 -0.75,0.66 -0.77,0 -1.22,-0.97 -1.22,-1.07 0,-0.09 0.1,-0.09 0.12,-0.09 0.08,0 0.09,0.02 0.14,0.13 0.17,0.4 0.53,0.83 0.94,0.83 0.17,0 0.24,-0.12 0.24,-0.34 0,-0.08 -0.02,-0.17 -0.03,-0.21 z"
         inkscape:connector-curvature="0"
         style="fill:#000000;stroke-width:0" /><path
         id="path5920"
         d="m 255.21,705.88 0.01,0 0.01,0 0.01,0 0.01,0 0.03,0 0.01,0 0.01,0 0.01,0 0.01,0 0.01,0.01 0.02,0 0.01,0 0.01,0 0.01,0.01 0.01,0 0.01,0 0.01,0.01 0.01,0 0.01,0.01 0.01,0.01 0,0 0.01,0.01 0.01,0.01 0,0 0,0 0.01,0.01 0,0 0,0.01 0,0 0.01,0.01 0,0.01 0,0 0,0.01 0,0 0,0.01 0.01,0.01 0,0 0,0.01 0,0.01 0,0.01 c 0,0.17 -0.16,0.17 -0.28,0.17 l -4.16,0 c -0.11,0 -0.28,0 -0.28,-0.17 0,-0.17 0.16,-0.17 0.28,-0.17 z"
         inkscape:connector-curvature="0"
         style="fill:#000000;stroke-width:0" /><path
         id="path5922"
         d="m 258.58,708.74 0,0.01 0,0.01 0,0 0,0.01 0,0.01 0,0.01 0,0 0,0.01 0,0.01 0,0 0,0.01 0,0.01 0,0 0,0.01 0,0 0,0.01 -0.01,0 0,0.01 0,0.01 0,0 0,0.01 -0.01,0.01 0,0.01 -0.01,0 0,0.01 -0.01,0 0,0 -0.01,0.01 -0.01,0 0,0 -0.01,0.01 -0.01,0 -0.01,0 0,0 -0.01,0 0,0 -0.01,0 -0.01,0 0,0 -0.01,0 -0.01,0 0,0 -0.01,0 -0.01,0 -0.01,0 0,0 -0.01,0 -0.01,0 -0.01,0 -0.01,0 c -0.44,-0.44 -1.08,-0.44 -1.36,-0.44 l 0,-0.25 c 0.16,0 0.62,0 1.01,0.19 l 0,-3.56 c 0,-0.23 0,-0.32 -0.7,-0.32 l -0.27,0 0,-0.25 c 0.13,0.01 0.99,0.03 1.25,0.03 0.21,0 1.09,-0.02 1.24,-0.03 l 0,0.25 -0.26,0 c -0.7,0 -0.7,0.09 -0.7,0.32 z"
         inkscape:connector-curvature="0"
         style="fill:#000000;stroke-width:0" /></g>    <path
       style="fill:#00dc00;fill-opacity:1;fill-rule:evenodd;stroke:#000000;stroke-width:1.5;stroke-linecap:butt;stroke-linejoin:miter;stroke-miterlimit:4;stroke-dasharray:none;stroke-opacity:1"
       d="m 232.74195,152.72004 c 32.90228,-38.52838 62.37909,-29.49799 91.30657,0"
       id="path5009"
       inkscape:connector-curvature="0"
       sodipodi:nodetypes="cc" />
    <path
       style="fill:none;fill-rule:evenodd;stroke:#000000;stroke-width:2;stroke-linecap:butt;stroke-linejoin:miter;stroke-miterlimit:4;stroke-dasharray:none;stroke-dashoffset:0;stroke-opacity:1;marker-start:url(#DotM);marker-end:url(#DotM)"
       d="m 188.24954,152.33514 269.37149,0"
       id="path4136"
       inkscape:connector-curvature="0" />
    <path
       style="fill:#000000;fill-opacity:1;stroke:#000000;stroke-width:2.30279088;stroke-miterlimit:4;stroke-dasharray:none;stroke-dashoffset:0;stroke-opacity:1"
       id="path4450"
       sodipodi:type="arc"
       sodipodi:cx="211.17757"
       sodipodi:cy="152.09769"
       sodipodi:rx="3.3328691"
       sodipodi:ry="3.3485646"
       sodipodi:start="0"
       sodipodi:end="6.2545095"
       d="m 214.51044,152.09769 a 3.3328691,3.3485646 0 0 1 -3.30898,3.34848 3.3328691,3.3485646 0 0 1 -3.35642,-3.30047 3.3328691,3.3485646 0 0 1 3.26085,-3.3958 3.3328691,3.3485646 0 0 1 3.40318,3.25178 l -3.3315,0.096 z" />
    <g
       style="font-style:normal;font-variant:normal;font-weight:normal;font-stretch:normal;letter-spacing:normal;word-spacing:normal;text-anchor:start;fill:none;fill-opacity:1;fill-rule:evenodd;stroke:#000000;stroke-linecap:butt;stroke-linejoin:miter;stroke-miterlimit:10.43299961;stroke-dasharray:none;stroke-dashoffset:0;stroke-opacity:1"
       id="g5303"
       transform="matrix(1,0,0,-1,47.462646,850.60396)"
       xml:space="preserve"
       stroke-miterlimit="10.433"
       font-style="normal"
       font-variant="normal"
       font-weight="normal"
       font-stretch="normal"
       font-size-adjust="none"
       letter-spacing="normal"
       word-spacing="normal"
       ns0:text="$Q_{k,l}^b$"
       ns0:preamble=""><path
         style="fill:#000000;stroke-width:0"
         inkscape:connector-curvature="0"
         d="m 227.8,707.18 0.14,0.06 0.14,0.07 0.15,0.07 0.14,0.08 0.14,0.08 0.14,0.09 0.13,0.1 0.14,0.1 0.13,0.11 0.13,0.11 0.12,0.12 0.13,0.12 0.12,0.13 0.11,0.13 0.11,0.13 0.11,0.14 0.1,0.15 0.1,0.14 0.09,0.16 0.09,0.15 0.08,0.16 0.08,0.16 0.07,0.16 0.06,0.17 0.06,0.17 0.05,0.17 0.04,0.17 0.04,0.17 0.03,0.18 0.02,0.18 0.01,0.18 0,0.18 c 0,1.6 -1.05,2.68 -2.54,2.68 l -0.05,-0.25 c 0.99,0 1.72,-0.78 1.72,-2.12 0,-0.99 -0.51,-3.32 -2.18,-4.26 -0.05,0.35 -0.15,1.08 -0.88,1.08 l 0,-0.22 c 0.42,0 0.61,-0.24 0.61,-0.85 0,-0.15 -0.01,-0.16 -0.11,-0.2 -0.26,-0.11 -0.56,-0.18 -0.84,-0.18 l 0,0 c -0.14,0 -0.46,0 -0.46,0.43 0,0.4 0.38,0.8 0.8,0.8 l 0,0.22 c -0.53,0 -1.02,-0.5 -1.02,-1.02 0,-0.2 0.06,-0.31 0.06,-0.32 l 0,0 c -0.77,0.31 -1.11,1.09 -1.11,1.98 0,0.69 0.26,2.11 1.01,3.18 0.73,1.02 1.67,1.48 2.4,1.48 l 0.05,0.25 c -2.15,0 -4.34,-2.26 -4.34,-4.59 0,-1.65 1.12,-2.66 2.55,-2.66 0.25,0 0.59,0.04 0.98,0.15 -0.04,-0.62 -0.04,-0.64 -0.04,-0.76 0,-0.32 0,-1.1 0.82,-1.1 1.19,0 1.67,1.82 1.67,1.93 0,0.07 -0.07,0.1 -0.11,0.1 -0.08,0 -0.1,-0.05 -0.12,-0.11 -0.24,-0.7 -0.82,-0.95 -1.17,-0.95 -0.46,0 -0.6,0.26 -0.7,1.02 z"
         id="path5305" /><path
         style="fill:#000000;stroke-width:0"
         inkscape:connector-curvature="0"
         d="m 233.15,715.37 0,0 0,0 0,0 0,0 0,0 0,0 0,0.01 0,0 0,0 0,0 0.01,0.01 0,0 0,0 0,0.01 0,0 0,0.01 0,0 0,0.01 0.01,0.01 0,0.01 0,0 0,0.01 0,0 0,0 0,0.01 0,0 0,0.01 0,0 0,0 0,0 0,0 0.01,0 0,0 0,0.01 0,0 0,0 0,0 0,0 0,0 0,0 c 0,0.04 -0.03,0.1 -0.11,0.1 -0.14,0 -0.72,-0.06 -0.9,-0.07 -0.05,-0.01 -0.15,-0.02 -0.15,-0.16 0,-0.1 0.1,-0.1 0.18,-0.1 0.34,0 0.34,-0.05 0.34,-0.1 0,-0.05 -0.08,-0.33 -0.12,-0.49 l -0.16,-0.64 c -0.06,-0.24 -0.44,-1.77 -0.46,-1.86 -0.03,-0.17 -0.03,-0.26 -0.03,-0.34 0,-0.71 0.44,-1.15 1.02,-1.15 l 0.01,0.19 c -0.34,0 -0.54,0.3 -0.54,0.71 0,0.26 0.07,0.5 0.26,1.29 0.04,0.13 0.04,0.14 0.18,0.3 0.26,0.3 0.57,0.46 0.82,0.46 0.28,0 0.51,-0.21 0.51,-0.68 0,-0.28 -0.15,-1 -0.36,-1.4 -0.17,-0.34 -0.51,-0.68 -0.87,-0.68 l 0,0 -0.01,-0.19 c 0.87,0 1.8,0.95 1.8,1.98 0,0.81 -0.56,1.16 -1.04,1.16 -0.37,0 -0.67,-0.2 -0.88,-0.38 z"
         id="path5307" /><path
         style="fill:#000000;stroke-width:0"
         inkscape:connector-curvature="0"
         d="m 233.49,708.93 0,0 0,0 0,0.01 0,0 0,0 0,0 0,0 0,0 0,0 0.01,0.01 0,0 0,0.01 0,0 0,0 0,0.01 0,0 0,0.01 0,0 0.01,0.01 0,0.01 0,0.01 0,0 0,0 0,0.01 0,0 0,0.01 0.01,0 0,0 0,0 0,0.01 0,0 0,0 0,0 0,0 0,0 0,0 0,0 0,0 0,0 0,0 c 0,0.04 -0.03,0.1 -0.11,0.1 -0.14,0 -0.72,-0.05 -0.9,-0.07 -0.05,0 -0.15,-0.01 -0.15,-0.16 0,-0.09 0.1,-0.09 0.18,-0.09 0.34,0 0.34,-0.05 0.34,-0.11 0,-0.05 -0.02,-0.09 -0.03,-0.15 l -0.98,-3.95 c -0.04,-0.13 -0.04,-0.14 -0.04,-0.15 0,-0.11 0.08,-0.23 0.24,-0.23 0.19,0 0.28,0.14 0.32,0.3 0.01,0.02 0.31,1.25 0.34,1.35 0.5,-0.05 0.89,-0.21 0.89,-0.57 0,-0.04 0,-0.07 -0.01,-0.14 -0.03,-0.11 -0.03,-0.14 -0.03,-0.22 0,-0.49 0.41,-0.72 0.74,-0.72 0.68,0 0.89,1.06 0.89,1.07 0,0.09 -0.09,0.09 -0.12,0.09 -0.09,0 -0.1,-0.03 -0.13,-0.17 -0.09,-0.3 -0.28,-0.79 -0.62,-0.79 -0.19,0 -0.24,0.17 -0.24,0.36 0,0.12 0,0.13 0.04,0.31 0.01,0.02 0.03,0.14 0.03,0.22 0,0.62 -0.83,0.72 -1.13,0.74 0.21,0.12 0.46,0.36 0.58,0.46 0.36,0.33 0.71,0.66 1.1,0.66 0.08,0 0.17,-0.02 0.23,-0.09 -0.3,-0.05 -0.36,-0.28 -0.36,-0.39 0,-0.15 0.11,-0.26 0.27,-0.26 0.19,0 0.4,0.16 0.4,0.45 0,0.23 -0.17,0.49 -0.53,0.49 -0.4,0 -0.77,-0.29 -1.12,-0.62 -0.29,-0.28 -0.52,-0.49 -0.81,-0.61 z"
         id="path5309" /><path
         style="fill:#000000;stroke-width:0"
         inkscape:connector-curvature="0"
         d="m 237.18,704.41 0,-0.07 0,-0.07 -0.01,-0.08 -0.01,-0.07 0,-0.04 -0.01,-0.04 -0.01,-0.04 -0.01,-0.04 -0.01,-0.04 -0.01,-0.04 -0.01,-0.04 -0.01,-0.04 -0.02,-0.04 -0.01,-0.04 -0.02,-0.04 -0.02,-0.04 -0.02,-0.04 -0.03,-0.05 -0.02,-0.04 -0.03,-0.04 -0.03,-0.04 -0.03,-0.04 -0.03,-0.04 -0.03,-0.04 -0.04,-0.05 -0.04,-0.04 -0.04,-0.04 -0.04,-0.04 c -0.03,-0.03 -0.05,-0.05 -0.05,-0.09 0,-0.04 0.05,-0.09 0.1,-0.09 0.09,0 0.69,0.56 0.69,1.38 0,0.44 -0.17,0.76 -0.49,0.76 -0.23,0 -0.4,-0.18 -0.4,-0.39 0,-0.23 0.16,-0.41 0.41,-0.41 0.16,0 0.27,0.11 0.28,0.11 z"
         id="path5311" /><path
         style="fill:#000000;stroke-width:0"
         inkscape:connector-curvature="0"
         d="m 240.05,708.93 0,0 0,0 0,0.01 0,0 0,0 0,0 0,0 0,0 0,0 0,0.01 0,0 0,0.01 0.01,0 0,0 0,0.01 0,0 0,0.01 0,0 0,0.01 0.01,0.01 0,0.01 0,0 0,0 0,0.01 0,0 0,0.01 0,0 0,0 0,0 0,0.01 0,0 0,0 0,0 0,0 0,0 0,0 0,0 0,0 0,0 0,0 c 0,0.04 -0.02,0.1 -0.11,0.1 -0.14,0 -0.72,-0.05 -0.89,-0.07 -0.05,0 -0.15,-0.01 -0.15,-0.16 0,-0.09 0.1,-0.09 0.18,-0.09 0.33,0 0.33,-0.05 0.33,-0.11 0,-0.05 -0.01,-0.09 -0.03,-0.15 l -0.86,-3.45 c -0.02,-0.07 -0.03,-0.14 -0.03,-0.21 0,-0.45 0.4,-0.67 0.73,-0.67 0.17,0 0.38,0.06 0.56,0.37 0.15,0.26 0.25,0.67 0.25,0.7 0,0.09 -0.09,0.09 -0.12,0.09 -0.09,0 -0.11,-0.04 -0.13,-0.17 -0.09,-0.35 -0.23,-0.79 -0.53,-0.79 -0.19,0 -0.23,0.17 -0.23,0.34 0,0.08 0.02,0.21 0.04,0.29 z"
         id="path5313" /></g>    <path
       sodipodi:nodetypes="cc"
       inkscape:connector-curvature="0"
       id="path5687"
       d="m 188.7748,149.99216 c 51.51912,-51.378571 200.37158,-63.302916 267.67137,0"
       style="fill:none;fill-rule:evenodd;stroke:#000000;stroke-width:1.5;stroke-linecap:butt;stroke-linejoin:miter;stroke-miterlimit:4;stroke-dasharray:none;stroke-opacity:1" />
    <path
       style="fill:#000000;fill-opacity:1;stroke:#000000;stroke-width:2.30279088;stroke-miterlimit:4;stroke-dasharray:none;stroke-dashoffset:0;stroke-opacity:1"
       id="path4450-5"
       sodipodi:type="arc"
       sodipodi:cx="234.62737"
       sodipodi:cy="152.09769"
       sodipodi:rx="3.3328691"
       sodipodi:ry="3.3485646"
       sodipodi:start="0"
       sodipodi:end="6.2545095"
       d="m 237.96023,152.09769 a 3.3328691,3.3485646 0 0 1 -3.30897,3.34848 3.3328691,3.3485646 0 0 1 -3.35642,-3.30047 3.3328691,3.3485646 0 0 1 3.26085,-3.3958 3.3328691,3.3485646 0 0 1 3.40317,3.25178 l -3.33149,0.096 z" />
    <path
       style="fill:#000000;fill-opacity:1;stroke:#000000;stroke-width:2.30279088;stroke-miterlimit:4;stroke-dasharray:none;stroke-dashoffset:0;stroke-opacity:1"
       id="path4450-6"
       sodipodi:type="arc"
       sodipodi:cx="323.02023"
       sodipodi:cy="152.09769"
       sodipodi:rx="3.3328691"
       sodipodi:ry="3.3485646"
       sodipodi:start="0"
       sodipodi:end="6.2545095"
       d="m 326.3531,152.09769 a 3.3328691,3.3485646 0 0 1 -3.30897,3.34848 3.3328691,3.3485646 0 0 1 -3.35642,-3.30047 3.3328691,3.3485646 0 0 1 3.26085,-3.3958 3.3328691,3.3485646 0 0 1 3.40317,3.25178 l -3.3315,0.096 z" />
    <path
       style="fill:#000000;fill-opacity:1;stroke:#000000;stroke-width:2.30279088;stroke-miterlimit:4;stroke-dasharray:none;stroke-dashoffset:0;stroke-opacity:1"
       id="path4450-2"
       sodipodi:type="arc"
       sodipodi:cx="346.80594"
       sodipodi:cy="152.09769"
       sodipodi:rx="3.3328691"
       sodipodi:ry="3.3485646"
       sodipodi:start="0"
       sodipodi:end="6.2545095"
       d="m 350.13881,152.09769 a 3.3328691,3.3485646 0 0 1 -3.30898,3.34848 3.3328691,3.3485646 0 0 1 -3.35642,-3.30047 3.3328691,3.3485646 0 0 1 3.26085,-3.3958 3.3328691,3.3485646 0 0 1 3.40318,3.25178 l -3.3315,0.096 z" />
    <path
       style="fill:#000000;fill-opacity:1;stroke:#000000;stroke-width:2.30279088;stroke-miterlimit:4;stroke-dasharray:none;stroke-dashoffset:0;stroke-opacity:1"
       id="path4450-2-9"
       sodipodi:type="arc"
       sodipodi:cx="424.09164"
       sodipodi:cy="152.09769"
       sodipodi:rx="3.3328691"
       sodipodi:ry="3.3485646"
       sodipodi:start="0"
       sodipodi:end="6.2545095"
       d="m 427.42451,152.09769 a 3.3328691,3.3485646 0 0 1 -3.30897,3.34848 3.3328691,3.3485646 0 0 1 -3.35642,-3.30047 3.3328691,3.3485646 0 0 1 3.26085,-3.3958 3.3328691,3.3485646 0 0 1 3.40317,3.25178 l -3.3315,0.096 z" />
    <text
       xml:space="preserve"
       style="font-style:normal;font-variant:normal;font-weight:bold;font-stretch:normal;font-size:15px;line-height:125%;font-family:sans-serif;-inkscape-font-specification:'sans-serif Bold';letter-spacing:0px;word-spacing:0px;fill:#000000;fill-opacity:1;stroke:none;stroke-width:1px;stroke-linecap:butt;stroke-linejoin:miter;stroke-opacity:1"
       x="179.35715"
       y="172.19513"
       id="text5288"
       sodipodi:linespacing="125%"><tspan
         sodipodi:role="line"
         id="tspan5290"
         x="179.35715"
         y="172.19513">i</tspan></text>
    <text
       xml:space="preserve"
       style="font-style:normal;font-variant:normal;font-weight:bold;font-stretch:normal;font-size:15px;line-height:125%;font-family:sans-serif;-inkscape-font-specification:'sans-serif Bold';letter-spacing:0px;word-spacing:0px;fill:#000000;fill-opacity:1;stroke:none;stroke-width:1px;stroke-linecap:butt;stroke-linejoin:miter;stroke-opacity:1"
       x="227.21429"
       y="172.19513"
       id="text5292"
       sodipodi:linespacing="125%"><tspan
         sodipodi:role="line"
         id="tspan5294"
         x="227.21429"
         y="172.19513">k</tspan></text>
    <text
       xml:space="preserve"
       style="font-style:normal;font-variant:normal;font-weight:bold;font-stretch:normal;font-size:15px;line-height:125%;font-family:sans-serif;-inkscape-font-specification:'sans-serif Bold';letter-spacing:0px;word-spacing:0px;fill:#000000;fill-opacity:1;stroke:none;stroke-width:1px;stroke-linecap:butt;stroke-linejoin:miter;stroke-opacity:1"
       x="323.64285"
       y="172.19513"
       id="text5296"
       sodipodi:linespacing="125%"><tspan
         sodipodi:role="line"
         id="tspan5298"
         x="323.64285"
         y="172.19513">l</tspan></text>
    <text
       xml:space="preserve"
       style="font-style:normal;font-weight:normal;font-size:15px;line-height:125%;font-family:sans-serif;letter-spacing:0px;word-spacing:0px;fill:#000000;fill-opacity:1;stroke:none;stroke-width:1px;stroke-linecap:butt;stroke-linejoin:miter;stroke-opacity:1"
       x="339.14285"
       y="172.19513"
       id="text5300"
       sodipodi:linespacing="125%"><tspan
         sodipodi:role="line"
         id="tspan5302"
         x="339.14285"
         y="172.19513"
         style="font-style:normal;font-variant:normal;font-weight:bold;font-stretch:normal;font-family:sans-serif;-inkscape-font-specification:'sans-serif Bold'">l+1</tspan></text>
    <text
       xml:space="preserve"
       style="font-style:normal;font-weight:normal;font-size:15px;line-height:125%;font-family:sans-serif;letter-spacing:0px;word-spacing:0px;fill:#000000;fill-opacity:1;stroke:none;stroke-width:1px;stroke-linecap:butt;stroke-linejoin:miter;stroke-opacity:1"
       x="418.71429"
       y="170.57648"
       id="text5304"
       sodipodi:linespacing="125%"><tspan
         sodipodi:role="line"
         id="tspan5306"
         x="418.71429"
         y="170.57648"
         style="font-style:normal;font-variant:normal;font-weight:bold;font-stretch:normal;font-family:sans-serif;-inkscape-font-specification:'sans-serif Bold'">j-1</tspan></text>
    <text
       xml:space="preserve"
       style="font-style:normal;font-variant:normal;font-weight:bold;font-stretch:normal;font-size:15px;line-height:125%;font-family:sans-serif;-inkscape-font-specification:'sans-serif Bold';letter-spacing:0px;word-spacing:0px;fill:#000000;fill-opacity:1;stroke:none;stroke-width:1px;stroke-linecap:butt;stroke-linejoin:miter;stroke-opacity:1"
       x="460.64285"
       y="170.57648"
       id="text5308"
       sodipodi:linespacing="125%"><tspan
         sodipodi:role="line"
         id="tspan5310"
         x="460.64285"
         y="170.57648">j</tspan></text>
  </g>
</svg>
