<?xml version="1.0" encoding="UTF-8" standalone="no"?>
<!-- Created with Inkscape (http://www.inkscape.org/) -->

<svg
   xmlns:dc="http://purl.org/dc/elements/1.1/"
   xmlns:cc="http://creativecommons.org/ns#"
   xmlns:rdf="http://www.w3.org/1999/02/22-rdf-syntax-ns#"
   xmlns:svg="http://www.w3.org/2000/svg"
   xmlns="http://www.w3.org/2000/svg"
   xmlns:sodipodi="http://sodipodi.sourceforge.net/DTD/sodipodi-0.dtd"
   xmlns:inkscape="http://www.inkscape.org/namespaces/inkscape"
   width="124.57976mm"
   height="17.249357mm"
   viewBox="0 0 441.42434 61.119769"
   id="svg36752"
   version="1.1"
   inkscape:version="0.91 r13725"
   sodipodi:docname="EStructure.svg">
  <defs
     id="defs36754" />
  <sodipodi:namedview
     id="base"
     pagecolor="#ffffff"
     bordercolor="#666666"
     borderopacity="1.0"
     inkscape:pageopacity="0.0"
     inkscape:pageshadow="2"
     inkscape:zoom="3.959798"
     inkscape:cx="213.05808"
     inkscape:cy="0.66141728"
     inkscape:document-units="px"
     inkscape:current-layer="layer1"
     showgrid="false"
     fit-margin-top="0"
     fit-margin-left="0"
     fit-margin-right="0"
     fit-margin-bottom="0"
     inkscape:window-width="1855"
     inkscape:window-height="1056"
     inkscape:window-x="65"
     inkscape:window-y="24"
     inkscape:window-maximized="1" />
  <metadata
     id="metadata36757">
    <rdf:RDF>
      <cc:Work
         rdf:about="">
        <dc:format>image/svg+xml</dc:format>
        <dc:type
           rdf:resource="http://purl.org/dc/dcmitype/StillImage" />
        <dc:title />
      </cc:Work>
    </rdf:RDF>
  </metadata>
  <g
     inkscape:label="Layer 1"
     inkscape:groupmode="layer"
     id="layer1"
     transform="translate(-130.7164,-90.373755)">
    <text
       xml:space="preserve"
       style="font-style:normal;font-variant:normal;font-weight:bold;font-stretch:normal;font-size:15px;line-height:125%;font-family:sans-serif;-inkscape-font-specification:'sans-serif Bold';letter-spacing:0px;word-spacing:0px;fill:#000000;fill-opacity:1;stroke:none;stroke-width:1px;stroke-linecap:butt;stroke-linejoin:miter;stroke-opacity:1"
       x="182.86465"
       y="150.71698"
       id="text9913-8-8-9"
       sodipodi:linespacing="125%"><tspan
         sodipodi:role="line"
         id="tspan9915-8-0-4"
         x="182.86465"
         y="150.71698">i</tspan></text>
    <text
       xml:space="preserve"
       style="font-style:normal;font-variant:normal;font-weight:bold;font-stretch:normal;font-size:15px;line-height:125%;font-family:sans-serif;-inkscape-font-specification:'sans-serif Bold';letter-spacing:0px;word-spacing:0px;fill:#000000;fill-opacity:1;stroke:none;stroke-width:1px;stroke-linecap:butt;stroke-linejoin:miter;stroke-opacity:1"
       x="510.52783"
       y="150.71698"
       id="text9925-8-6-5"
       sodipodi:linespacing="125%"><tspan
         sodipodi:role="line"
         id="tspan9927-9-4-9"
         x="510.52783"
         y="150.71698">k</tspan></text>
    <text
       xml:space="preserve"
       style="font-style:normal;font-variant:normal;font-weight:bold;font-stretch:normal;font-size:17.5px;line-height:125%;font-family:sans-serif;-inkscape-font-specification:'sans-serif Bold';letter-spacing:0px;word-spacing:0px;fill:#000000;fill-opacity:1;stroke:none;stroke-width:1px;stroke-linecap:butt;stroke-linejoin:miter;stroke-opacity:1"
       x="271.276"
       y="148.37341"
       id="text7831-9-3"
       sodipodi:linespacing="125%"><tspan
         sodipodi:role="line"
         id="tspan7833-8-5"
         x="271.276"
         y="148.37341"
         style="font-size:15px">p</tspan></text>
    <text
       xml:space="preserve"
       style="font-style:normal;font-variant:normal;font-weight:bold;font-stretch:normal;font-size:17.5px;line-height:125%;font-family:sans-serif;-inkscape-font-specification:'sans-serif Bold';letter-spacing:0px;word-spacing:0px;fill:#000000;fill-opacity:1;stroke:none;stroke-width:1px;stroke-linecap:butt;stroke-linejoin:miter;stroke-opacity:1"
       x="423.3038"
       y="149.4375"
       id="text7835-7-7"
       sodipodi:linespacing="125%"><tspan
         sodipodi:role="line"
         id="tspan7837-2-0"
         x="423.3038"
         y="149.4375"
         style="font-size:15px">r</tspan><tspan
         sodipodi:role="line"
         x="423.3038"
         y="168.1875"
         id="tspan7839-8-8" /></text>
    <path
       style="fill:none;fill-rule:evenodd;stroke:#000000;stroke-width:2;stroke-linecap:butt;stroke-linejoin:miter;stroke-miterlimit:4;stroke-dasharray:none;stroke-opacity:1"
       d="m 130.7164,128.67942 441.42434,0"
       id="path22151"
       inkscape:connector-curvature="0" />
    <ellipse
       style="fill:#000000;fill-opacity:1;stroke:#000000;stroke-width:2.28132534;stroke-linejoin:round;stroke-miterlimit:4;stroke-dasharray:none;stroke-dashoffset:0;stroke-opacity:1"
       id="path22259"
       cx="186.03104"
       cy="128.73956"
       rx="3.3593376"
       ry="3.3593373" />
    <ellipse
       style="fill:#000000;fill-opacity:1;stroke:#000000;stroke-width:2.28132534;stroke-linejoin:round;stroke-miterlimit:4;stroke-dasharray:none;stroke-dashoffset:0;stroke-opacity:1"
       id="path22259-8"
       cx="274.60248"
       cy="128.73956"
       rx="3.3593376"
       ry="3.3593373" />
    <ellipse
       style="fill:#000000;fill-opacity:1;stroke:#000000;stroke-width:2.28132534;stroke-linejoin:round;stroke-miterlimit:4;stroke-dasharray:none;stroke-dashoffset:0;stroke-opacity:1"
       id="path22259-7"
       cx="297.68768"
       cy="128.73956"
       rx="3.3593376"
       ry="3.3593373" />
    <ellipse
       style="fill:#000000;fill-opacity:1;stroke:#000000;stroke-width:2.28132534;stroke-linejoin:round;stroke-miterlimit:4;stroke-dasharray:none;stroke-dashoffset:0;stroke-opacity:1"
       id="path22259-1"
       cx="517.90198"
       cy="128.73956"
       rx="3.3593376"
       ry="3.3593373" />
    <ellipse
       style="fill:#000000;fill-opacity:1;stroke:#000000;stroke-width:2.28132534;stroke-linejoin:round;stroke-miterlimit:4;stroke-dasharray:none;stroke-dashoffset:0;stroke-opacity:1"
       id="path22259-3"
       cx="429.33054"
       cy="128.73956"
       rx="3.3593376"
       ry="3.3593373" />
    <ellipse
       style="fill:#000000;fill-opacity:1;stroke:#000000;stroke-width:2.28132534;stroke-linejoin:round;stroke-miterlimit:4;stroke-dasharray:none;stroke-dashoffset:0;stroke-opacity:1"
       id="path22259-89"
       cx="406.24533"
       cy="128.73956"
       rx="3.3593376"
       ry="3.3593373" />
    <path
       style="fill:none;fill-rule:evenodd;stroke:#000000;stroke-width:1px;stroke-linecap:butt;stroke-linejoin:miter;stroke-opacity:1"
       d="M 184.95676,113.94729 Z"
       id="path22353"
       inkscape:connector-curvature="0" />
    <path
       style="fill:none;fill-rule:evenodd;stroke:#000000;stroke-width:1.79999995;stroke-linecap:butt;stroke-linejoin:miter;stroke-miterlimit:4;stroke-dasharray:none;stroke-opacity:1"
       d="m 297.85963,127.142 c 9.49021,-0.55666 9.74002,-38.60446 26.12277,-12.62446 23.29075,-40.06888 41.84106,-20.40902 55.83325,-0.0157 9.3969,-23.86711 17.12765,-3.31821 26.52453,12.64011"
       id="path22506"
       inkscape:connector-curvature="0"
       sodipodi:nodetypes="cccc" />
    <rect
       style="fill:none;fill-opacity:1;stroke:#000000;stroke-width:2;stroke-linejoin:round;stroke-miterlimit:4;stroke-dasharray:none;stroke-dashoffset:0;stroke-opacity:1"
       id="rect22508"
       width="109.42487"
       height="16.505175"
       x="177.17732"
       y="120.42686" />
    <rect
       style="fill:none;fill-opacity:1;stroke:#000000;stroke-width:2;stroke-linejoin:round;stroke-miterlimit:4;stroke-dasharray:none;stroke-dashoffset:0;stroke-opacity:1"
       id="rect22508-97"
       width="108.92206"
       height="16.507444"
       x="418.48877"
       y="120.42574" />
    <path
       style="font-style:normal;font-variant:normal;font-weight:normal;font-stretch:normal;letter-spacing:normal;word-spacing:normal;text-anchor:start;fill:#000000;fill-opacity:1;fill-rule:evenodd;stroke:#000000;stroke-width:0;stroke-linecap:butt;stroke-linejoin:miter;stroke-miterlimit:10.43299961;stroke-dasharray:none;stroke-dashoffset:0;stroke-opacity:1"
       inkscape:connector-curvature="0"
       d="m 334.96403,120.7526 0,-0.015 0,0 0,-0.015 0.015,-0.015 0,-0.015 0.015,-0.015 0,-0.015 0,-0.015 0.015,-0.015 0,-0.015 0,0 0,-0.015 0.015,0 0,-0.015 0,0 0,-0.015 0,0 0,0 0,-0.015 0,0 0,0 0.015,-0.015 0,0 0,0 0,0 c 0,-0.015 0,-0.165 -0.18,-0.165 -0.135,0 -0.165,0.09 -0.195,0.18 -0.975,2.205 -1.53,3.21 -4.08,3.21 l -2.19,0 c -0.21,0 -0.24,0 -0.33,-0.015 -0.15,-0.015 -0.195,-0.03 -0.195,-0.15 0,-0.045 0,-0.075 0.075,-0.345 l 1.02,-4.08 1.485,0 c 1.26,0 1.26,0.315 1.26,0.69 0,0.105 0,0.285 -0.105,0.735 -0.03,0.075 -0.03,0.12 -0.03,0.165 0,0.075 0.045,0.165 0.18,0.165 0.12,0 0.165,-0.075 0.225,-0.3 l 0.855,-3.495 c 0,-0.09 -0.075,-0.165 -0.18,-0.165 -0.135,0 -0.165,0.075 -0.21,0.27 -0.315,1.125 -0.585,1.47 -1.95,1.47 l -1.41,0 0.9,-3.6 c 0.135,-0.525 0.15,-0.585 0.81,-0.585 l 2.1,0 c 1.83,0 2.28,0.435 2.28,1.665 0,0.36 0,0.39 -0.06,0.795 0,0.075 -0.015,0.18 -0.015,0.255 0,0.09 0.045,0.18 0.18,0.18 0.15,0 0.18,-0.09 0.21,-0.375 l 0.285,-2.58 c 0.045,-0.405 -0.03,-0.405 -0.405,-0.405 l -7.545,0 c -0.285,0 -0.45,0 -0.45,0.3 0,0.165 0.135,0.165 0.42,0.165 0.555,0 0.975,0 0.975,0.27 0,0.06 0,0.09 -0.075,0.36 l -1.965,7.905 c -0.15,0.585 -0.18,0.705 -1.365,0.705 -0.255,0 -0.42,0 -0.42,0.285 0,0.18 0.135,0.18 0.42,0.18 l 7.755,0 c 0.345,0 0.36,-0.015 0.465,-0.255 z"
       id="path36209" />
    <path
       style="font-style:normal;font-variant:normal;font-weight:normal;font-stretch:normal;letter-spacing:normal;word-spacing:normal;text-anchor:start;fill:#000000;fill-opacity:1;fill-rule:evenodd;stroke:#000000;stroke-width:0;stroke-linecap:butt;stroke-linejoin:miter;stroke-miterlimit:10.43299961;stroke-dasharray:none;stroke-dashoffset:0;stroke-opacity:1"
       inkscape:connector-curvature="0"
       d="m 345.91403,113.8376 0,0 0,0 0,-0.015 0,0 0,0 0,-0.015 0,0 0,0 0,-0.015 0,0 -0.015,-0.015 0,0 0,-0.015 0,0 -0.015,0 0,-0.015 0,0 0,-0.015 -0.015,0 0,0 -0.015,-0.015 0,0 -0.015,0 0,0 -0.015,-0.015 0,0 0,0 -0.015,0 0,0 0,0 -0.015,0 0,0 0,0 -0.015,0 0,-0.015 0,0 -0.015,0 0,0 -0.015,0 c -0.075,0 -0.09,0.015 -0.27,0.225 l -0.705,0.855 c -0.39,-0.705 -1.17,-1.08 -2.145,-1.08 -1.89,0 -3.69,1.725 -3.69,3.54 0,1.2 0.795,1.89 1.56,2.115 l 1.59,0.42 c 0.555,0.135 1.38,0.36 1.38,1.59 0,1.335 -1.23,2.745 -2.685,2.745 -0.96,0 -2.625,-0.33 -2.625,-2.19 0,-0.36 0.075,-0.72 0.09,-0.81 0.015,-0.045 0.03,-0.075 0.03,-0.09 0,-0.15 -0.105,-0.165 -0.18,-0.165 -0.075,0 -0.105,0.015 -0.15,0.06 -0.06,0.06 -0.885,3.465 -0.885,3.51 0,0.09 0.06,0.15 0.15,0.15 0.075,0 0.09,-0.015 0.27,-0.225 l 0.735,-0.855 c 0.645,0.87 1.665,1.08 2.535,1.08 2.025,0 3.795,-1.995 3.795,-3.84 0,-1.035 -0.51,-1.545 -0.735,-1.755 -0.345,-0.345 -0.57,-0.405 -1.905,-0.75 -0.33,-0.09 -0.855,-0.24 -0.99,-0.27 -0.405,-0.135 -0.915,-0.555 -0.915,-1.35 0,-1.215 1.2,-2.49 2.61,-2.49 1.245,0 2.16,0.645 2.16,2.325 0,0.48 -0.06,0.735 -0.06,0.825 0,0.015 0,0.165 0.18,0.165 0.15,0 0.165,-0.06 0.225,-0.3 z"
       id="path36211" />
    <path
       style="font-style:normal;font-variant:normal;font-weight:normal;font-stretch:normal;letter-spacing:normal;word-spacing:normal;text-anchor:start;fill:#000000;fill-opacity:1;fill-rule:evenodd;stroke:#000000;stroke-width:0;stroke-linecap:butt;stroke-linejoin:miter;stroke-miterlimit:10.43299961;stroke-dasharray:none;stroke-dashoffset:0;stroke-opacity:1"
       inkscape:connector-curvature="0"
       d="m 351.23903,127.8176 0,-0.015 0,0 0,-0.015 0,0 0,0 0,0 0,-0.015 -0.015,0 0,-0.015 0,0 0,0 0,-0.015 -0.015,0 0,-0.015 -0.015,0 0,-0.015 -0.015,-0.015 0,0 0,-0.015 -0.015,0 0,-0.015 0,0 -0.015,-0.015 0,0 -0.015,0 0,-0.015 -0.015,0 0,-0.015 -0.015,0 0,-0.015 -0.015,-0.015 0,0 -0.015,-0.015 0,0 -0.015,-0.015 -0.015,-0.015 0,0 -0.015,-0.015 -0.015,-0.015 0,-0.015 -0.015,0 -0.015,-0.015 c -1.86,-1.89 -2.34,-4.71 -2.34,-6.99 0,-2.61 0.57,-5.205 2.4,-7.08 0.195,-0.18 0.195,-0.21 0.195,-0.24 0,-0.12 -0.06,-0.15 -0.15,-0.15 -0.15,0 -1.5,1.005 -2.37,2.91 -0.765,1.635 -0.945,3.3 -0.945,4.56 0,1.155 0.165,2.97 0.99,4.65 0.885,1.845 2.175,2.82 2.325,2.82 0.09,0 0.15,-0.045 0.15,-0.15 z"
       id="path36213" />
    <path
       style="font-style:normal;font-variant:normal;font-weight:normal;font-stretch:normal;letter-spacing:normal;word-spacing:normal;text-anchor:start;fill:#000000;fill-opacity:1;fill-rule:evenodd;stroke:#000000;stroke-width:0;stroke-linecap:butt;stroke-linejoin:miter;stroke-miterlimit:10.43299961;stroke-dasharray:none;stroke-dashoffset:0;stroke-opacity:1"
       inkscape:connector-curvature="0"
       d="m 352.78403,126.0476 -0.015,0.045 -0.015,0.045 0,0.045 -0.015,0.045 -0.015,0.03 0,0.045 -0.015,0.03 -0.015,0.03 -0.015,0.03 0,0.03 -0.015,0.03 -0.015,0.015 -0.015,0.03 -0.015,0.015 -0.015,0.015 -0.03,0.015 -0.015,0.015 -0.015,0.015 -0.03,0.015 -0.03,0.015 -0.03,0.015 -0.03,0 -0.03,0.015 -0.03,0 -0.045,0.015 -0.015,0 -0.015,0 -0.03,0 -0.015,0.015 -0.03,0 -0.015,0 -0.03,0 -0.03,0 -0.015,0 -0.03,0 -0.03,0 -0.03,0 -0.03,0 -0.03,0 c -0.18,0 -0.345,0 -0.345,0.285 0,0.12 0.075,0.18 0.195,0.18 0.405,0 0.84,-0.045 1.26,-0.045 0.495,0 1.005,0.045 1.47,0.045 0.075,0 0.27,0 0.27,-0.3 0,-0.165 -0.15,-0.165 -0.36,-0.165 -0.735,0 -0.735,-0.105 -0.735,-0.24 0,-0.18 0.615,-2.61 0.72,-2.985 0.195,0.435 0.615,0.96 1.38,0.96 l -0.015,-0.33 c -0.99,0 -1.185,-1.245 -1.185,-1.335 0,-0.03 0,-0.06 0.045,-0.24 l 0.735,-2.925 c 0.105,-0.405 0.51,-0.825 0.78,-1.05 0.525,-0.465 0.96,-0.57 1.215,-0.57 0.6,0 0.945,0.525 0.945,1.41 0,0.885 -0.48,2.595 -0.75,3.165 -0.51,1.05 -1.23,1.545 -1.785,1.545 l 0.015,0.33 c 1.74,0 3.6,-2.19 3.6,-4.38 0,-1.41 -0.855,-2.4 -1.98,-2.4 -0.75,0 -1.47,0.54 -1.965,1.125 -0.15,-0.81 -0.795,-1.125 -1.35,-1.125 -0.675,0 -0.96,0.585 -1.095,0.855 -0.27,0.51 -0.465,1.41 -0.465,1.455 0,0.15 0.15,0.15 0.18,0.15 0.15,0 0.165,-0.015 0.255,-0.345 0.255,-1.065 0.555,-1.785 1.08,-1.785 0.255,0 0.465,0.12 0.465,0.69 0,0.345 -0.045,0.51 -0.105,0.765 z"
       id="path36215" />
    <path
       style="font-style:normal;font-variant:normal;font-weight:normal;font-stretch:normal;letter-spacing:normal;word-spacing:normal;text-anchor:start;fill:#000000;fill-opacity:1;fill-rule:evenodd;stroke:#000000;stroke-width:0;stroke-linecap:butt;stroke-linejoin:miter;stroke-miterlimit:10.43299961;stroke-dasharray:none;stroke-dashoffset:0;stroke-opacity:1"
       inkscape:connector-curvature="0"
       d="m 362.65403,124.2176 0,-0.09 0,-0.09 0,-0.09 -0.015,-0.09 -0.015,-0.075 0,-0.075 -0.015,-0.075 -0.015,-0.075 -0.015,-0.075 -0.03,-0.075 -0.015,-0.06 -0.03,-0.06 -0.015,-0.06 -0.03,-0.06 -0.03,-0.06 -0.03,-0.045 -0.03,-0.06 -0.03,-0.045 -0.045,-0.03 -0.03,-0.045 -0.045,-0.045 -0.045,-0.03 -0.03,-0.03 -0.045,-0.03 -0.045,-0.015 -0.045,-0.03 -0.045,-0.015 -0.06,-0.015 -0.045,-0.015 -0.045,0 -0.06,-0.015 -0.045,0 c -0.495,0 -0.795,0.375 -0.795,0.795 0,0.405 0.3,0.795 0.795,0.795 0.165,0 0.36,-0.06 0.51,-0.195 0.045,-0.03 0.06,-0.045 0.075,-0.045 0.015,0 0.03,0.015 0.03,0.225 0,1.095 -0.525,1.995 -1.005,2.49 -0.165,0.165 -0.165,0.195 -0.165,0.24 0,0.105 0.075,0.165 0.15,0.165 0.15,0 1.35,-1.155 1.35,-2.895 z"
       id="path36217" />
    <path
       style="font-style:normal;font-variant:normal;font-weight:normal;font-stretch:normal;letter-spacing:normal;word-spacing:normal;text-anchor:start;fill:#000000;fill-opacity:1;fill-rule:evenodd;stroke:#000000;stroke-width:0;stroke-linecap:butt;stroke-linejoin:miter;stroke-miterlimit:10.43299961;stroke-dasharray:none;stroke-dashoffset:0;stroke-opacity:1"
       inkscape:connector-curvature="0"
       d="m 367.58903,123.3476 0,0.015 -0.015,0.03 0,0.015 0,0.03 -0.015,0.045 -0.015,0.045 0,0.06 -0.015,0.045 -0.015,0.045 -0.015,0.045 0,0.03 0,0.015 -0.015,0.03 0,0.015 0,0.015 -0.015,0.03 0,0.015 0,0.015 0,0.015 0,0.015 -0.015,0.015 0,0.015 0,0.015 0,0.015 0,0 0,0.015 c 0,0.27 0.21,0.405 0.435,0.405 0.18,0 0.45,-0.12 0.555,-0.42 0.03,-0.06 0.54,-2.1 0.6,-2.37 0.12,-0.495 0.375,-1.53 0.465,-1.935 0.06,-0.195 0.48,-0.9 0.84,-1.23 0.12,-0.105 0.555,-0.495 1.2,-0.495 0.39,0 0.615,0.18 0.63,0.18 -0.45,0.075 -0.78,0.435 -0.78,0.825 0,0.24 0.165,0.525 0.57,0.525 0.405,0 0.825,-0.345 0.825,-0.885 0,-0.525 -0.48,-0.975 -1.245,-0.975 -0.975,0 -1.635,0.735 -1.92,1.155 -0.12,-0.675 -0.645,-1.155 -1.35,-1.155 -0.69,0 -0.975,0.585 -1.11,0.855 -0.27,0.51 -0.465,1.41 -0.465,1.455 0,0.15 0.15,0.15 0.18,0.15 0.15,0 0.165,-0.015 0.255,-0.345 0.255,-1.065 0.555,-1.785 1.095,-1.785 0.255,0 0.465,0.12 0.465,0.69 0,0.315 -0.045,0.48 -0.24,1.26 z"
       id="path36219" />
    <path
       style="font-style:normal;font-variant:normal;font-weight:normal;font-stretch:normal;letter-spacing:normal;word-spacing:normal;text-anchor:start;fill:#000000;fill-opacity:1;fill-rule:evenodd;stroke:#000000;stroke-width:0;stroke-linecap:butt;stroke-linejoin:miter;stroke-miterlimit:10.43299961;stroke-dasharray:none;stroke-dashoffset:0;stroke-opacity:1"
       inkscape:connector-curvature="0"
       d="m 377.74403,120.4976 0,-0.12 0,-0.105 0,-0.12 0,-0.12 -0.015,-0.255 -0.015,-0.27 -0.03,-0.27 -0.03,-0.285 -0.045,-0.3 -0.045,-0.3 -0.06,-0.3 -0.075,-0.315 -0.075,-0.315 -0.09,-0.315 -0.105,-0.315 -0.12,-0.33 -0.06,-0.15 -0.075,-0.165 -0.075,-0.165 -0.075,-0.15 c -0.885,-1.845 -2.175,-2.805 -2.325,-2.805 -0.09,0 -0.15,0.06 -0.15,0.15 0,0.03 0,0.06 0.285,0.33 1.47,1.485 2.31,3.855 2.31,6.99 0,2.55 -0.54,5.175 -2.4,7.065 -0.195,0.18 -0.195,0.21 -0.195,0.255 0,0.09 0.06,0.15 0.15,0.15 0.15,0 1.5,-1.02 2.37,-2.925 0.765,-1.635 0.945,-3.3 0.945,-4.545 z"
       id="path36221" />
  </g>
</svg>
