<?xml version="1.0" encoding="UTF-8" standalone="no"?>
<!-- Created with Inkscape (http://www.inkscape.org/) -->

<svg
   xmlns:ns0="http://www.iki.fi/pav/software/textext/"
   xmlns:osb="http://www.openswatchbook.org/uri/2009/osb"
   xmlns:dc="http://purl.org/dc/elements/1.1/"
   xmlns:cc="http://creativecommons.org/ns#"
   xmlns:rdf="http://www.w3.org/1999/02/22-rdf-syntax-ns#"
   xmlns:svg="http://www.w3.org/2000/svg"
   xmlns="http://www.w3.org/2000/svg"
   xmlns:sodipodi="http://sodipodi.sourceforge.net/DTD/sodipodi-0.dtd"
   xmlns:inkscape="http://www.inkscape.org/namespaces/inkscape"
   width="197.09955mm"
   height="31.416828mm"
   viewBox="0 0 698.38423 111.31947"
   id="svg2"
   version="1.1"
   inkscape:version="0.91 r13725"
   sodipodi:docname="QB.svg">
  <sodipodi:namedview
     id="base"
     pagecolor="#ffffff"
     bordercolor="#666666"
     borderopacity="1.0"
     inkscape:pageopacity="0.0"
     inkscape:pageshadow="2"
     inkscape:zoom="1.979899"
     inkscape:cx="326.93996"
     inkscape:cy="86.249823"
     inkscape:document-units="px"
     inkscape:current-layer="layer1"
     showgrid="false"
     inkscape:window-width="1855"
     inkscape:window-height="1056"
     inkscape:window-x="65"
     inkscape:window-y="24"
     inkscape:window-maximized="1"
     showguides="false"
     fit-margin-top="0"
     fit-margin-left="0"
     fit-margin-right="0"
     fit-margin-bottom="0" />
  <defs
     id="defs4">
    <marker
       inkscape:isstock="true"
       style="overflow:visible"
       id="marker6632"
       refX="0"
       refY="0"
       orient="auto"
       inkscape:stockid="DotM">
      <path
         transform="matrix(0.4,0,0,0.4,2.96,0.4)"
         style="fill:#000000;fill-opacity:1;fill-rule:evenodd;stroke:#000000;stroke-width:1pt;stroke-opacity:1"
         d="m -2.5,-1 c 0,2.76 -2.24,5 -5,5 -2.76,0 -5,-2.24 -5,-5 0,-2.76 2.24,-5 5,-5 2.76,0 5,2.24 5,5 z"
         id="path6634"
         inkscape:connector-curvature="0" />
    </marker>
    <marker
       inkscape:isstock="true"
       style="overflow:visible"
       id="DotM"
       refX="0"
       refY="0"
       orient="auto"
       inkscape:stockid="DotM">
      <path
         transform="matrix(0.4,0,0,0.4,2.96,0.4)"
         style="fill:#000000;fill-opacity:1;fill-rule:evenodd;stroke:#000000;stroke-width:1pt;stroke-opacity:1"
         d="m -2.5,-1 c 0,2.76 -2.24,5 -5,5 -2.76,0 -5,-2.24 -5,-5 0,-2.76 2.24,-5 5,-5 2.76,0 5,2.24 5,5 z"
         id="path4206"
         inkscape:connector-curvature="0" />
    </marker>
    <marker
       inkscape:isstock="true"
       style="overflow:visible"
       id="Arrow1Mend"
       refX="0"
       refY="0"
       orient="auto"
       inkscape:stockid="Arrow1Mend">
      <path
         transform="matrix(-0.4,0,0,-0.4,-4,0)"
         style="fill:#000000;fill-opacity:1;fill-rule:evenodd;stroke:#000000;stroke-width:1pt;stroke-opacity:1"
         d="M 0,0 5,-5 -12.5,0 5,5 0,0 Z"
         id="path4151"
         inkscape:connector-curvature="0" />
    </marker>
    <linearGradient
       osb:paint="solid"
       id="linearGradient6314">
      <stop
         id="stop6316"
         offset="0"
         style="stop-color:#000000;stop-opacity:1;" />
    </linearGradient>
    <marker
       inkscape:isstock="true"
       style="overflow:visible"
       id="DotL"
       refX="0"
       refY="0"
       orient="auto"
       inkscape:stockid="DotL">
      <path
         transform="matrix(0.8,0,0,0.8,5.92,0.8)"
         style="fill:#000000;fill-opacity:1;fill-rule:evenodd;stroke:#000000;stroke-width:1pt;stroke-opacity:1"
         d="m -2.5,-1 c 0,2.76 -2.24,5 -5,5 -2.76,0 -5,-2.24 -5,-5 0,-2.76 2.24,-5 5,-5 2.76,0 5,2.24 5,5 z"
         id="path4203"
         inkscape:connector-curvature="0" />
    </marker>
    <marker
       inkscape:isstock="true"
       style="overflow:visible"
       id="marker6632-1"
       refX="0"
       refY="0"
       orient="auto"
       inkscape:stockid="DotM">
      <path
         inkscape:connector-curvature="0"
         transform="matrix(0.4,0,0,0.4,2.96,0.4)"
         style="fill:#000000;fill-opacity:1;fill-rule:evenodd;stroke:#000000;stroke-width:1pt;stroke-opacity:1"
         d="m -2.5,-1 c 0,2.76 -2.24,5 -5,5 -2.76,0 -5,-2.24 -5,-5 0,-2.76 2.24,-5 5,-5 2.76,0 5,2.24 5,5 z"
         id="path6634-8" />
    </marker>
    <marker
       inkscape:isstock="true"
       style="overflow:visible"
       id="DotM-7"
       refX="0"
       refY="0"
       orient="auto"
       inkscape:stockid="DotM">
      <path
         inkscape:connector-curvature="0"
         transform="matrix(0.4,0,0,0.4,2.96,0.4)"
         style="fill:#000000;fill-opacity:1;fill-rule:evenodd;stroke:#000000;stroke-width:1pt;stroke-opacity:1"
         d="m -2.5,-1 c 0,2.76 -2.24,5 -5,5 -2.76,0 -5,-2.24 -5,-5 0,-2.76 2.24,-5 5,-5 2.76,0 5,2.24 5,5 z"
         id="path4206-9" />
    </marker>
    <marker
       inkscape:isstock="true"
       style="overflow:visible"
       id="marker6632-1-6"
       refX="0"
       refY="0"
       orient="auto"
       inkscape:stockid="DotM">
      <path
         inkscape:connector-curvature="0"
         transform="matrix(0.4,0,0,0.4,2.96,0.4)"
         style="fill:#000000;fill-opacity:1;fill-rule:evenodd;stroke:#000000;stroke-width:1pt;stroke-opacity:1"
         d="m -2.5,-1 c 0,2.76 -2.24,5 -5,5 -2.76,0 -5,-2.24 -5,-5 0,-2.76 2.24,-5 5,-5 2.76,0 5,2.24 5,5 z"
         id="path6634-8-1" />
    </marker>
    <marker
       inkscape:isstock="true"
       style="overflow:visible"
       id="DotM-7-5"
       refX="0"
       refY="0"
       orient="auto"
       inkscape:stockid="DotM">
      <path
         inkscape:connector-curvature="0"
         transform="matrix(0.4,0,0,0.4,2.96,0.4)"
         style="fill:#000000;fill-opacity:1;fill-rule:evenodd;stroke:#000000;stroke-width:1pt;stroke-opacity:1"
         d="m -2.5,-1 c 0,2.76 -2.24,5 -5,5 -2.76,0 -5,-2.24 -5,-5 0,-2.76 2.24,-5 5,-5 2.76,0 5,2.24 5,5 z"
         id="path4206-9-5" />
    </marker>
    <marker
       inkscape:isstock="true"
       style="overflow:visible"
       id="marker6632-1-3"
       refX="0"
       refY="0"
       orient="auto"
       inkscape:stockid="DotM">
      <path
         inkscape:connector-curvature="0"
         transform="matrix(0.4,0,0,0.4,2.96,0.4)"
         style="fill:#000000;fill-opacity:1;fill-rule:evenodd;stroke:#000000;stroke-width:1pt;stroke-opacity:1"
         d="m -2.5,-1 c 0,2.76 -2.24,5 -5,5 -2.76,0 -5,-2.24 -5,-5 0,-2.76 2.24,-5 5,-5 2.76,0 5,2.24 5,5 z"
         id="path6634-8-7" />
    </marker>
    <marker
       inkscape:isstock="true"
       style="overflow:visible"
       id="DotM-7-4"
       refX="0"
       refY="0"
       orient="auto"
       inkscape:stockid="DotM">
      <path
         inkscape:connector-curvature="0"
         transform="matrix(0.4,0,0,0.4,2.96,0.4)"
         style="fill:#000000;fill-opacity:1;fill-rule:evenodd;stroke:#000000;stroke-width:1pt;stroke-opacity:1"
         d="m -2.5,-1 c 0,2.76 -2.24,5 -5,5 -2.76,0 -5,-2.24 -5,-5 0,-2.76 2.24,-5 5,-5 2.76,0 5,2.24 5,5 z"
         id="path4206-9-52" />
    </marker>
    <marker
       inkscape:isstock="true"
       style="overflow:visible"
       id="marker6632-1-7"
       refX="0"
       refY="0"
       orient="auto"
       inkscape:stockid="DotM">
      <path
         inkscape:connector-curvature="0"
         transform="matrix(0.4,0,0,0.4,2.96,0.4)"
         style="fill:#000000;fill-opacity:1;fill-rule:evenodd;stroke:#000000;stroke-width:1pt;stroke-opacity:1"
         d="m -2.5,-1 c 0,2.76 -2.24,5 -5,5 -2.76,0 -5,-2.24 -5,-5 0,-2.76 2.24,-5 5,-5 2.76,0 5,2.24 5,5 z"
         id="path6634-8-8" />
    </marker>
    <marker
       inkscape:isstock="true"
       style="overflow:visible"
       id="DotM-7-6"
       refX="0"
       refY="0"
       orient="auto"
       inkscape:stockid="DotM">
      <path
         inkscape:connector-curvature="0"
         transform="matrix(0.4,0,0,0.4,2.96,0.4)"
         style="fill:#000000;fill-opacity:1;fill-rule:evenodd;stroke:#000000;stroke-width:1pt;stroke-opacity:1"
         d="m -2.5,-1 c 0,2.76 -2.24,5 -5,5 -2.76,0 -5,-2.24 -5,-5 0,-2.76 2.24,-5 5,-5 2.76,0 5,2.24 5,5 z"
         id="path4206-9-8" />
    </marker>
  </defs>
  <metadata
     id="metadata7">
    <rdf:RDF>
      <cc:Work
         rdf:about="">
        <dc:format>image/svg+xml</dc:format>
        <dc:type
           rdf:resource="http://purl.org/dc/dcmitype/StillImage" />
        <dc:title />
      </cc:Work>
    </rdf:RDF>
  </metadata>
  <g
     id="layer1"
     inkscape:groupmode="layer"
     inkscape:label="Layer 1"
     transform="translate(-11.346174,-22.933612)">
    <flowRoot
       style="font-style:normal;font-weight:normal;font-size:12.5px;line-height:125%;font-family:sans-serif;letter-spacing:0px;word-spacing:0px;fill:#000000;fill-opacity:1;stroke:none;stroke-width:1px;stroke-linecap:butt;stroke-linejoin:miter;stroke-opacity:1"
       id="flowRoot6746"
       xml:space="preserve"><flowRegion
         id="flowRegion6748"><rect
           y="112.41526"
           x="76.771591"
           height="18.687822"
           width="9.5964489"
           id="rect6750" /></flowRegion><flowPara
         id="flowPara6752" /></flowRoot>    <text
       sodipodi:linespacing="125%"
       id="text6766"
       y="143.22491"
       x="54.548237"
       style="font-style:normal;font-weight:normal;font-size:12.5px;line-height:125%;font-family:sans-serif;letter-spacing:0px;word-spacing:0px;fill:#000000;fill-opacity:1;stroke:none;stroke-width:1px;stroke-linecap:butt;stroke-linejoin:miter;stroke-opacity:1"
       xml:space="preserve"><tspan
         y="143.22491"
         x="54.548237"
         id="tspan6768"
         sodipodi:role="line" /></text>
    <text
       xml:space="preserve"
       style="font-style:normal;font-weight:normal;font-size:12.5px;line-height:125%;font-family:sans-serif;letter-spacing:0px;word-spacing:0px;fill:#000000;fill-opacity:1;stroke:none;stroke-width:1px;stroke-linecap:butt;stroke-linejoin:miter;stroke-opacity:1"
       x="369.28571"
       y="106.29076"
       id="text4785"
       sodipodi:linespacing="125%"><tspan
         sodipodi:role="line"
         id="tspan4787"
         x="369.28571"
         y="106.29076" /></text>
    <g
       style="font-style:normal;font-variant:normal;font-weight:normal;font-stretch:normal;letter-spacing:normal;word-spacing:normal;text-anchor:start;fill:none;fill-opacity:1;fill-rule:evenodd;stroke:#000000;stroke-linecap:butt;stroke-linejoin:miter;stroke-miterlimit:10.43299961;stroke-dasharray:none;stroke-dashoffset:0;stroke-opacity:1"
       id="g5262"
       transform="matrix(1,0,0,-1,344.64286,782.85715)"
       xml:space="preserve"
       stroke-miterlimit="10.433"
       font-style="normal"
       font-variant="normal"
       font-weight="normal"
       font-stretch="normal"
       font-size-adjust="none"
       letter-spacing="normal"
       word-spacing="normal"
       ns0:text="$Q_{i,j}^m$"
       ns0:preamble="" />    <text
       sodipodi:linespacing="125%"
       id="text5823"
       y="120.57647"
       x="14.285714"
       style="font-style:normal;font-variant:normal;font-weight:bold;font-stretch:normal;font-size:15px;line-height:125%;font-family:sans-serif;-inkscape-font-specification:'sans-serif Bold';letter-spacing:0px;word-spacing:0px;fill:#000000;fill-opacity:1;stroke:none;stroke-width:1px;stroke-linecap:butt;stroke-linejoin:miter;stroke-opacity:1"
       xml:space="preserve"><tspan
         y="120.57647"
         x="14.285714"
         id="tspan5825"
         sodipodi:role="line" /></text>
    <path
       sodipodi:nodetypes="cc"
       inkscape:connector-curvature="0"
       id="path6320"
       d="m 14.426649,80.183532 c 48.253897,-63.303656 85.175062,-44.94738 118.405921,0"
       style="fill:#00dc00;fill-opacity:1;fill-rule:evenodd;stroke:#006a00;stroke-width:1.29999995;stroke-linecap:butt;stroke-linejoin:miter;stroke-miterlimit:4;stroke-dasharray:none;stroke-opacity:1" />
    <path
       inkscape:connector-curvature="0"
       id="path3336"
       d="m 15.926174,80.861852 116.674896,0"
       style="fill:none;fill-rule:evenodd;stroke:#000000;stroke-width:2;stroke-linecap:butt;stroke-linejoin:miter;stroke-miterlimit:4;stroke-dasharray:none;stroke-opacity:1;marker-start:url(#marker6632);marker-end:url(#DotM)" />
    <g
       ns0:preamble=""
       ns0:text="$Q_{i,j}^b$"
       word-spacing="normal"
       letter-spacing="normal"
       font-size-adjust="none"
       font-stretch="normal"
       font-weight="normal"
       font-variant="normal"
       font-style="normal"
       stroke-miterlimit="10.433"
       xml:space="preserve"
       transform="matrix(1.7803506,0,0,-1.8927472,-337.78606,1405.333)"
       id="content"
       style="font-style:normal;font-variant:normal;font-weight:normal;font-stretch:normal;letter-spacing:normal;word-spacing:normal;text-anchor:start;fill:none;fill-opacity:1;fill-rule:evenodd;stroke:#000000;stroke-linecap:butt;stroke-linejoin:miter;stroke-miterlimit:10.43299961;stroke-dasharray:none;stroke-dashoffset:0;stroke-opacity:1"><path
         id="path4256"
         d="m 227.8,707.18 0.14,0.06 0.14,0.07 0.15,0.07 0.14,0.08 0.14,0.08 0.14,0.09 0.13,0.1 0.14,0.1 0.13,0.11 0.13,0.11 0.12,0.12 0.13,0.12 0.12,0.13 0.11,0.13 0.11,0.13 0.11,0.14 0.1,0.15 0.1,0.14 0.09,0.16 0.09,0.15 0.08,0.16 0.08,0.16 0.07,0.16 0.06,0.17 0.06,0.17 0.05,0.17 0.04,0.17 0.04,0.17 0.03,0.18 0.02,0.18 0.01,0.18 0,0.18 c 0,1.6 -1.05,2.68 -2.54,2.68 l -0.05,-0.25 c 0.99,0 1.72,-0.78 1.72,-2.12 0,-0.99 -0.51,-3.32 -2.18,-4.26 -0.05,0.35 -0.15,1.08 -0.88,1.08 l 0,-0.22 c 0.42,0 0.61,-0.24 0.61,-0.85 0,-0.15 -0.01,-0.16 -0.11,-0.2 -0.26,-0.11 -0.56,-0.18 -0.84,-0.18 l 0,0 c -0.14,0 -0.46,0 -0.46,0.43 0,0.4 0.38,0.8 0.8,0.8 l 0,0.22 c -0.53,0 -1.02,-0.5 -1.02,-1.02 0,-0.2 0.06,-0.31 0.06,-0.32 l 0,0 c -0.77,0.31 -1.11,1.09 -1.11,1.98 0,0.69 0.26,2.11 1.01,3.18 0.73,1.02 1.67,1.48 2.4,1.48 l 0.05,0.25 c -2.15,0 -4.34,-2.26 -4.34,-4.59 0,-1.65 1.12,-2.66 2.55,-2.66 0.25,0 0.59,0.04 0.98,0.15 -0.04,-0.62 -0.04,-0.64 -0.04,-0.76 0,-0.32 0,-1.1 0.82,-1.1 1.19,0 1.67,1.82 1.67,1.93 0,0.07 -0.07,0.1 -0.11,0.1 -0.08,0 -0.1,-0.05 -0.12,-0.11 -0.24,-0.7 -0.82,-0.95 -1.17,-0.95 -0.46,0 -0.6,0.26 -0.7,1.02 z"
         inkscape:connector-curvature="0"
         style="fill:#000000;stroke-width:0" /><path
         id="path4258"
         d="m 233.15,715.37 0,0 0,0 0,0 0,0 0,0 0,0 0,0.01 0,0 0,0 0,0 0.01,0.01 0,0 0,0 0,0.01 0,0 0,0.01 0,0 0,0.01 0.01,0.01 0,0.01 0,0 0,0.01 0,0 0,0 0,0.01 0,0 0,0.01 0,0 0,0 0,0 0,0 0.01,0 0,0 0,0.01 0,0 0,0 0,0 0,0 0,0 0,0 c 0,0.04 -0.03,0.1 -0.11,0.1 -0.14,0 -0.72,-0.06 -0.9,-0.07 -0.05,-0.01 -0.15,-0.02 -0.15,-0.16 0,-0.1 0.1,-0.1 0.18,-0.1 0.34,0 0.34,-0.05 0.34,-0.1 0,-0.05 -0.08,-0.33 -0.12,-0.49 l -0.16,-0.64 c -0.06,-0.24 -0.44,-1.77 -0.46,-1.86 -0.03,-0.17 -0.03,-0.26 -0.03,-0.34 0,-0.71 0.44,-1.15 1.02,-1.15 l 0.01,0.19 c -0.34,0 -0.54,0.3 -0.54,0.71 0,0.26 0.07,0.5 0.26,1.29 0.04,0.13 0.04,0.14 0.18,0.3 0.26,0.3 0.57,0.46 0.82,0.46 0.28,0 0.51,-0.21 0.51,-0.68 0,-0.28 -0.15,-1 -0.36,-1.4 -0.17,-0.34 -0.51,-0.68 -0.87,-0.68 l 0,0 -0.01,-0.19 c 0.87,0 1.8,0.95 1.8,1.98 0,0.81 -0.56,1.16 -1.04,1.16 -0.37,0 -0.67,-0.2 -0.88,-0.38 z"
         inkscape:connector-curvature="0"
         style="fill:#000000;stroke-width:0" /><path
         id="path4260"
         d="m 233.57,708.89 0,0.01 0,0.02 -0.01,0.01 0,0.01 0,0.01 0,0.01 -0.01,0.01 0,0.01 0,0.01 -0.01,0.01 0,0.02 -0.01,0.01 -0.01,0.01 0,0.01 -0.01,0.01 -0.01,0.01 -0.01,0.01 -0.01,0.01 -0.01,0.01 -0.01,0 -0.01,0.01 -0.01,0.01 -0.01,0.01 -0.02,0 -0.01,0.01 -0.01,0 -0.02,0.01 -0.01,0 -0.02,0.01 -0.02,0 -0.01,0 -0.02,0 c -0.19,0 -0.39,-0.18 -0.39,-0.38 0,-0.12 0.09,-0.27 0.28,-0.27 0.2,0 0.39,0.2 0.39,0.38 z"
         inkscape:connector-curvature="0"
         style="fill:#000000;stroke-width:0" /><path
         id="path4262"
         d="m 232.14,705.35 0,-0.02 -0.01,-0.01 -0.01,-0.04 0,-0.01 -0.01,-0.02 0,-0.02 -0.01,-0.01 0,-0.02 -0.01,-0.02 0,-0.02 0,-0.02 0,-0.01 0,-0.01 -0.01,-0.01 0,-0.01 0,-0.01 0,-0.01 0,-0.01 0,-0.01 c 0,-0.33 0.28,-0.59 0.66,-0.59 0.7,0 1.01,0.96 1.01,1.06 0,0.09 -0.09,0.09 -0.11,0.09 -0.1,0 -0.11,-0.04 -0.14,-0.12 -0.16,-0.55 -0.46,-0.84 -0.74,-0.84 -0.13,0 -0.17,0.09 -0.17,0.25 0,0.16 0.05,0.29 0.11,0.44 0.07,0.19 0.15,0.38 0.23,0.56 0.06,0.17 0.31,0.8 0.34,0.88 0.02,0.07 0.04,0.16 0.04,0.23 0,0.32 -0.28,0.59 -0.66,0.59 -0.69,0 -1.02,-0.95 -1.02,-1.07 0,-0.09 0.1,-0.09 0.12,-0.09 0.1,0 0.11,0.04 0.13,0.11 0.18,0.6 0.49,0.85 0.75,0.85 0.11,0 0.17,-0.05 0.17,-0.24 0,-0.16 -0.04,-0.26 -0.22,-0.7 z"
         inkscape:connector-curvature="0"
         style="fill:#000000;stroke-width:0" /><path
         id="path4264"
         d="m 235.6,704.65 0,-0.08 0,-0.07 -0.01,-0.08 -0.01,-0.07 -0.01,-0.04 0,-0.04 -0.01,-0.04 -0.01,-0.04 -0.01,-0.04 -0.01,-0.04 -0.01,-0.04 -0.02,-0.04 -0.01,-0.04 -0.02,-0.04 -0.01,-0.04 -0.02,-0.04 -0.03,-0.04 -0.02,-0.04 -0.02,-0.04 -0.03,-0.05 -0.03,-0.04 -0.03,-0.04 -0.03,-0.04 -0.04,-0.04 -0.03,-0.04 -0.04,-0.05 -0.04,-0.04 -0.05,-0.04 c -0.02,-0.03 -0.04,-0.05 -0.04,-0.08 0,-0.05 0.05,-0.1 0.09,-0.1 0.1,0 0.69,0.56 0.69,1.39 0,0.43 -0.16,0.76 -0.48,0.76 -0.23,0 -0.4,-0.18 -0.4,-0.4 0,-0.22 0.16,-0.41 0.4,-0.41 0.17,0 0.28,0.12 0.29,0.12 z"
         inkscape:connector-curvature="0"
         style="fill:#000000;stroke-width:0" /><path
         id="path4266"
         d="m 239.55,708.89 0,0.02 0,0.01 0,0.01 0,0.01 -0.01,0.01 0,0.01 0,0.01 -0.01,0.02 0,0.01 -0.01,0.01 0,0.01 -0.01,0.01 0,0.01 -0.01,0.01 -0.01,0.01 -0.01,0.01 -0.01,0.01 -0.01,0.01 -0.01,0.01 -0.01,0.01 -0.01,0 -0.01,0.01 -0.01,0.01 -0.01,0 -0.02,0.01 -0.01,0 -0.02,0.01 -0.01,0 -0.02,0.01 -0.01,0 -0.02,0 -0.02,0 c -0.2,0 -0.39,-0.2 -0.39,-0.38 0,-0.12 0.09,-0.27 0.28,-0.27 0.19,0 0.39,0.18 0.39,0.38 z"
         inkscape:connector-curvature="0"
         style="fill:#000000;stroke-width:0" /><path
         id="path4268"
         d="m 238.07,704.19 -0.01,-0.04 -0.01,-0.05 -0.02,-0.04 -0.01,-0.04 -0.02,-0.05 -0.02,-0.04 -0.02,-0.04 -0.02,-0.04 -0.02,-0.04 -0.03,-0.04 -0.02,-0.03 -0.03,-0.04 -0.02,-0.03 -0.03,-0.04 -0.03,-0.03 -0.03,-0.03 -0.03,-0.03 -0.03,-0.03 -0.03,-0.02 -0.03,-0.03 -0.04,-0.02 -0.03,-0.02 -0.03,-0.02 -0.04,-0.02 -0.03,-0.02 -0.04,-0.01 -0.04,-0.01 -0.03,-0.01 -0.04,-0.01 -0.04,-0.01 -0.04,0 -0.04,0 c -0.09,0 -0.17,0.01 -0.25,0.04 0.18,0.08 0.24,0.25 0.24,0.36 0,0.16 -0.13,0.25 -0.27,0.25 -0.22,0 -0.4,-0.18 -0.4,-0.41 0,-0.26 0.27,-0.44 0.69,-0.44 0.42,0 1.23,0.25 1.45,1.1 l 0.63,2.5 c 0.02,0.08 0.03,0.14 0.03,0.25 0,0.38 -0.32,0.65 -0.74,0.65 -0.78,0 -1.22,-0.97 -1.22,-1.07 0,-0.09 0.09,-0.09 0.12,-0.09 0.08,0 0.09,0.02 0.14,0.13 0.17,0.4 0.53,0.83 0.94,0.83 0.17,0 0.23,-0.11 0.23,-0.34 0,-0.07 -0.01,-0.17 -0.02,-0.21 z"
         inkscape:connector-curvature="0"
         style="fill:#000000;stroke-width:0" /></g>    <text
       sodipodi:linespacing="125%"
       id="text5827"
       y="101.0051"
       x="12.499999"
       style="font-style:normal;font-weight:normal;font-size:15px;line-height:125%;font-family:sans-serif;letter-spacing:0px;word-spacing:0px;fill:#000000;fill-opacity:1;stroke:none;stroke-width:1px;stroke-linecap:butt;stroke-linejoin:miter;stroke-opacity:1"
       xml:space="preserve"><tspan
         y="101.0051"
         x="12.499999"
         id="tspan5829"
         sodipodi:role="line">i</tspan></text>
    <text
       sodipodi:linespacing="125%"
       id="text5831"
       y="99.445045"
       x="129.64285"
       style="font-style:normal;font-weight:normal;font-size:15px;line-height:125%;font-family:sans-serif;letter-spacing:0px;word-spacing:0px;fill:#000000;fill-opacity:1;stroke:none;stroke-width:1px;stroke-linecap:butt;stroke-linejoin:miter;stroke-opacity:1"
       xml:space="preserve"><tspan
         y="99.445045"
         x="129.64285"
         id="tspan5833"
         sodipodi:role="line">j</tspan></text>
    <g
       transform="translate(0,-7.8822529)"
       id="g6150">
      <g
         id="g6082">
        <g
           id="g5966">
          <path
             style="fill:none;fill-opacity:1;fill-rule:evenodd;stroke:#000000;stroke-width:1.29999995;stroke-linecap:butt;stroke-linejoin:miter;stroke-miterlimit:4;stroke-dasharray:none;stroke-opacity:1"
             d="m 185.80783,87.821259 c 48.2539,-63.303656 85.17506,-44.94738 118.40592,0"
             id="path6320-2"
             inkscape:connector-curvature="0"
             sodipodi:nodetypes="cc" />
          <path
             style="fill:none;fill-rule:evenodd;stroke:#000000;stroke-width:2;stroke-linecap:butt;stroke-linejoin:miter;stroke-miterlimit:4;stroke-dasharray:none;stroke-opacity:1;marker-start:url(#marker6632-1);marker-end:url(#DotM-7)"
             d="m 187.30735,88.49958 116.6749,0"
             id="path3336-0"
             inkscape:connector-curvature="0" />
        </g>
        <text
           sodipodi:linespacing="125%"
           id="text5827-8"
           y="109.13188"
           x="184.69832"
           style="font-style:normal;font-weight:normal;font-size:15px;line-height:125%;font-family:sans-serif;letter-spacing:0px;word-spacing:0px;fill:#000000;fill-opacity:1;stroke:none;stroke-width:1px;stroke-linecap:butt;stroke-linejoin:miter;stroke-opacity:1"
           xml:space="preserve"><tspan
             y="109.13188"
             x="184.69832"
             id="tspan5829-9"
             sodipodi:role="line">i</tspan></text>
        <text
           sodipodi:linespacing="125%"
           id="text5831-2"
           y="107.57182"
           x="302.68347"
           style="font-style:normal;font-weight:normal;font-size:15px;line-height:125%;font-family:sans-serif;letter-spacing:0px;word-spacing:0px;fill:#000000;fill-opacity:1;stroke:none;stroke-width:1px;stroke-linecap:butt;stroke-linejoin:miter;stroke-opacity:1"
           xml:space="preserve"><tspan
             y="107.57182"
             x="302.68347"
             id="tspan5833-6"
             sodipodi:role="line">j</tspan></text>
      </g>
    </g>
    <g
       transform="translate(0,-4.6190881)"
       id="g6174">
      <path
         style="fill:none;fill-rule:evenodd;stroke:#000000;stroke-width:2;stroke-linecap:butt;stroke-linejoin:miter;stroke-miterlimit:4;stroke-dasharray:none;stroke-opacity:1;marker-start:url(#marker6632-1-6);marker-end:url(#DotM-7-5)"
         d="m 340.31847,85.195168 135.23075,0"
         id="path3336-0-7"
         inkscape:connector-curvature="0" />
      <g
         id="g6160">
        <path
           sodipodi:nodetypes="cc"
           inkscape:connector-curvature="0"
           id="path6320-2-5"
           d="m 371.70931,84.61866 c 36.72462,-41.49603 64.82423,-29.46335 90.11526,0"
           style="fill:#00dc00;fill-opacity:1;fill-rule:evenodd;stroke:#000000;stroke-width:1.29999995;stroke-linecap:butt;stroke-linejoin:miter;stroke-miterlimit:4;stroke-dasharray:none;stroke-opacity:1" />
        <path
           sodipodi:nodetypes="cc"
           inkscape:connector-curvature="0"
           id="path6320-2-4"
           d="m 338.58047,84.518432 c 55.92815,-63.155778 98.72121,-44.842383 137.23707,0"
           style="fill:none;fill-opacity:1;fill-rule:evenodd;stroke:#000000;stroke-width:1.29999995;stroke-linecap:butt;stroke-linejoin:miter;stroke-miterlimit:4;stroke-dasharray:none;stroke-opacity:1" />
        <circle
           style="fill:#000000;fill-opacity:1;stroke:#000000;stroke-width:1.38407516;stroke-miterlimit:4;stroke-dasharray:none;stroke-opacity:1"
           id="path4605"
           cx="372.99976"
           cy="85.014412"
           r="3.8079624" />
        <circle
           style="fill:#000000;fill-opacity:1;stroke:#000000;stroke-width:1.38407516;stroke-miterlimit:4;stroke-dasharray:none;stroke-opacity:1"
           id="path4605-0"
           cx="459.87195"
           cy="85.014412"
           r="3.8079624" />
        <text
           sodipodi:linespacing="125%"
           id="text5835"
           y="105.81277"
           x="370.35715"
           style="font-style:normal;font-weight:normal;font-size:15px;line-height:125%;font-family:sans-serif;letter-spacing:0px;word-spacing:0px;fill:#000000;fill-opacity:1;stroke:none;stroke-width:1px;stroke-linecap:butt;stroke-linejoin:miter;stroke-opacity:1"
           xml:space="preserve"><tspan
             y="105.81277"
             x="370.35715"
             id="tspan5837"
             sodipodi:role="line">i'</tspan></text>
        <text
           sodipodi:linespacing="125%"
           id="text5839"
           y="104.25272"
           x="456.78571"
           style="font-style:normal;font-weight:normal;font-size:15px;line-height:125%;font-family:sans-serif;letter-spacing:0px;word-spacing:0px;fill:#000000;fill-opacity:1;stroke:none;stroke-width:1px;stroke-linecap:butt;stroke-linejoin:miter;stroke-opacity:1"
           xml:space="preserve"><tspan
             y="104.25272"
             x="456.78571"
             id="tspan5841"
             sodipodi:role="line">j'</tspan></text>
        <text
           sodipodi:linespacing="125%"
           id="text5831-6"
           y="104.25272"
           x="473.75488"
           style="font-style:normal;font-weight:normal;font-size:15px;line-height:125%;font-family:sans-serif;letter-spacing:0px;word-spacing:0px;fill:#000000;fill-opacity:1;stroke:none;stroke-width:1px;stroke-linecap:butt;stroke-linejoin:miter;stroke-opacity:1"
           xml:space="preserve"><tspan
             y="104.25272"
             x="473.75488"
             id="tspan5833-4"
             sodipodi:role="line">j</tspan></text>
        <text
           sodipodi:linespacing="125%"
           id="text5827-8-0"
           y="105.81277"
           x="338.26974"
           style="font-style:normal;font-weight:normal;font-size:15px;line-height:125%;font-family:sans-serif;letter-spacing:0px;word-spacing:0px;fill:#000000;fill-opacity:1;stroke:none;stroke-width:1px;stroke-linecap:butt;stroke-linejoin:miter;stroke-opacity:1"
           xml:space="preserve"><tspan
             y="105.81277"
             x="338.26974"
             id="tspan5829-9-4"
             sodipodi:role="line">i</tspan></text>
      </g>
    </g>
    <g
       transform="translate(0,-6.7868767)"
       id="g6283">
      <g
         id="g6236">
        <g
           id="g6190">
          <g
             id="g6004">
            <g
               id="g5925">
              <path
                 sodipodi:nodetypes="csc"
                 inkscape:connector-curvature="0"
                 id="path4668"
                 d="m 525.34588,87.584229 c 17.12561,-66.824481 30.57727,-13.796385 32.63635,-16.012056 42.18201,-45.389906 52.96901,5.068873 54.52944,15.29745"
                 style="fill:#0000ff;fill-opacity:0.45098039;fill-rule:evenodd;stroke:#0000ff;stroke-width:1.29999995;stroke-linecap:butt;stroke-linejoin:miter;stroke-miterlimit:4;stroke-dasharray:none;stroke-opacity:1" />
              <path
                 style="fill:none;fill-rule:evenodd;stroke:#000000;stroke-width:2;stroke-linecap:butt;stroke-linejoin:miter;stroke-miterlimit:4;stroke-dasharray:none;stroke-opacity:1;marker-start:url(#marker6632-1-7);marker-end:url(#DotM-7-6)"
                 d="m 511.51317,87.005069 192.92625,0"
                 id="path3336-0-8"
                 inkscape:connector-curvature="0" />
              <path
                 sodipodi:nodetypes="cc"
                 inkscape:connector-curvature="0"
                 id="path4649"
                 d="m 509.28571,86.647904 c 41.29838,-85.1880916 168.16986,-61.824676 196.42857,0"
                 style="fill:none;fill-rule:evenodd;stroke:#000000;stroke-width:1.29999995;stroke-linecap:butt;stroke-linejoin:miter;stroke-miterlimit:4;stroke-dasharray:none;stroke-opacity:1" />
              <circle
                 r="3.8079624"
                 cy="87.255066"
                 cx="526.42859"
                 id="path4605-4"
                 style="fill:#000000;fill-opacity:1;stroke:#000000;stroke-width:1.38407516;stroke-miterlimit:4;stroke-dasharray:none;stroke-opacity:1" />
              <path
                 sodipodi:nodetypes="cc"
                 inkscape:connector-curvature="0"
                 id="path4666"
                 d="m 621.11411,86.009569 c 22.87936,-69.235155 46.51549,4.48892 75.64148,0"
                 style="fill:#000000;fill-opacity:0.22641512;fill-rule:evenodd;stroke:#000000;stroke-width:1.29999995;stroke-linecap:butt;stroke-linejoin:miter;stroke-miterlimit:4;stroke-dasharray:none;stroke-opacity:1" />
              <path
                 sodipodi:nodetypes="cc"
                 inkscape:connector-curvature="0"
                 id="path4670"
                 d="m 621.42857,85.576479 c 12.79357,-22.53801 24.09607,-15.25464 35,0"
                 style="fill:#00c800;fill-opacity:0.71698112;fill-rule:evenodd;stroke:#000000;stroke-width:1.29999995;stroke-linecap:butt;stroke-linejoin:miter;stroke-miterlimit:4;stroke-dasharray:none;stroke-opacity:1" />
              <circle
                 r="3.8079624"
                 cy="87.255066"
                 cx="655"
                 id="path4605-0-3"
                 style="fill:#000000;fill-opacity:1;stroke:#000000;stroke-width:1.38407516;stroke-miterlimit:4;stroke-dasharray:none;stroke-opacity:1" />
              <circle
                 r="3.8079624"
                 cy="87.255066"
                 cx="622.5"
                 id="path4605-0-1"
                 style="fill:#000000;fill-opacity:1;stroke:#000000;stroke-width:1.38407516;stroke-miterlimit:4;stroke-dasharray:none;stroke-opacity:1" />
              <circle
                 r="3.8079624"
                 cy="87.255066"
                 cx="612.14288"
                 id="path4605-0-4"
                 style="fill:#000000;fill-opacity:1;stroke:#000000;stroke-width:1.38407516;stroke-miterlimit:4;stroke-dasharray:none;stroke-opacity:1" />
              <circle
                 r="3.8079624"
                 cy="87.255066"
                 cx="693.71429"
                 id="path4605-0-3-9"
                 style="fill:#000000;fill-opacity:1;stroke:#000000;stroke-width:1.38407516;stroke-miterlimit:4;stroke-dasharray:none;stroke-opacity:1" />
              <circle
                 r="3.8079624"
                 cy="87.255066"
                 cx="671.07141"
                 id="path4605-0-3-9-2"
                 style="fill:#000000;fill-opacity:1;stroke:#000000;stroke-width:1.38407516;stroke-miterlimit:4;stroke-dasharray:none;stroke-opacity:1" />
              <g
                 style="font-style:normal;font-variant:normal;font-weight:normal;font-stretch:normal;letter-spacing:normal;word-spacing:normal;text-anchor:start;fill:none;fill-opacity:1;fill-rule:evenodd;stroke:#000000;stroke-linecap:butt;stroke-linejoin:miter;stroke-miterlimit:10.43299961;stroke-dasharray:none;stroke-dashoffset:0;stroke-opacity:1"
                 id="g5464"
                 transform="matrix(1,0,0,-1,341.42857,784.64286)"
                 xml:space="preserve"
                 stroke-miterlimit="10.433"
                 font-style="normal"
                 font-variant="normal"
                 font-weight="normal"
                 font-stretch="normal"
                 font-size-adjust="none"
                 letter-spacing="normal"
                 word-spacing="normal"
                 ns0:text="$Q_{i+1, k-1}^m$"
                 ns0:preamble=""><path
                   style="fill:#000000;stroke-width:0"
                   inkscape:connector-curvature="0"
                   d="m 227.8,707.18 0.14,0.06 0.14,0.07 0.15,0.07 0.14,0.08 0.14,0.08 0.14,0.09 0.13,0.1 0.14,0.1 0.13,0.11 0.13,0.11 0.12,0.12 0.13,0.12 0.12,0.13 0.11,0.13 0.11,0.13 0.11,0.14 0.1,0.15 0.1,0.14 0.09,0.16 0.09,0.15 0.08,0.16 0.08,0.16 0.07,0.16 0.06,0.17 0.06,0.17 0.05,0.17 0.04,0.17 0.04,0.17 0.03,0.18 0.02,0.18 0.01,0.18 0,0.18 c 0,1.6 -1.05,2.68 -2.54,2.68 l -0.05,-0.25 c 0.99,0 1.72,-0.78 1.72,-2.12 0,-0.99 -0.51,-3.32 -2.18,-4.26 -0.05,0.35 -0.15,1.08 -0.88,1.08 l 0,-0.22 c 0.42,0 0.61,-0.24 0.61,-0.85 0,-0.15 -0.01,-0.16 -0.11,-0.2 -0.26,-0.11 -0.56,-0.18 -0.84,-0.18 l 0,0 c -0.14,0 -0.46,0 -0.46,0.43 0,0.4 0.38,0.8 0.8,0.8 l 0,0.22 c -0.53,0 -1.02,-0.5 -1.02,-1.02 0,-0.2 0.06,-0.31 0.06,-0.32 l 0,0 c -0.77,0.31 -1.11,1.09 -1.11,1.98 0,0.69 0.26,2.11 1.01,3.18 0.73,1.02 1.67,1.48 2.4,1.48 l 0.05,0.25 c -2.15,0 -4.34,-2.26 -4.34,-4.59 0,-1.65 1.12,-2.66 2.55,-2.66 0.25,0 0.59,0.04 0.98,0.15 -0.04,-0.62 -0.04,-0.64 -0.04,-0.76 0,-0.32 0,-1.1 0.82,-1.1 1.19,0 1.67,1.82 1.67,1.93 0,0.07 -0.07,0.1 -0.11,0.1 -0.08,0 -0.1,-0.05 -0.12,-0.11 -0.24,-0.7 -0.82,-0.95 -1.17,-0.95 -0.46,0 -0.6,0.26 -0.7,1.02 z"
                   id="path5466" /><path
                   style="fill:#000000;stroke-width:0"
                   inkscape:connector-curvature="0"
                   d="m 234.33,711.3 0,-0.01 0,-0.02 -0.01,-0.01 0,-0.01 0,-0.02 -0.01,-0.01 -0.01,-0.04 0,-0.03 -0.01,-0.03 -0.01,-0.03 0,-0.02 -0.01,-0.01 0,-0.02 -0.01,-0.01 0,-0.02 0,-0.01 -0.01,-0.01 0,-0.02 0,-0.01 0,-0.01 -0.01,-0.01 0,-0.01 0,-0.01 0,-0.01 0,0 0,-0.01 0,-0.01 0,0 c 0,-0.15 0.12,-0.22 0.23,-0.22 0.13,0 0.24,0.09 0.28,0.15 0.03,0.06 0.09,0.29 0.12,0.43 0.04,0.14 0.11,0.46 0.15,0.63 0.05,0.15 0.09,0.31 0.12,0.47 0.08,0.3 0.08,0.31 0.22,0.53 0.22,0.34 0.57,0.74 1.12,0.74 0.39,0 0.41,-0.32 0.41,-0.49 0,-0.42 -0.3,-1.19 -0.41,-1.49 -0.08,-0.19 -0.11,-0.25 -0.11,-0.37 0,-0.37 0.31,-0.6 0.66,-0.6 0.7,0 1.01,0.96 1.01,1.06 0,0.1 -0.09,0.1 -0.11,0.1 -0.1,0 -0.11,-0.05 -0.14,-0.12 -0.16,-0.56 -0.46,-0.85 -0.74,-0.85 -0.14,0 -0.17,0.1 -0.17,0.25 0,0.16 0.03,0.25 0.16,0.56 0.08,0.22 0.37,0.96 0.37,1.35 0,0.11 0,0.4 -0.26,0.6 -0.12,0.1 -0.32,0.19 -0.65,0.19 -0.62,0 -1.01,-0.41 -1.23,-0.7 -0.06,0.59 -0.55,0.7 -0.91,0.7 -0.58,0 -0.97,-0.35 -1.18,-0.63 -0.05,0.48 -0.46,0.63 -0.74,0.63 -0.3,0 -0.46,-0.21 -0.55,-0.37 -0.16,-0.26 -0.26,-0.66 -0.26,-0.69 0,-0.09 0.1,-0.09 0.12,-0.09 0.1,0 0.11,0.02 0.16,0.2 0.1,0.42 0.23,0.76 0.51,0.76 0.18,0 0.23,-0.16 0.23,-0.34 0,-0.14 -0.07,-0.39 -0.11,-0.58 -0.05,-0.19 -0.12,-0.48 -0.16,-0.63 l -0.22,-0.89 c -0.03,-0.09 -0.07,-0.27 -0.07,-0.29 0,-0.15 0.12,-0.22 0.24,-0.22 0.12,0 0.23,0.09 0.27,0.15 0.03,0.06 0.09,0.29 0.12,0.43 0.04,0.14 0.12,0.46 0.16,0.63 0.04,0.15 0.08,0.31 0.11,0.47 0.08,0.28 0.1,0.34 0.3,0.63 0.19,0.28 0.52,0.64 1.04,0.64 0.41,0 0.42,-0.36 0.42,-0.49 0,-0.17 -0.02,-0.27 -0.12,-0.66 z"
                   id="path5468" /><path
                   style="fill:#000000;stroke-width:0"
                   inkscape:connector-curvature="0"
                   d="m 233.57,708.66 0,0.01 0,0.01 -0.01,0.01 0,0.01 0,0.02 0,0.01 -0.01,0.01 0,0.01 0,0.01 -0.01,0.01 0,0.01 -0.01,0.01 -0.01,0.01 0,0.02 -0.01,0.01 -0.01,0.01 -0.01,0.01 -0.01,0 -0.01,0.01 -0.01,0.01 -0.01,0.01 -0.01,0.01 -0.01,0 -0.02,0.01 -0.01,0.01 -0.01,0 -0.02,0.01 -0.01,0 -0.02,0 -0.02,0 -0.01,0.01 -0.02,0 c -0.19,0 -0.39,-0.19 -0.39,-0.39 0,-0.12 0.09,-0.26 0.28,-0.26 0.2,0 0.39,0.19 0.39,0.38 z"
                   id="path5470" /><path
                   style="fill:#000000;stroke-width:0"
                   inkscape:connector-curvature="0"
                   d="m 232.14,705.12 -0.01,-0.04 -0.01,-0.03 0,-0.02 -0.01,-0.01 0,-0.02 -0.01,-0.02 0,-0.02 -0.01,-0.01 0,-0.02 0,-0.02 0,-0.02 -0.01,-0.01 0,-0.01 0,-0.01 0,-0.01 0,-0.01 0,-0.01 c 0,-0.33 0.28,-0.6 0.66,-0.6 0.7,0 1.01,0.97 1.01,1.07 0,0.09 -0.09,0.09 -0.11,0.09 -0.1,0 -0.11,-0.04 -0.14,-0.12 -0.16,-0.56 -0.46,-0.84 -0.74,-0.84 -0.13,0 -0.17,0.09 -0.17,0.24 0,0.16 0.05,0.3 0.11,0.45 0.07,0.19 0.15,0.37 0.23,0.56 0.06,0.16 0.31,0.8 0.34,0.88 0.02,0.07 0.04,0.16 0.04,0.22 0,0.33 -0.28,0.6 -0.66,0.6 -0.69,0 -1.02,-0.95 -1.02,-1.07 0,-0.09 0.1,-0.09 0.12,-0.09 0.1,0 0.11,0.04 0.13,0.11 0.18,0.6 0.49,0.85 0.75,0.85 0.11,0 0.17,-0.05 0.17,-0.24 0,-0.16 -0.04,-0.27 -0.22,-0.7 z"
                   id="path5472" /><path
                   style="fill:#000000;stroke-width:0"
                   inkscape:connector-curvature="0"
                   d="m 237.36,705.88 2.13,0 c 0.09,0 0.26,0 0.26,0.17 0,0.17 -0.16,0.17 -0.26,0.17 l -2.13,0 0,2.14 c 0,0.09 0,0.26 -0.17,0.26 -0.18,0 -0.18,-0.16 -0.18,-0.26 l 0,-2.14 -2.14,0 c -0.09,0 -0.25,0 -0.25,-0.17 0,-0.17 0.16,-0.17 0.25,-0.17 l 2.14,0 0,-2.14 c 0,-0.09 0,-0.26 0.17,-0.26 0.18,0 0.18,0.16 0.18,0.26 z"
                   id="path5474" /><path
                   style="fill:#000000;stroke-width:0"
                   inkscape:connector-curvature="0"
                   d="m 242.58,708.74 0,0.01 0,0.01 0,0 0,0.01 0,0.01 0,0.01 0,0 0,0.01 -0.01,0.01 0,0 0,0.01 0,0.01 0,0 0,0.01 0,0 0,0.01 0,0 0,0.01 0,0.01 -0.01,0 0,0.01 0,0.01 -0.01,0.01 0,0 -0.01,0.01 0,0 -0.01,0 0,0.01 -0.01,0 -0.01,0 -0.01,0.01 -0.01,0 0,0 -0.01,0 0,0 -0.01,0 -0.01,0 0,0 -0.01,0 0,0 -0.01,0 -0.01,0 -0.01,0 0,0 -0.01,0 -0.01,0 -0.01,0 -0.01,0 0,0 -0.01,0 c -0.45,-0.44 -1.08,-0.44 -1.37,-0.44 l 0,-0.25 c 0.17,0 0.63,0 1.01,0.19 l 0,-3.56 c 0,-0.23 0,-0.32 -0.7,-0.32 l -0.26,0 0,-0.25 c 0.12,0.01 0.98,0.03 1.24,0.03 0.22,0 1.09,-0.02 1.25,-0.03 l 0,0.25 -0.27,0 c -0.69,0 -0.69,0.09 -0.69,0.32 z"
                   id="path5476" /><path
                   style="fill:#000000;stroke-width:0"
                   inkscape:connector-curvature="0"
                   d="m 245.69,704.41 0,-0.07 -0.01,-0.07 0,-0.08 -0.01,-0.07 -0.01,-0.04 0,-0.04 -0.01,-0.04 -0.01,-0.04 -0.01,-0.04 -0.01,-0.04 -0.01,-0.04 -0.02,-0.04 -0.01,-0.04 -0.02,-0.04 -0.02,-0.04 -0.02,-0.04 -0.02,-0.04 -0.02,-0.05 -0.03,-0.04 -0.02,-0.04 -0.03,-0.04 -0.03,-0.04 -0.03,-0.04 -0.04,-0.04 -0.03,-0.05 -0.04,-0.04 -0.04,-0.04 -0.05,-0.04 c -0.02,-0.03 -0.05,-0.05 -0.05,-0.09 0,-0.04 0.06,-0.09 0.1,-0.09 0.1,0 0.69,0.56 0.69,1.38 0,0.44 -0.17,0.76 -0.49,0.76 -0.23,0 -0.39,-0.18 -0.39,-0.39 0,-0.23 0.16,-0.41 0.4,-0.41 0.17,0 0.28,0.11 0.29,0.11 z"
                   id="path5478" /><path
                   style="fill:#000000;stroke-width:0"
                   inkscape:connector-curvature="0"
                   d="m 248.76,708.93 0,0 0,0 0,0.01 0,0 0,0 0,0 0,0 0,0 0,0 0.01,0.01 0,0 0,0.01 0,0 0,0 0,0.01 0,0 0,0.01 0,0 0.01,0.01 0,0.01 0,0.01 0,0 0,0 0,0.01 0,0 0,0.01 0.01,0 0,0 0,0 0,0.01 0,0 0,0 0,0 0,0 0,0 0,0 0,0 0,0 0,0 0,0 c 0,0.04 -0.03,0.1 -0.11,0.1 -0.14,0 -0.72,-0.05 -0.9,-0.07 -0.05,0 -0.15,-0.01 -0.15,-0.16 0,-0.09 0.1,-0.09 0.18,-0.09 0.34,0 0.34,-0.05 0.34,-0.11 0,-0.05 -0.02,-0.09 -0.03,-0.15 l -0.99,-3.95 c -0.03,-0.13 -0.03,-0.14 -0.03,-0.15 0,-0.11 0.08,-0.23 0.24,-0.23 0.19,0 0.28,0.14 0.32,0.3 0.01,0.02 0.31,1.25 0.34,1.35 0.49,-0.05 0.89,-0.21 0.89,-0.57 0,-0.04 0,-0.07 -0.01,-0.14 -0.03,-0.11 -0.03,-0.14 -0.03,-0.22 0,-0.49 0.41,-0.72 0.74,-0.72 0.68,0 0.89,1.06 0.89,1.07 0,0.09 -0.1,0.09 -0.12,0.09 -0.09,0 -0.1,-0.03 -0.13,-0.17 -0.09,-0.3 -0.28,-0.79 -0.62,-0.79 -0.19,0 -0.24,0.17 -0.24,0.36 0,0.12 0,0.13 0.04,0.31 0.01,0.02 0.03,0.14 0.03,0.22 0,0.62 -0.83,0.72 -1.13,0.74 0.21,0.12 0.46,0.36 0.58,0.46 0.36,0.33 0.71,0.66 1.1,0.66 0.08,0 0.17,-0.02 0.23,-0.09 -0.3,-0.05 -0.37,-0.28 -0.37,-0.39 0,-0.15 0.12,-0.26 0.28,-0.26 0.19,0 0.4,0.16 0.4,0.45 0,0.23 -0.17,0.49 -0.54,0.49 -0.39,0 -0.75,-0.29 -1.11,-0.62 -0.29,-0.28 -0.52,-0.49 -0.81,-0.61 z"
                   id="path5480" /><path
                   style="fill:#000000;stroke-width:0"
                   inkscape:connector-curvature="0"
                   d="m 256.18,705.88 0.01,0 0.01,0 0.01,0 0.01,0 0.02,0 0.02,0 0.01,0 0.01,0 0.01,0 0.01,0.01 0.01,0 0.01,0 0.02,0 0.01,0.01 0.01,0 0.01,0 0.01,0.01 0.01,0 0.01,0.01 0,0.01 0.01,0 0.01,0.01 0,0.01 0.01,0 0,0 0,0.01 0.01,0 0,0.01 0,0 0,0.01 0.01,0.01 0,0 0,0.01 0,0 0,0.01 0,0.01 0,0 0,0.01 0,0.01 0,0.01 c 0,0.17 -0.15,0.17 -0.27,0.17 l -4.16,0 c -0.11,0 -0.28,0 -0.28,-0.17 0,-0.17 0.16,-0.17 0.28,-0.17 z"
                   id="path5482" /><path
                   style="fill:#000000;stroke-width:0"
                   inkscape:connector-curvature="0"
                   d="m 259.55,708.74 0,0.01 0,0.01 0,0 0,0.01 0,0.01 0,0.01 0,0 0,0.01 0,0.01 0,0 0,0.01 0,0.01 0,0 0,0.01 -0.01,0 0,0.01 0,0 0,0.01 0,0.01 0,0 -0.01,0.01 0,0.01 0,0.01 -0.01,0 0,0.01 -0.01,0 0,0 -0.01,0.01 -0.01,0 -0.01,0 -0.01,0.01 0,0 -0.01,0 -0.01,0 0,0 -0.01,0 0,0 -0.01,0 0,0 -0.01,0 -0.01,0 -0.01,0 0,0 -0.01,0 -0.01,0 -0.01,0 0,0 -0.01,0 -0.01,0 -0.01,0 c -0.45,-0.44 -1.08,-0.44 -1.37,-0.44 l 0,-0.25 c 0.17,0 0.63,0 1.01,0.19 l 0,-3.56 c 0,-0.23 0,-0.32 -0.69,-0.32 l -0.27,0 0,-0.25 c 0.13,0.01 0.99,0.03 1.24,0.03 0.22,0 1.1,-0.02 1.25,-0.03 l 0,0.25 -0.26,0 c -0.7,0 -0.7,0.09 -0.7,0.32 z"
                   id="path5484" /></g>              <g
                 ns0:preamble=""
                 ns0:text="$Q_{k,j-1}^{m1}$\n"
                 word-spacing="normal"
                 letter-spacing="normal"
                 font-size-adjust="none"
                 font-stretch="normal"
                 font-weight="normal"
                 font-variant="normal"
                 font-style="normal"
                 stroke-miterlimit="10.433"
                 xml:space="preserve"
                 transform="matrix(1,0,0,-1,410.35714,774.64286)"
                 id="g5678"
                 style="font-style:normal;font-variant:normal;font-weight:normal;font-stretch:normal;letter-spacing:normal;word-spacing:normal;text-anchor:start;fill:none;fill-opacity:1;fill-rule:evenodd;stroke:#000000;stroke-linecap:butt;stroke-linejoin:miter;stroke-miterlimit:10.43299961;stroke-dasharray:none;stroke-dashoffset:0;stroke-opacity:1"><path
                   id="path5680"
                   d="m 227.8,707.18 0.14,0.06 0.14,0.07 0.15,0.07 0.14,0.08 0.14,0.08 0.14,0.09 0.13,0.1 0.14,0.1 0.13,0.11 0.13,0.11 0.12,0.12 0.13,0.12 0.12,0.13 0.11,0.13 0.11,0.13 0.11,0.14 0.1,0.15 0.1,0.14 0.09,0.16 0.09,0.15 0.08,0.16 0.08,0.16 0.07,0.16 0.06,0.17 0.06,0.17 0.05,0.17 0.04,0.17 0.04,0.17 0.03,0.18 0.02,0.18 0.01,0.18 0,0.18 c 0,1.6 -1.05,2.68 -2.54,2.68 l -0.05,-0.25 c 0.99,0 1.72,-0.78 1.72,-2.12 0,-0.99 -0.51,-3.32 -2.18,-4.26 -0.05,0.35 -0.15,1.08 -0.88,1.08 l 0,-0.22 c 0.42,0 0.61,-0.24 0.61,-0.85 0,-0.15 -0.01,-0.16 -0.11,-0.2 -0.26,-0.11 -0.56,-0.18 -0.84,-0.18 l 0,0 c -0.14,0 -0.46,0 -0.46,0.43 0,0.4 0.38,0.8 0.8,0.8 l 0,0.22 c -0.53,0 -1.02,-0.5 -1.02,-1.02 0,-0.2 0.06,-0.31 0.06,-0.32 l 0,0 c -0.77,0.31 -1.11,1.09 -1.11,1.98 0,0.69 0.26,2.11 1.01,3.18 0.73,1.02 1.67,1.48 2.4,1.48 l 0.05,0.25 c -2.15,0 -4.34,-2.26 -4.34,-4.59 0,-1.65 1.12,-2.66 2.55,-2.66 0.25,0 0.59,0.04 0.98,0.15 -0.04,-0.62 -0.04,-0.64 -0.04,-0.76 0,-0.32 0,-1.1 0.82,-1.1 1.19,0 1.67,1.82 1.67,1.93 0,0.07 -0.07,0.1 -0.11,0.1 -0.08,0 -0.1,-0.05 -0.12,-0.11 -0.24,-0.7 -0.82,-0.95 -1.17,-0.95 -0.46,0 -0.6,0.26 -0.7,1.02 z"
                   inkscape:connector-curvature="0"
                   style="fill:#000000;stroke-width:0" /><path
                   id="path5682"
                   d="m 234.33,711.3 0,-0.01 0,-0.02 -0.01,-0.01 0,-0.01 0,-0.02 -0.01,-0.01 -0.01,-0.04 0,-0.03 -0.01,-0.03 -0.01,-0.03 0,-0.02 -0.01,-0.01 0,-0.02 -0.01,-0.01 0,-0.02 0,-0.01 -0.01,-0.01 0,-0.02 0,-0.01 0,-0.01 -0.01,-0.01 0,-0.01 0,-0.01 0,-0.01 0,0 0,-0.01 0,-0.01 0,0 c 0,-0.15 0.12,-0.22 0.23,-0.22 0.13,0 0.24,0.09 0.28,0.15 0.03,0.06 0.09,0.29 0.12,0.43 0.04,0.14 0.11,0.46 0.15,0.63 0.05,0.15 0.09,0.31 0.12,0.47 0.08,0.3 0.08,0.31 0.22,0.53 0.22,0.34 0.57,0.74 1.12,0.74 0.39,0 0.41,-0.32 0.41,-0.49 0,-0.42 -0.3,-1.19 -0.41,-1.49 -0.08,-0.19 -0.11,-0.25 -0.11,-0.37 0,-0.37 0.31,-0.6 0.66,-0.6 0.7,0 1.01,0.96 1.01,1.06 0,0.1 -0.09,0.1 -0.11,0.1 -0.1,0 -0.11,-0.05 -0.14,-0.12 -0.16,-0.56 -0.46,-0.85 -0.74,-0.85 -0.14,0 -0.17,0.1 -0.17,0.25 0,0.16 0.03,0.25 0.16,0.56 0.08,0.22 0.37,0.96 0.37,1.35 0,0.11 0,0.4 -0.26,0.6 -0.12,0.1 -0.32,0.19 -0.65,0.19 -0.62,0 -1.01,-0.41 -1.23,-0.7 -0.06,0.59 -0.55,0.7 -0.91,0.7 -0.58,0 -0.97,-0.35 -1.18,-0.63 -0.05,0.48 -0.46,0.63 -0.74,0.63 -0.3,0 -0.46,-0.21 -0.55,-0.37 -0.16,-0.26 -0.26,-0.66 -0.26,-0.69 0,-0.09 0.1,-0.09 0.12,-0.09 0.1,0 0.11,0.02 0.16,0.2 0.1,0.42 0.23,0.76 0.51,0.76 0.18,0 0.23,-0.16 0.23,-0.34 0,-0.14 -0.07,-0.39 -0.11,-0.58 -0.05,-0.19 -0.12,-0.48 -0.16,-0.63 l -0.22,-0.89 c -0.03,-0.09 -0.07,-0.27 -0.07,-0.29 0,-0.15 0.12,-0.22 0.24,-0.22 0.12,0 0.23,0.09 0.27,0.15 0.03,0.06 0.09,0.29 0.12,0.43 0.04,0.14 0.12,0.46 0.16,0.63 0.04,0.15 0.08,0.31 0.11,0.47 0.08,0.28 0.1,0.34 0.3,0.63 0.19,0.28 0.52,0.64 1.04,0.64 0.41,0 0.42,-0.36 0.42,-0.49 0,-0.17 -0.02,-0.27 -0.12,-0.66 z"
                   inkscape:connector-curvature="0"
                   style="fill:#000000;stroke-width:0" /><path
                   id="path5684"
                   d="m 240.72,715.17 0,0.01 0,0.01 0,0.01 0,0.01 0,0 0,0.01 0,0.01 0,0.01 -0.01,0 0,0.01 0,0 0,0.01 0,0.01 0,0 0,0.01 0,0 0,0.01 0,0 0,0.01 -0.01,0.01 0,0.01 0,0 -0.01,0.01 0,0.01 -0.01,0 0,0.01 -0.01,0 0,0 -0.01,0.01 -0.01,0 -0.01,0 -0.01,0 0,0 -0.01,0 0,0 -0.01,0.01 -0.01,0 0,0 -0.01,0 0,0 -0.01,0 -0.01,0 -0.01,0 0,0 -0.01,0 -0.01,0 -0.01,0 -0.01,0 0,0 -0.01,0 c -0.45,-0.44 -1.08,-0.45 -1.37,-0.45 l 0,-0.25 c 0.17,0 0.63,0 1.01,0.2 l 0,-3.56 c 0,-0.23 0,-0.32 -0.7,-0.32 l -0.26,0 0,-0.25 c 0.12,0 0.98,0.03 1.24,0.03 0.22,0 1.09,-0.03 1.25,-0.03 l 0,0.25 -0.27,0 c -0.69,0 -0.69,0.09 -0.69,0.32 z"
                   inkscape:connector-curvature="0"
                   style="fill:#000000;stroke-width:0" /><path
                   id="path5686"
                   d="m 233.49,708.93 0,0 0,0 0,0.01 0,0 0,0 0,0 0,0 0,0 0,0 0.01,0.01 0,0 0,0.01 0,0 0,0 0,0.01 0,0 0,0.01 0,0 0.01,0.01 0,0.01 0,0.01 0,0 0,0 0,0.01 0,0 0,0.01 0.01,0 0,0 0,0 0,0.01 0,0 0,0 0,0 0,0 0,0 0,0 0,0 0,0 0,0 0,0 c 0,0.04 -0.03,0.1 -0.11,0.1 -0.14,0 -0.72,-0.05 -0.9,-0.07 -0.05,0 -0.15,-0.01 -0.15,-0.16 0,-0.09 0.1,-0.09 0.18,-0.09 0.34,0 0.34,-0.05 0.34,-0.11 0,-0.05 -0.02,-0.09 -0.03,-0.15 l -0.98,-3.95 c -0.04,-0.13 -0.04,-0.14 -0.04,-0.15 0,-0.11 0.08,-0.23 0.24,-0.23 0.19,0 0.28,0.14 0.32,0.3 0.01,0.02 0.31,1.25 0.34,1.35 0.5,-0.05 0.89,-0.21 0.89,-0.57 0,-0.04 0,-0.07 -0.01,-0.14 -0.03,-0.11 -0.03,-0.14 -0.03,-0.22 0,-0.49 0.41,-0.72 0.74,-0.72 0.68,0 0.89,1.06 0.89,1.07 0,0.09 -0.09,0.09 -0.12,0.09 -0.09,0 -0.1,-0.03 -0.13,-0.17 -0.09,-0.3 -0.28,-0.79 -0.62,-0.79 -0.19,0 -0.24,0.17 -0.24,0.36 0,0.12 0,0.13 0.04,0.31 0.01,0.02 0.03,0.14 0.03,0.22 0,0.62 -0.83,0.72 -1.13,0.74 0.21,0.12 0.46,0.36 0.58,0.46 0.36,0.33 0.71,0.66 1.1,0.66 0.08,0 0.17,-0.02 0.23,-0.09 -0.3,-0.05 -0.36,-0.28 -0.36,-0.39 0,-0.15 0.11,-0.26 0.27,-0.26 0.19,0 0.4,0.16 0.4,0.45 0,0.23 -0.17,0.49 -0.53,0.49 -0.4,0 -0.77,-0.29 -1.12,-0.62 -0.29,-0.28 -0.52,-0.49 -0.81,-0.61 z"
                   inkscape:connector-curvature="0"
                   style="fill:#000000;stroke-width:0" /><path
                   id="path5688"
                   d="m 237.18,704.41 0,-0.07 0,-0.07 -0.01,-0.08 -0.01,-0.07 0,-0.04 -0.01,-0.04 -0.01,-0.04 -0.01,-0.04 -0.01,-0.04 -0.01,-0.04 -0.01,-0.04 -0.01,-0.04 -0.02,-0.04 -0.01,-0.04 -0.02,-0.04 -0.02,-0.04 -0.02,-0.04 -0.03,-0.05 -0.02,-0.04 -0.03,-0.04 -0.03,-0.04 -0.03,-0.04 -0.03,-0.04 -0.03,-0.04 -0.04,-0.05 -0.04,-0.04 -0.04,-0.04 -0.04,-0.04 c -0.03,-0.03 -0.05,-0.05 -0.05,-0.09 0,-0.04 0.05,-0.09 0.1,-0.09 0.09,0 0.69,0.56 0.69,1.38 0,0.44 -0.17,0.76 -0.49,0.76 -0.23,0 -0.4,-0.18 -0.4,-0.39 0,-0.23 0.16,-0.41 0.41,-0.41 0.16,0 0.27,0.11 0.28,0.11 z"
                   inkscape:connector-curvature="0"
                   style="fill:#000000;stroke-width:0" /><path
                   id="path5690"
                   d="m 241.14,708.66 0,0.01 0,0.01 0,0.02 0,0.01 0,0.01 -0.01,0.01 0,0.01 -0.01,0.01 0,0.01 0,0.02 -0.01,0.01 -0.01,0.01 0,0.01 -0.01,0.01 -0.01,0.01 -0.01,0.01 -0.01,0.01 -0.01,0.01 -0.01,0.01 -0.01,0 -0.01,0.01 -0.01,0.01 -0.01,0.01 -0.01,0 -0.02,0.01 -0.01,0 -0.02,0.01 -0.01,0 -0.02,0 -0.01,0 -0.02,0.01 -0.02,0 c -0.2,0 -0.39,-0.2 -0.39,-0.39 0,-0.11 0.09,-0.26 0.28,-0.26 0.19,0 0.39,0.18 0.39,0.38 z"
                   inkscape:connector-curvature="0"
                   style="fill:#000000;stroke-width:0" /><path
                   id="path5692"
                   d="m 239.66,703.96 -0.01,-0.04 -0.01,-0.05 -0.02,-0.04 -0.01,-0.05 -0.02,-0.04 -0.02,-0.04 -0.02,-0.04 -0.02,-0.04 -0.02,-0.04 -0.03,-0.04 -0.02,-0.03 -0.03,-0.04 -0.02,-0.04 -0.03,-0.03 -0.03,-0.03 -0.03,-0.03 -0.03,-0.03 -0.03,-0.03 -0.03,-0.03 -0.03,-0.02 -0.04,-0.02 -0.03,-0.03 -0.03,-0.02 -0.04,-0.01 -0.03,-0.02 -0.04,-0.01 -0.04,-0.02 -0.03,-0.01 -0.04,0 -0.04,-0.01 -0.04,0 -0.04,0 c -0.09,0 -0.17,0.01 -0.25,0.04 0.18,0.08 0.24,0.25 0.24,0.35 0,0.17 -0.13,0.26 -0.27,0.26 -0.22,0 -0.4,-0.19 -0.4,-0.41 0,-0.27 0.27,-0.44 0.69,-0.44 0.42,0 1.24,0.25 1.45,1.1 l 0.63,2.5 c 0.02,0.07 0.03,0.14 0.03,0.24 0,0.39 -0.32,0.66 -0.74,0.66 -0.78,0 -1.22,-0.97 -1.22,-1.07 0,-0.09 0.09,-0.09 0.12,-0.09 0.08,0 0.09,0.02 0.14,0.13 0.17,0.4 0.53,0.83 0.94,0.83 0.17,0 0.23,-0.12 0.23,-0.34 0,-0.08 -0.01,-0.17 -0.02,-0.21 z"
                   inkscape:connector-curvature="0"
                   style="fill:#000000;stroke-width:0" /><path
                   id="path5694"
                   d="m 246.97,705.88 0.01,0 0.01,0 0.01,0 0.01,0 0.02,0 0.02,0 0.01,0 0.01,0 0.01,0 0.01,0.01 0.01,0 0.01,0 0.02,0 0.01,0.01 0.01,0 0.01,0 0.01,0.01 0.01,0 0.01,0.01 0,0.01 0.01,0 0.01,0.01 0,0.01 0.01,0 0,0 0,0.01 0.01,0 0,0.01 0,0 0,0.01 0.01,0.01 0,0 0,0.01 0,0 0,0.01 0,0.01 0,0 0,0.01 0,0.01 0,0.01 c 0,0.17 -0.15,0.17 -0.27,0.17 l -4.16,0 c -0.11,0 -0.28,0 -0.28,-0.17 0,-0.17 0.16,-0.17 0.28,-0.17 z"
                   inkscape:connector-curvature="0"
                   style="fill:#000000;stroke-width:0" /><path
                   id="path5696"
                   d="m 250.34,708.74 0,0.01 0,0.01 0,0 0,0.01 0,0.01 0,0.01 0,0 0,0.01 0,0.01 0,0 0,0.01 0,0.01 0,0 0,0.01 -0.01,0 0,0.01 0,0 0,0.01 0,0.01 0,0 -0.01,0.01 0,0.01 0,0.01 -0.01,0 0,0.01 -0.01,0 0,0 -0.01,0.01 -0.01,0 -0.01,0 -0.01,0.01 0,0 -0.01,0 -0.01,0 0,0 -0.01,0 0,0 -0.01,0 0,0 -0.01,0 -0.01,0 -0.01,0 0,0 -0.01,0 -0.01,0 -0.01,0 0,0 -0.01,0 -0.01,0 -0.01,0 c -0.45,-0.44 -1.08,-0.44 -1.37,-0.44 l 0,-0.25 c 0.17,0 0.63,0 1.01,0.19 l 0,-3.56 c 0,-0.23 0,-0.32 -0.69,-0.32 l -0.27,0 0,-0.25 c 0.13,0.01 0.98,0.03 1.24,0.03 0.22,0 1.1,-0.02 1.25,-0.03 l 0,0.25 -0.26,0 c -0.7,0 -0.7,0.09 -0.7,0.32 z"
                   inkscape:connector-curvature="0"
                   style="fill:#000000;stroke-width:0" /></g>            </g>
            <text
               sodipodi:linespacing="125%"
               id="text5843"
               y="106.70564"
               x="619.28571"
               style="font-style:normal;font-weight:normal;font-size:15px;line-height:125%;font-family:sans-serif;letter-spacing:0px;word-spacing:0px;fill:#000000;fill-opacity:1;stroke:none;stroke-width:1px;stroke-linecap:butt;stroke-linejoin:miter;stroke-opacity:1"
               xml:space="preserve"><tspan
                 y="106.70564"
                 x="619.28571"
                 id="tspan5845"
                 sodipodi:role="line">k</tspan></text>
            <text
               inkscape:transform-center-y="-1.0714065"
               inkscape:transform-center-x="-1.7857143"
               sodipodi:linespacing="125%"
               id="text5831-9"
               y="105.14558"
               x="706.96918"
               style="font-style:normal;font-weight:normal;font-size:15px;line-height:125%;font-family:sans-serif;letter-spacing:0px;word-spacing:0px;fill:#000000;fill-opacity:1;stroke:none;stroke-width:1px;stroke-linecap:butt;stroke-linejoin:miter;stroke-opacity:1"
               xml:space="preserve"><tspan
                 y="105.14558"
                 x="706.96918"
                 id="tspan5833-5"
                 sodipodi:role="line">j</tspan></text>
            <text
               sodipodi:linespacing="125%"
               id="text5827-8-8"
               y="106.70564"
               x="507.34119"
               style="font-style:normal;font-weight:normal;font-size:15px;line-height:125%;font-family:sans-serif;letter-spacing:0px;word-spacing:0px;fill:#000000;fill-opacity:1;stroke:none;stroke-width:1px;stroke-linecap:butt;stroke-linejoin:miter;stroke-opacity:1"
               xml:space="preserve"><tspan
                 y="106.70564"
                 x="507.34119"
                 id="tspan5829-9-7"
                 sodipodi:role="line">i</tspan></text>
            <text
               sodipodi:linespacing="125%"
               id="text5827-8-8-1"
               y="106.70564"
               x="515.55548"
               style="font-style:normal;font-weight:normal;font-size:15px;line-height:125%;font-family:sans-serif;letter-spacing:0px;word-spacing:0px;fill:#000000;fill-opacity:1;stroke:none;stroke-width:1px;stroke-linecap:butt;stroke-linejoin:miter;stroke-opacity:1"
               xml:space="preserve"><tspan
                 y="106.70564"
                 x="515.55548"
                 id="tspan5829-9-7-7"
                 sodipodi:role="line">i+1</tspan></text>
            <text
               sodipodi:linespacing="125%"
               id="text6000"
               y="105.14558"
               x="685.35718"
               style="font-style:normal;font-weight:normal;font-size:15px;line-height:125%;font-family:sans-serif;letter-spacing:0px;word-spacing:0px;fill:#000000;fill-opacity:1;stroke:none;stroke-width:1px;stroke-linecap:butt;stroke-linejoin:miter;stroke-opacity:1"
               xml:space="preserve"><tspan
                 y="105.14558"
                 x="685.35718"
                 id="tspan6002"
                 sodipodi:role="line">j-1</tspan></text>
          </g>
        </g>
      </g>
    </g>
    <g
       ns0:preamble=""
       ns0:text="$Q_{i\\prime,j\\prime}^b$"
       word-spacing="normal"
       letter-spacing="normal"
       font-size-adjust="none"
       font-stretch="normal"
       font-weight="normal"
       font-variant="normal"
       font-style="normal"
       stroke-miterlimit="10.433"
       xml:space="preserve"
       transform="matrix(1.2430197,0,0,-1.2430197,125.931,951.67049)"
       id="g6459"
       style="font-style:normal;font-variant:normal;font-weight:normal;font-stretch:normal;letter-spacing:normal;word-spacing:normal;text-anchor:start;fill:none;fill-opacity:1;fill-rule:evenodd;stroke:#000000;stroke-linecap:butt;stroke-linejoin:miter;stroke-miterlimit:10.43299961;stroke-dasharray:none;stroke-dashoffset:0;stroke-opacity:1"><path
         id="path6461"
         d="m 227.8,707.18 0.14,0.06 0.14,0.07 0.15,0.07 0.14,0.08 0.14,0.08 0.14,0.09 0.13,0.1 0.14,0.1 0.13,0.11 0.13,0.11 0.12,0.12 0.13,0.12 0.12,0.13 0.11,0.13 0.11,0.13 0.11,0.14 0.1,0.15 0.1,0.14 0.09,0.16 0.09,0.15 0.08,0.16 0.08,0.16 0.07,0.16 0.06,0.17 0.06,0.17 0.05,0.17 0.04,0.17 0.04,0.17 0.03,0.18 0.02,0.18 0.01,0.18 0,0.18 c 0,1.6 -1.05,2.68 -2.54,2.68 l -0.05,-0.25 c 0.99,0 1.72,-0.78 1.72,-2.12 0,-0.99 -0.51,-3.32 -2.18,-4.26 -0.05,0.35 -0.15,1.08 -0.88,1.08 l 0,-0.22 c 0.42,0 0.61,-0.24 0.61,-0.85 0,-0.15 -0.01,-0.16 -0.11,-0.2 -0.26,-0.11 -0.56,-0.18 -0.84,-0.18 l 0,0 c -0.14,0 -0.46,0 -0.46,0.43 0,0.4 0.38,0.8 0.8,0.8 l 0,0.22 c -0.53,0 -1.02,-0.5 -1.02,-1.02 0,-0.2 0.06,-0.31 0.06,-0.32 l 0,0 c -0.77,0.31 -1.11,1.09 -1.11,1.98 0,0.69 0.26,2.11 1.01,3.18 0.73,1.02 1.67,1.48 2.4,1.48 l 0.05,0.25 c -2.15,0 -4.34,-2.26 -4.34,-4.59 0,-1.65 1.12,-2.66 2.55,-2.66 0.25,0 0.59,0.04 0.98,0.15 -0.04,-0.62 -0.04,-0.64 -0.04,-0.76 0,-0.32 0,-1.1 0.82,-1.1 1.19,0 1.67,1.82 1.67,1.93 0,0.07 -0.07,0.1 -0.11,0.1 -0.08,0 -0.1,-0.05 -0.12,-0.11 -0.24,-0.7 -0.82,-0.95 -1.17,-0.95 -0.46,0 -0.6,0.26 -0.7,1.02 z"
         inkscape:connector-curvature="0"
         style="fill:#000000;stroke-width:0" /><path
         id="path6463"
         d="m 233.15,715.37 0,0 0,0 0,0 0,0 0,0 0,0 0,0.01 0,0 0,0 0,0 0.01,0.01 0,0 0,0 0,0.01 0,0 0,0.01 0,0 0,0.01 0.01,0.01 0,0.01 0,0 0,0.01 0,0 0,0 0,0.01 0,0 0,0.01 0,0 0,0 0,0 0,0 0.01,0 0,0 0,0.01 0,0 0,0 0,0 0,0 0,0 0,0 c 0,0.04 -0.03,0.1 -0.11,0.1 -0.14,0 -0.72,-0.06 -0.9,-0.07 -0.05,-0.01 -0.15,-0.02 -0.15,-0.16 0,-0.1 0.1,-0.1 0.18,-0.1 0.34,0 0.34,-0.05 0.34,-0.1 0,-0.05 -0.08,-0.33 -0.12,-0.49 l -0.16,-0.64 c -0.06,-0.24 -0.44,-1.77 -0.46,-1.86 -0.03,-0.17 -0.03,-0.26 -0.03,-0.34 0,-0.71 0.44,-1.15 1.02,-1.15 l 0.01,0.19 c -0.34,0 -0.54,0.3 -0.54,0.71 0,0.26 0.07,0.5 0.26,1.29 0.04,0.13 0.04,0.14 0.18,0.3 0.26,0.3 0.57,0.46 0.82,0.46 0.28,0 0.51,-0.21 0.51,-0.68 0,-0.28 -0.15,-1 -0.36,-1.4 -0.17,-0.34 -0.51,-0.68 -0.87,-0.68 l 0,0 -0.01,-0.19 c 0.87,0 1.8,0.95 1.8,1.98 0,0.81 -0.56,1.16 -1.04,1.16 -0.37,0 -0.67,-0.2 -0.88,-0.38 z"
         inkscape:connector-curvature="0"
         style="fill:#000000;stroke-width:0" /><path
         id="path6465"
         d="m 233.57,708.89 0,0.01 0,0.02 -0.01,0.01 0,0.01 0,0.01 0,0.01 -0.01,0.01 0,0.01 0,0.01 -0.01,0.01 0,0.02 -0.01,0.01 -0.01,0.01 0,0.01 -0.01,0.01 -0.01,0.01 -0.01,0.01 -0.01,0.01 -0.01,0.01 -0.01,0 -0.01,0.01 -0.01,0.01 -0.01,0.01 -0.02,0 -0.01,0.01 -0.01,0 -0.02,0.01 -0.01,0 -0.02,0.01 -0.02,0 -0.01,0 -0.02,0 c -0.19,0 -0.39,-0.18 -0.39,-0.38 0,-0.12 0.09,-0.27 0.28,-0.27 0.2,0 0.39,0.2 0.39,0.38 z"
         inkscape:connector-curvature="0"
         style="fill:#000000;stroke-width:0" /><path
         id="path6467"
         d="m 232.14,705.35 0,-0.02 -0.01,-0.01 -0.01,-0.04 0,-0.01 -0.01,-0.02 0,-0.02 -0.01,-0.01 0,-0.02 -0.01,-0.02 0,-0.02 0,-0.02 0,-0.01 0,-0.01 -0.01,-0.01 0,-0.01 0,-0.01 0,-0.01 0,-0.01 0,-0.01 c 0,-0.33 0.28,-0.59 0.66,-0.59 0.7,0 1.01,0.96 1.01,1.06 0,0.09 -0.09,0.09 -0.11,0.09 -0.1,0 -0.11,-0.04 -0.14,-0.12 -0.16,-0.55 -0.46,-0.84 -0.74,-0.84 -0.13,0 -0.17,0.09 -0.17,0.25 0,0.16 0.05,0.29 0.11,0.44 0.07,0.19 0.15,0.38 0.23,0.56 0.06,0.17 0.31,0.8 0.34,0.88 0.02,0.07 0.04,0.16 0.04,0.23 0,0.32 -0.28,0.59 -0.66,0.59 -0.69,0 -1.02,-0.95 -1.02,-1.07 0,-0.09 0.1,-0.09 0.12,-0.09 0.1,0 0.11,0.04 0.13,0.11 0.18,0.6 0.49,0.85 0.75,0.85 0.11,0 0.17,-0.05 0.17,-0.24 0,-0.16 -0.04,-0.26 -0.22,-0.7 z"
         inkscape:connector-curvature="0"
         style="fill:#000000;stroke-width:0" /><path
         id="path6469"
         d="m 236.15,707.83 0.01,0.01 0,0.01 0,0.01 0.01,0.01 0,0.01 0.01,0.01 0,0.01 0,0 0.01,0.01 0,0.01 0,0.01 0,0.01 0.01,0 0,0.01 0,0.01 0,0 0,0.01 0.01,0.01 0,0 0,0.01 0,0 0,0.01 0,0.01 0,0 0,0.01 0,0.01 0,0.01 0,0.01 c 0,0.22 -0.19,0.38 -0.41,0.38 -0.26,0 -0.35,-0.21 -0.38,-0.32 l -0.92,-3.02 c -0.01,-0.02 -0.04,-0.11 -0.04,-0.12 0,-0.08 0.22,-0.15 0.27,-0.15 0.05,0 0.06,0.02 0.11,0.12 z"
         inkscape:connector-curvature="0"
         style="fill:#000000;stroke-width:0" /><path
         id="path6471"
         d="m 237.89,704.65 0,-0.08 0,-0.07 -0.01,-0.08 0,-0.07 -0.01,-0.04 -0.01,-0.04 0,-0.04 -0.01,-0.04 -0.01,-0.04 -0.01,-0.04 -0.02,-0.04 -0.01,-0.04 -0.02,-0.04 -0.01,-0.04 -0.02,-0.04 -0.02,-0.04 -0.02,-0.04 -0.02,-0.04 -0.03,-0.04 -0.03,-0.05 -0.02,-0.04 -0.03,-0.04 -0.04,-0.04 -0.03,-0.04 -0.04,-0.04 -0.04,-0.05 -0.04,-0.04 -0.04,-0.04 c -0.03,-0.03 -0.05,-0.05 -0.05,-0.08 0,-0.05 0.06,-0.1 0.1,-0.1 0.1,0 0.69,0.56 0.69,1.39 0,0.43 -0.17,0.76 -0.49,0.76 -0.23,0 -0.4,-0.18 -0.4,-0.4 0,-0.22 0.16,-0.41 0.41,-0.41 0.16,0 0.28,0.12 0.28,0.12 z"
         inkscape:connector-curvature="0"
         style="fill:#000000;stroke-width:0" /><path
         id="path6473"
         d="m 241.85,708.89 0,0.02 0,0.01 0,0.01 0,0.01 0,0.01 -0.01,0.01 0,0.01 0,0.02 -0.01,0.01 0,0.01 -0.01,0.01 0,0.01 -0.01,0.01 -0.01,0.01 -0.01,0.01 0,0.01 -0.01,0.01 -0.01,0.01 -0.01,0.01 -0.01,0.01 -0.02,0 -0.01,0.01 -0.01,0.01 -0.01,0 -0.02,0.01 -0.01,0 -0.01,0.01 -0.02,0 -0.01,0.01 -0.02,0 -0.02,0 -0.02,0 c -0.2,0 -0.39,-0.2 -0.39,-0.38 0,-0.12 0.09,-0.27 0.28,-0.27 0.19,0 0.39,0.18 0.39,0.38 z"
         inkscape:connector-curvature="0"
         style="fill:#000000;stroke-width:0" /><path
         id="path6475"
         d="m 240.38,704.19 -0.02,-0.04 -0.01,-0.05 -0.01,-0.04 -0.02,-0.04 -0.02,-0.05 -0.02,-0.04 -0.02,-0.04 -0.02,-0.04 -0.02,-0.04 -0.02,-0.04 -0.03,-0.03 -0.02,-0.04 -0.03,-0.03 -0.03,-0.04 -0.03,-0.03 -0.02,-0.03 -0.03,-0.03 -0.04,-0.03 -0.03,-0.02 -0.03,-0.03 -0.03,-0.02 -0.04,-0.02 -0.03,-0.02 -0.04,-0.02 -0.03,-0.02 -0.04,-0.01 -0.04,-0.01 -0.03,-0.01 -0.04,-0.01 -0.04,-0.01 -0.04,0 -0.03,0 c -0.1,0 -0.18,0.01 -0.25,0.04 0.18,0.08 0.23,0.25 0.23,0.36 0,0.16 -0.13,0.25 -0.27,0.25 -0.22,0 -0.4,-0.18 -0.4,-0.41 0,-0.26 0.27,-0.44 0.69,-0.44 0.42,0 1.24,0.25 1.45,1.1 l 0.63,2.5 c 0.02,0.08 0.04,0.14 0.04,0.25 0,0.38 -0.33,0.65 -0.75,0.65 -0.77,0 -1.22,-0.97 -1.22,-1.07 0,-0.09 0.1,-0.09 0.12,-0.09 0.08,0 0.09,0.02 0.14,0.13 0.17,0.4 0.53,0.83 0.94,0.83 0.17,0 0.24,-0.11 0.24,-0.34 0,-0.07 -0.02,-0.17 -0.03,-0.21 z"
         inkscape:connector-curvature="0"
         style="fill:#000000;stroke-width:0" /><path
         id="path6477"
         d="m 244.51,707.83 0.01,0.01 0,0.01 0.01,0.01 0,0.01 0,0.01 0.01,0.01 0,0.01 0.01,0 0,0.01 0,0.01 0,0.01 0.01,0.01 0,0 0,0.01 0,0.01 0,0 0.01,0.01 0,0.01 0,0 0,0.01 0,0 0,0.01 0,0.01 0,0 0,0.01 0,0.01 0,0.01 0,0.01 c 0,0.22 -0.19,0.38 -0.41,0.38 -0.26,0 -0.34,-0.21 -0.38,-0.32 l -0.92,-3.02 c -0.01,-0.02 -0.04,-0.11 -0.04,-0.12 0,-0.08 0.22,-0.15 0.28,-0.15 0.05,0 0.05,0.02 0.1,0.12 z"
         inkscape:connector-curvature="0"
         style="fill:#000000;stroke-width:0" /></g>    <text
       xml:space="preserve"
       style="font-style:normal;font-weight:normal;font-size:17.5px;line-height:125%;font-family:sans-serif;letter-spacing:0px;word-spacing:0px;fill:#000000;fill-opacity:1;stroke:none;stroke-width:1px;stroke-linecap:butt;stroke-linejoin:miter;stroke-opacity:1"
       x="151.42857"
       y="63.076473"
       id="text6615"
       sodipodi:linespacing="125%"><tspan
         sodipodi:role="line"
         id="tspan6617"
         x="151.42857"
         y="63.076473" /></text>
    <path
       style="fill:none;fill-rule:evenodd;stroke:#000000;stroke-width:3.62994099;stroke-linecap:butt;stroke-linejoin:miter;stroke-miterlimit:4;stroke-dasharray:none;stroke-opacity:1"
       d="m 321.85714,26.933612 0,80.000008"
       id="path6619"
       inkscape:connector-curvature="0" />
    <path
       style="fill:none;fill-rule:evenodd;stroke:#000000;stroke-width:3.75635958;stroke-linecap:butt;stroke-linejoin:miter;stroke-miterlimit:4;stroke-dasharray:none;stroke-opacity:1"
       d="m 494.14285,26.933612 0,80.000008"
       id="path6623"
       inkscape:connector-curvature="0" />
    <text
       xml:space="preserve"
       style="font-style:normal;font-weight:normal;font-size:25px;line-height:125%;font-family:sans-serif;letter-spacing:0px;word-spacing:0px;fill:#000000;fill-opacity:1;stroke:none;stroke-width:1px;stroke-linecap:butt;stroke-linejoin:miter;stroke-opacity:1"
       x="150.00764"
       y="64.795944"
       id="text6625"
       sodipodi:linespacing="125%"><tspan
         sodipodi:role="line"
         id="tspan6627"
         x="150.00764"
         y="64.795944">=</tspan></text>
    <text
       xml:space="preserve"
       style="font-style:normal;font-weight:normal;font-size:20px;line-height:125%;font-family:sans-serif;letter-spacing:0px;word-spacing:0px;fill:#000000;fill-opacity:1;stroke:none;stroke-width:1px;stroke-linecap:butt;stroke-linejoin:miter;stroke-opacity:1"
       x="181.80714"
       y="130.09293"
       id="text6629"
       sodipodi:linespacing="125%"><tspan
         sodipodi:role="line"
         id="tspan6631"
         x="181.80714"
         y="130.09293">Hairpin-Loop</tspan></text>
    <text
       xml:space="preserve"
       style="font-style:normal;font-weight:normal;font-size:20px;line-height:125%;font-family:sans-serif;letter-spacing:0px;word-spacing:0px;fill:#000000;fill-opacity:1;stroke:none;stroke-width:1px;stroke-linecap:butt;stroke-linejoin:miter;stroke-opacity:1"
       x="369.73615"
       y="129.91714"
       id="text6633"
       sodipodi:linespacing="125%"><tspan
         sodipodi:role="line"
         x="369.73615"
         y="129.91714"
         id="tspan6637">ISB-Loop</tspan></text>
    <text
       xml:space="preserve"
       style="font-style:normal;font-weight:normal;font-size:20px;line-height:125%;font-family:sans-serif;letter-spacing:0px;word-spacing:0px;fill:#000000;fill-opacity:1;stroke:none;stroke-width:1px;stroke-linecap:butt;stroke-linejoin:miter;stroke-opacity:1"
       x="570.71588"
       y="130.09293"
       id="text6641"
       sodipodi:linespacing="125%"><tspan
         sodipodi:role="line"
         id="tspan6643"
         x="570.71588"
         y="130.09293">Multiloop</tspan></text>
  </g>
</svg>
