<?xml version="1.0" encoding="UTF-8" standalone="no"?>
<!-- Created with Inkscape (http://www.inkscape.org/) -->

<svg
   xmlns:ns0="http://www.iki.fi/pav/software/textext/"
   xmlns:dc="http://purl.org/dc/elements/1.1/"
   xmlns:cc="http://creativecommons.org/ns#"
   xmlns:rdf="http://www.w3.org/1999/02/22-rdf-syntax-ns#"
   xmlns:svg="http://www.w3.org/2000/svg"
   xmlns="http://www.w3.org/2000/svg"
   xmlns:sodipodi="http://sodipodi.sourceforge.net/DTD/sodipodi-0.dtd"
   xmlns:inkscape="http://www.inkscape.org/namespaces/inkscape"
   width="177.34415mm"
   height="14.297479mm"
   viewBox="0 0 628.38477 50.660357"
   id="svg5818"
   version="1.1"
   inkscape:version="0.91 r13725"
   sodipodi:docname="UML.svg">
  <sodipodi:namedview
     id="base"
     pagecolor="#ffffff"
     bordercolor="#666666"
     borderopacity="1.0"
     inkscape:pageopacity="0.0"
     inkscape:pageshadow="2"
     inkscape:zoom="1.4"
     inkscape:cx="279.07565"
     inkscape:cy="13.094154"
     inkscape:document-units="px"
     inkscape:current-layer="layer1"
     showgrid="false"
     inkscape:window-width="1855"
     inkscape:window-height="1056"
     inkscape:window-x="65"
     inkscape:window-y="24"
     inkscape:window-maximized="1"
     fit-margin-top="0"
     fit-margin-left="0"
     fit-margin-right="0"
     fit-margin-bottom="0"
     showguides="false" />
  <defs
     id="defs5820">
    <marker
       inkscape:isstock="true"
       style="overflow:visible"
       id="DotM"
       refX="0"
       refY="0"
       orient="auto"
       inkscape:stockid="DotM">
      <path
         transform="matrix(0.4,0,0,0.4,2.96,0.4)"
         style="fill:#000000;fill-opacity:1;fill-rule:evenodd;stroke:#000000;stroke-width:1pt;stroke-opacity:1"
         d="m -2.5,-1 c 0,2.76 -2.24,5 -5,5 -2.76,0 -5,-2.24 -5,-5 0,-2.76 2.24,-5 5,-5 2.76,0 5,2.24 5,5 z"
         id="path6461"
         inkscape:connector-curvature="0" />
    </marker>
    <marker
       inkscape:stockid="DotM"
       orient="auto"
       refY="0"
       refX="0"
       id="DotM-4"
       style="overflow:visible"
       inkscape:isstock="true">
      <path
         inkscape:connector-curvature="0"
         id="path4206"
         d="m -2.5,-1 c 0,2.76 -2.24,5 -5,5 -2.76,0 -5,-2.24 -5,-5 0,-2.76 2.24,-5 5,-5 2.76,0 5,2.24 5,5 z"
         style="fill:#000000;fill-opacity:1;fill-rule:evenodd;stroke:#000000;stroke-width:1pt;stroke-opacity:1"
         transform="matrix(0.4,0,0,0.4,2.96,0.4)" />
    </marker>
    <marker
       inkscape:stockid="DotM"
       orient="auto"
       refY="0"
       refX="0"
       id="DotM-0"
       style="overflow:visible"
       inkscape:isstock="true">
      <path
         inkscape:connector-curvature="0"
         id="path4206-9"
         d="m -2.5,-1 c 0,2.76 -2.24,5 -5,5 -2.76,0 -5,-2.24 -5,-5 0,-2.76 2.24,-5 5,-5 2.76,0 5,2.24 5,5 z"
         style="fill:#000000;fill-opacity:1;fill-rule:evenodd;stroke:#000000;stroke-width:1pt;stroke-opacity:1"
         transform="matrix(0.4,0,0,0.4,2.96,0.4)" />
    </marker>
    <marker
       inkscape:isstock="true"
       style="overflow:visible"
       id="DotM-3"
       refX="0"
       refY="0"
       orient="auto"
       inkscape:stockid="DotM">
      <path
         inkscape:connector-curvature="0"
         transform="matrix(0.4,0,0,0.4,2.96,0.4)"
         style="fill:#000000;fill-opacity:1;fill-rule:evenodd;stroke:#000000;stroke-width:1pt;stroke-opacity:1"
         d="m -2.5,-1 c 0,2.76 -2.24,5 -5,5 -2.76,0 -5,-2.24 -5,-5 0,-2.76 2.24,-5 5,-5 2.76,0 5,2.24 5,5 z"
         id="path6461-6" />
    </marker>
    <marker
       inkscape:isstock="true"
       style="overflow:visible"
       id="marker7469"
       refX="0"
       refY="0"
       orient="auto"
       inkscape:stockid="DotM">
      <path
         inkscape:connector-curvature="0"
         transform="matrix(0.4,0,0,0.4,2.96,0.4)"
         style="fill:#000000;fill-opacity:1;fill-rule:evenodd;stroke:#000000;stroke-width:1pt;stroke-opacity:1"
         d="m -2.5,-1 c 0,2.76 -2.24,5 -5,5 -2.76,0 -5,-2.24 -5,-5 0,-2.76 2.24,-5 5,-5 2.76,0 5,2.24 5,5 z"
         id="path7471" />
    </marker>
    <marker
       inkscape:isstock="true"
       style="overflow:visible"
       id="DotM-6"
       refX="0"
       refY="0"
       orient="auto"
       inkscape:stockid="DotM">
      <path
         inkscape:connector-curvature="0"
         transform="matrix(0.4,0,0,0.4,2.96,0.4)"
         style="fill:#000000;fill-opacity:1;fill-rule:evenodd;stroke:#000000;stroke-width:1pt;stroke-opacity:1"
         d="m -2.5,-1 c 0,2.76 -2.24,5 -5,5 -2.76,0 -5,-2.24 -5,-5 0,-2.76 2.24,-5 5,-5 2.76,0 5,2.24 5,5 z"
         id="path6461-8" />
    </marker>
    <marker
       inkscape:isstock="true"
       style="overflow:visible"
       id="marker10290"
       refX="0"
       refY="0"
       orient="auto"
       inkscape:stockid="DotM">
      <path
         inkscape:connector-curvature="0"
         transform="matrix(0.4,0,0,0.4,2.96,0.4)"
         style="fill:#000000;fill-opacity:1;fill-rule:evenodd;stroke:#000000;stroke-width:1pt;stroke-opacity:1"
         d="m -2.5,-1 c 0,2.76 -2.24,5 -5,5 -2.76,0 -5,-2.24 -5,-5 0,-2.76 2.24,-5 5,-5 2.76,0 5,2.24 5,5 z"
         id="path10292" />
    </marker>
  </defs>
  <metadata
     id="metadata5823">
    <rdf:RDF>
      <cc:Work
         rdf:about="">
        <dc:format>image/svg+xml</dc:format>
        <dc:type
           rdf:resource="http://purl.org/dc/dcmitype/StillImage" />
        <dc:title></dc:title>
      </cc:Work>
    </rdf:RDF>
  </metadata>
  <g
     id="layer1"
     inkscape:groupmode="layer"
     inkscape:label="Layer 1"
     transform="translate(-47.860413,-39.903486)">
    <path
       style="fill:#008214;fill-opacity:0.78431373;fill-rule:evenodd;stroke:#000000;stroke-width:1.52850783;stroke-linecap:butt;stroke-linejoin:miter;stroke-miterlimit:4;stroke-dasharray:none;stroke-opacity:1"
       d="m 580.59861,71.300578 17.52735,-20.132025 17.78895,6.94124 19.35857,-7.369583 17.78894,20.560368"
       id="path12164-7"
       inkscape:connector-curvature="0"
       sodipodi:nodetypes="ccccc" />
    <ellipse
       ry="3.7716763"
       rx="3.7716761"
       cy="71.030579"
       cx="652.05847"
       id="path6691-2-9-3-1-6-7"
       style="fill:#000000;fill-opacity:0.86163522;stroke:#000000;stroke-width:1.4566474;stroke-miterlimit:4;stroke-dasharray:none;stroke-dashoffset:0;stroke-opacity:1" />
    <ellipse
       ry="3.7716763"
       rx="3.7716761"
       cy="71.030579"
       cx="581.09418"
       id="path6691-2-9-3-1-9-1-6"
       style="fill:#000000;fill-opacity:0.86163522;stroke:#000000;stroke-width:1.4566474;stroke-miterlimit:4;stroke-dasharray:none;stroke-dashoffset:0;stroke-opacity:1" />
    <path
       style="fill:#008214;fill-opacity:0.78431373;fill-rule:evenodd;stroke:#000000;stroke-width:1.52850783;stroke-linecap:butt;stroke-linejoin:miter;stroke-miterlimit:4;stroke-dasharray:none;stroke-opacity:1"
       d="m 69.71225,71.211326 17.527349,-20.132023 17.788951,6.94124 19.35856,-7.369583 17.78894,20.560366"
       id="path12164"
       inkscape:connector-curvature="0"
       sodipodi:nodetypes="ccccc" />
    <text
       xml:space="preserve"
       style="font-style:normal;font-weight:normal;font-size:15px;line-height:125%;font-family:sans-serif;letter-spacing:0px;word-spacing:0px;fill:#000000;fill-opacity:1;stroke:none;stroke-width:1px;stroke-linecap:butt;stroke-linejoin:miter;stroke-opacity:1"
       x="86.943863"
       y="241.44611"
       id="text6549"
       sodipodi:linespacing="125%"><tspan
         sodipodi:role="line"
         id="tspan6551"
         x="86.943863"
         y="241.44611" /></text>
    <path
       sodipodi:nodetypes="cssc"
       inkscape:connector-curvature="0"
       id="path5662-2-0"
       d="m 398.54307,70.24724 c 0.37737,-13.828221 15.09673,-24.832061 11.78939,-12.579965 -2.15917,7.998685 28.53411,-13.982593 22.83994,1.802815 -2.88111,7.98704 1.30365,6.0771 4.33388,10.77715"
       style="fill:#00ffff;fill-opacity:0.62893078;fill-rule:evenodd;stroke:#000000;stroke-width:1.5;stroke-linecap:butt;stroke-linejoin:miter;stroke-miterlimit:4;stroke-dasharray:none;stroke-opacity:1" />
    <path
       sodipodi:nodetypes="cssc"
       inkscape:connector-curvature="0"
       id="path5662-2"
       d="m 286.75186,70.77914 c 0.37737,-13.82822 15.09672,-24.83206 11.78938,-12.579964 -2.15917,7.998684 28.53411,-13.982593 22.83994,1.802819 -2.88111,7.987035 1.30365,6.077095 4.33388,10.777145"
       style="fill:#00ffff;fill-opacity:0.62893078;fill-rule:evenodd;stroke:#000000;stroke-width:1.5;stroke-linecap:butt;stroke-linejoin:miter;stroke-miterlimit:4;stroke-dasharray:none;stroke-opacity:1" />
    <path
       inkscape:connector-curvature="0"
       id="path6370"
       d="m 272.04128,70.941341 179.28571,0"
       style="fill:none;fill-rule:evenodd;stroke:#000000;stroke-width:2;stroke-linecap:butt;stroke-linejoin:miter;stroke-miterlimit:4;stroke-dasharray:none;stroke-opacity:1;marker-start:url(#DotM);marker-end:url(#DotM)" />
    <ellipse
       ry="3.7716763"
       rx="3.7716761"
       cy="70.941338"
       cx="383.46985"
       id="path6691"
       style="fill:#00ffff;fill-opacity:1;stroke:#00ffff;stroke-width:1.4566474;stroke-miterlimit:4;stroke-dasharray:none;stroke-dashoffset:0;stroke-opacity:1" />
    <ellipse
       ry="3.7716763"
       rx="3.7716761"
       cy="70.941338"
       cx="338.827"
       id="path6691-2"
       style="fill:#00ffff;fill-opacity:1;stroke:#00ffff;stroke-width:1.4566474;stroke-miterlimit:4;stroke-dasharray:none;stroke-dashoffset:0;stroke-opacity:1" />
    <ellipse
       ry="3.7716763"
       rx="3.7716761"
       cy="70.941338"
       cx="398.71985"
       id="path6691-2-9"
       style="fill:#000000;fill-opacity:0.86163522;stroke:#000000;stroke-width:1.4566474;stroke-miterlimit:4;stroke-dasharray:none;stroke-dashoffset:0;stroke-opacity:1" />
    <ellipse
       ry="3.7716763"
       rx="3.7716761"
       cy="70.941338"
       cx="435.68414"
       id="path6691-2-9-3"
       style="fill:#000000;fill-opacity:0.86163522;stroke:#000000;stroke-width:1.4566474;stroke-miterlimit:4;stroke-dasharray:none;stroke-dashoffset:0;stroke-opacity:1" />
    <ellipse
       ry="3.7716763"
       rx="3.7716761"
       cy="70.941338"
       cx="323.68414"
       id="path6691-2-9-3-1"
       style="fill:#000000;fill-opacity:0.86163522;stroke:#000000;stroke-width:1.4566474;stroke-miterlimit:4;stroke-dasharray:none;stroke-dashoffset:0;stroke-opacity:1" />
    <ellipse
       ry="3.7716763"
       rx="3.7716761"
       cy="70.941338"
       cx="286.71985"
       id="path6691-2-9-3-1-9"
       style="fill:#000000;fill-opacity:0.86163522;stroke:#000000;stroke-width:1.4566474;stroke-miterlimit:4;stroke-dasharray:none;stroke-dashoffset:0;stroke-opacity:1" />
    <path
       inkscape:connector-curvature="0"
       id="path6813"
       d="m 338.95775,70.941341 44.28571,0"
       style="fill:none;fill-rule:evenodd;stroke:#00ffff;stroke-width:2.20000005;stroke-linecap:butt;stroke-linejoin:miter;stroke-miterlimit:4;stroke-dasharray:none;stroke-opacity:1" />
    <path
       sodipodi:nodetypes="cc"
       inkscape:connector-curvature="0"
       id="path7136"
       d="m 271.32322,68.632424 c 11.3315,-31.837033 162.55445,-41.248047 180.0248,0"
       style="fill:none;fill-rule:evenodd;stroke:#000000;stroke-width:1.49287319;stroke-linecap:butt;stroke-linejoin:miter;stroke-miterlimit:4;stroke-dasharray:none;stroke-opacity:1" />
    <g
       style="font-style:normal;font-variant:normal;font-weight:normal;font-stretch:normal;letter-spacing:normal;word-spacing:normal;text-anchor:start;fill:none;fill-opacity:1;fill-rule:evenodd;stroke:#000000;stroke-linecap:butt;stroke-linejoin:miter;stroke-miterlimit:10.43299961;stroke-dasharray:none;stroke-dashoffset:0;stroke-opacity:1"
       id="g7266"
       transform="matrix(0.56046116,0,0,-0.56046116,170.50574,462.46645)"
       xml:space="preserve"
       stroke-miterlimit="10.433"
       font-style="normal"
       font-variant="normal"
       font-weight="normal"
       font-stretch="normal"
       font-size-adjust="none"
       letter-spacing="normal"
       word-spacing="normal"
       ns0:text="$Q_{p+1,i-1}^m$"
       ns0:preamble=""><path
         style="fill:#000000;stroke-width:0"
         inkscape:connector-curvature="0"
         d="m 227.8,707.18 0.14,0.06 0.14,0.07 0.15,0.07 0.14,0.08 0.14,0.08 0.14,0.09 0.13,0.1 0.14,0.1 0.13,0.11 0.13,0.11 0.12,0.12 0.13,0.12 0.12,0.13 0.11,0.13 0.11,0.13 0.11,0.14 0.1,0.15 0.1,0.14 0.09,0.16 0.09,0.15 0.08,0.16 0.08,0.16 0.07,0.16 0.06,0.17 0.06,0.17 0.05,0.17 0.04,0.17 0.04,0.17 0.03,0.18 0.02,0.18 0.01,0.18 0,0.18 c 0,1.6 -1.05,2.68 -2.54,2.68 l -0.05,-0.25 c 0.99,0 1.72,-0.78 1.72,-2.12 0,-0.99 -0.51,-3.32 -2.18,-4.26 -0.05,0.35 -0.15,1.08 -0.88,1.08 l 0,-0.22 c 0.42,0 0.61,-0.24 0.61,-0.85 0,-0.15 -0.01,-0.16 -0.11,-0.2 -0.26,-0.11 -0.56,-0.18 -0.84,-0.18 l 0,0 c -0.14,0 -0.46,0 -0.46,0.43 0,0.4 0.38,0.8 0.8,0.8 l 0,0.22 c -0.53,0 -1.02,-0.5 -1.02,-1.02 0,-0.2 0.06,-0.31 0.06,-0.32 l 0,0 c -0.77,0.31 -1.11,1.09 -1.11,1.98 0,0.69 0.26,2.11 1.01,3.18 0.73,1.02 1.67,1.48 2.4,1.48 l 0.05,0.25 c -2.15,0 -4.34,-2.26 -4.34,-4.59 0,-1.65 1.12,-2.66 2.55,-2.66 0.25,0 0.59,0.04 0.98,0.15 -0.04,-0.62 -0.04,-0.64 -0.04,-0.76 0,-0.32 0,-1.1 0.82,-1.1 1.19,0 1.67,1.82 1.67,1.93 0,0.07 -0.07,0.1 -0.11,0.1 -0.08,0 -0.1,-0.05 -0.12,-0.11 -0.24,-0.7 -0.82,-0.95 -1.17,-0.95 -0.46,0 -0.6,0.26 -0.7,1.02 z"
         id="path7268" /><path
         style="fill:#000000;stroke-width:0"
         inkscape:connector-curvature="0"
         d="m 234.33,711.3 0,-0.01 0,-0.02 -0.01,-0.01 0,-0.01 0,-0.02 -0.01,-0.01 -0.01,-0.04 0,-0.03 -0.01,-0.03 -0.01,-0.03 0,-0.02 -0.01,-0.01 0,-0.02 -0.01,-0.01 0,-0.02 0,-0.01 -0.01,-0.01 0,-0.02 0,-0.01 0,-0.01 -0.01,-0.01 0,-0.01 0,-0.01 0,-0.01 0,0 0,-0.01 0,-0.01 0,0 c 0,-0.15 0.12,-0.22 0.23,-0.22 0.13,0 0.24,0.09 0.28,0.15 0.03,0.06 0.09,0.29 0.12,0.43 0.04,0.14 0.11,0.46 0.15,0.63 0.05,0.15 0.09,0.31 0.12,0.47 0.08,0.3 0.08,0.31 0.22,0.53 0.22,0.34 0.57,0.74 1.12,0.74 0.39,0 0.41,-0.32 0.41,-0.49 0,-0.42 -0.3,-1.19 -0.41,-1.49 -0.08,-0.19 -0.11,-0.25 -0.11,-0.37 0,-0.37 0.31,-0.6 0.66,-0.6 0.7,0 1.01,0.96 1.01,1.06 0,0.1 -0.09,0.1 -0.11,0.1 -0.1,0 -0.11,-0.05 -0.14,-0.12 -0.16,-0.56 -0.46,-0.85 -0.74,-0.85 -0.14,0 -0.17,0.1 -0.17,0.25 0,0.16 0.03,0.25 0.16,0.56 0.08,0.22 0.37,0.96 0.37,1.35 0,0.11 0,0.4 -0.26,0.6 -0.12,0.1 -0.32,0.19 -0.65,0.19 -0.62,0 -1.01,-0.41 -1.23,-0.7 -0.06,0.59 -0.55,0.7 -0.91,0.7 -0.58,0 -0.97,-0.35 -1.18,-0.63 -0.05,0.48 -0.46,0.63 -0.74,0.63 -0.3,0 -0.46,-0.21 -0.55,-0.37 -0.16,-0.26 -0.26,-0.66 -0.26,-0.69 0,-0.09 0.1,-0.09 0.12,-0.09 0.1,0 0.11,0.02 0.16,0.2 0.1,0.42 0.23,0.76 0.51,0.76 0.18,0 0.23,-0.16 0.23,-0.34 0,-0.14 -0.07,-0.39 -0.11,-0.58 -0.05,-0.19 -0.12,-0.48 -0.16,-0.63 l -0.22,-0.89 c -0.03,-0.09 -0.07,-0.27 -0.07,-0.29 0,-0.15 0.12,-0.22 0.24,-0.22 0.12,0 0.23,0.09 0.27,0.15 0.03,0.06 0.09,0.29 0.12,0.43 0.04,0.14 0.12,0.46 0.16,0.63 0.04,0.15 0.08,0.31 0.11,0.47 0.08,0.28 0.1,0.34 0.3,0.63 0.19,0.28 0.52,0.64 1.04,0.64 0.41,0 0.42,-0.36 0.42,-0.49 0,-0.17 -0.02,-0.27 -0.12,-0.66 z"
         id="path7270" /><path
         style="fill:#000000;stroke-width:0"
         inkscape:connector-curvature="0"
         d="m 231.83,703.68 0,-0.01 -0.01,-0.02 0,-0.02 -0.01,-0.01 0,-0.02 0,-0.01 -0.01,-0.01 0,-0.02 -0.01,-0.01 0,-0.01 -0.01,-0.01 -0.01,-0.01 0,-0.01 -0.01,-0.01 -0.01,-0.01 0,0 -0.01,-0.01 -0.01,-0.01 -0.01,0 -0.01,-0.01 -0.02,0 -0.01,-0.01 -0.01,0 -0.02,-0.01 -0.01,0 -0.01,0 -0.01,0 -0.01,0 -0.01,0 -0.01,0 -0.01,0 -0.01,0 -0.01,-0.01 -0.01,0 -0.01,0 -0.01,0 -0.02,0 -0.01,0 -0.01,0 c -0.09,0 -0.19,0 -0.19,-0.14 0,-0.08 0.06,-0.11 0.1,-0.11 0.18,0 0.41,0.03 0.6,0.03 0.24,0 0.5,-0.03 0.73,-0.03 0.06,0 0.14,0.02 0.14,0.16 0,0.09 -0.1,0.09 -0.18,0.09 -0.15,0 -0.34,0 -0.34,0.09 0,0.03 0.05,0.21 0.07,0.32 0.09,0.37 0.18,0.74 0.26,1.04 0.08,-0.14 0.3,-0.41 0.72,-0.41 l 0,0.19 c -0.5,0 -0.62,0.54 -0.62,0.61 0,0.02 0.01,0.07 0.02,0.1 l 0.35,1.4 c 0.4,0.54 0.75,0.64 0.97,0.64 0.28,0 0.51,-0.2 0.51,-0.67 0,-0.29 -0.15,-1 -0.36,-1.4 -0.17,-0.35 -0.51,-0.68 -0.87,-0.68 l 0,-0.19 c 0.85,0 1.79,0.94 1.79,1.98 0,0.81 -0.56,1.16 -1.04,1.16 -0.44,0 -0.81,-0.29 -0.99,-0.49 -0.12,0.4 -0.51,0.49 -0.72,0.49 -0.28,0 -0.44,-0.18 -0.55,-0.37 -0.14,-0.24 -0.26,-0.65 -0.26,-0.7 0,-0.09 0.1,-0.09 0.12,-0.09 0.1,0 0.11,0.02 0.16,0.21 0.1,0.41 0.23,0.75 0.51,0.75 0.18,0 0.23,-0.15 0.23,-0.34 0,-0.07 -0.02,-0.16 -0.02,-0.21 z"
         id="path7272" /><path
         style="fill:#000000;stroke-width:0"
         inkscape:connector-curvature="0"
         d="m 238.65,706.11 2.13,0 c 0.09,0 0.26,0 0.26,0.17 0,0.17 -0.16,0.17 -0.26,0.17 l -2.13,0 0,2.14 c 0,0.09 0,0.26 -0.17,0.26 -0.18,0 -0.18,-0.16 -0.18,-0.26 l 0,-2.14 -2.14,0 c -0.09,0 -0.25,0 -0.25,-0.17 0,-0.17 0.16,-0.17 0.25,-0.17 l 2.14,0 0,-2.14 c 0,-0.09 0,-0.26 0.17,-0.26 0.18,0 0.18,0.16 0.18,0.26 z"
         id="path7274" /><path
         style="fill:#000000;stroke-width:0"
         inkscape:connector-curvature="0"
         d="m 243.87,708.97 0,0.01 0,0.01 0,0.01 0,0 0,0.01 0,0.01 0,0.01 0,0 -0.01,0.01 0,0.01 0,0 0,0.01 0,0 0,0.01 0,0.01 0,0 0,0.01 0,0 0,0.01 -0.01,0.01 0,0.01 0,0 -0.01,0.01 0,0 -0.01,0.01 0,0 -0.01,0.01 0,0 -0.01,0 -0.01,0.01 -0.01,0 -0.01,0 0,0 -0.01,0 0,0 -0.01,0 -0.01,0 0,0 -0.01,0 0,0 -0.01,0.01 -0.01,0 -0.01,0 0,0 -0.01,0 -0.01,0 -0.01,0 -0.01,0 0,0 -0.01,0 c -0.45,-0.44 -1.08,-0.45 -1.37,-0.45 l 0,-0.25 c 0.17,0 0.63,0 1.01,0.19 l 0,-3.55 c 0,-0.23 0,-0.32 -0.7,-0.32 l -0.26,0 0,-0.26 c 0.12,0.01 0.98,0.03 1.24,0.03 0.22,0 1.1,-0.02 1.25,-0.03 l 0,0.26 -0.27,0 c -0.69,0 -0.69,0.09 -0.69,0.32 z"
         id="path7276" /><path
         style="fill:#000000;stroke-width:0"
         inkscape:connector-curvature="0"
         d="m 246.98,704.65 0,-0.08 -0.01,-0.07 0,-0.08 -0.01,-0.07 -0.01,-0.04 0,-0.04 -0.01,-0.04 -0.01,-0.04 -0.01,-0.04 -0.01,-0.04 -0.01,-0.04 -0.02,-0.04 -0.01,-0.04 -0.02,-0.04 -0.02,-0.04 -0.02,-0.04 -0.02,-0.04 -0.02,-0.04 -0.03,-0.04 -0.02,-0.05 -0.03,-0.04 -0.03,-0.04 -0.03,-0.04 -0.04,-0.04 -0.03,-0.04 -0.04,-0.05 -0.04,-0.04 -0.05,-0.04 c -0.03,-0.03 -0.05,-0.05 -0.05,-0.08 0,-0.05 0.06,-0.1 0.1,-0.1 0.1,0 0.69,0.56 0.69,1.39 0,0.43 -0.17,0.76 -0.49,0.76 -0.23,0 -0.39,-0.18 -0.39,-0.4 0,-0.22 0.16,-0.41 0.4,-0.41 0.17,0 0.28,0.12 0.29,0.12 z"
         id="path7278" /><path
         style="fill:#000000;stroke-width:0"
         inkscape:connector-curvature="0"
         d="m 250.13,708.89 0,0.01 0,0.02 -0.01,0.01 0,0.01 0,0.01 0,0.01 -0.01,0.01 0,0.01 0,0.01 -0.01,0.01 0,0.02 -0.01,0.01 -0.01,0.01 0,0.01 -0.01,0.01 -0.01,0.01 -0.01,0.01 -0.01,0.01 -0.01,0.01 -0.01,0 -0.01,0.01 -0.01,0.01 -0.01,0.01 -0.02,0 -0.01,0.01 -0.01,0 -0.02,0.01 -0.01,0 -0.02,0.01 -0.02,0 -0.01,0 -0.02,0 c -0.19,0 -0.39,-0.18 -0.39,-0.38 0,-0.12 0.09,-0.27 0.28,-0.27 0.2,0 0.39,0.2 0.39,0.38 z"
         id="path7280" /><path
         style="fill:#000000;stroke-width:0"
         inkscape:connector-curvature="0"
         d="m 248.7,705.35 0,-0.02 -0.01,-0.01 -0.01,-0.04 0,-0.01 -0.01,-0.02 0,-0.02 -0.01,-0.01 0,-0.02 -0.01,-0.02 0,-0.02 0,-0.02 0,-0.01 0,-0.01 -0.01,-0.01 0,-0.01 0,-0.01 0,-0.01 0,-0.01 0,-0.01 c 0,-0.33 0.28,-0.59 0.66,-0.59 0.7,0 1.01,0.96 1.01,1.06 0,0.09 -0.09,0.09 -0.11,0.09 -0.1,0 -0.11,-0.04 -0.14,-0.12 -0.16,-0.55 -0.46,-0.84 -0.74,-0.84 -0.13,0 -0.17,0.09 -0.17,0.25 0,0.16 0.05,0.29 0.11,0.44 0.07,0.19 0.15,0.38 0.23,0.56 0.06,0.17 0.31,0.8 0.34,0.88 0.02,0.07 0.04,0.16 0.04,0.23 0,0.32 -0.28,0.59 -0.66,0.59 -0.69,0 -1.01,-0.95 -1.01,-1.07 0,-0.09 0.09,-0.09 0.11,-0.09 0.1,0 0.11,0.04 0.13,0.11 0.18,0.6 0.49,0.85 0.75,0.85 0.11,0 0.17,-0.05 0.17,-0.24 0,-0.16 -0.04,-0.26 -0.22,-0.7 z"
         id="path7282" /><path
         style="fill:#000000;stroke-width:0"
         inkscape:connector-curvature="0"
         d="m 255.88,706.11 0.01,0 0.01,0 0.01,0 0.01,0 0.02,0 0.02,0 0.01,0 0.01,0 0.01,0.01 0.01,0 0.01,0 0.01,0 0.02,0.01 0.01,0 0.01,0 0.01,0.01 0.01,0 0.01,0.01 0.01,0 0,0.01 0.01,0.01 0.01,0 0,0.01 0.01,0 0,0.01 0,0 0.01,0.01 0,0 0,0.01 0,0 0.01,0.01 0,0 0,0.01 0,0.01 0,0 0,0.01 0,0.01 0,0 0,0.01 0,0.01 c 0,0.17 -0.16,0.17 -0.27,0.17 l -4.16,0 c -0.11,0 -0.28,0 -0.28,-0.17 0,-0.17 0.16,-0.17 0.28,-0.17 z"
         id="path7284" /><path
         style="fill:#000000;stroke-width:0"
         inkscape:connector-curvature="0"
         d="m 259.25,708.97 0,0.01 0,0.01 0,0.01 0,0 0,0.01 0,0.01 0,0.01 0,0 0,0.01 0,0.01 0,0 0,0.01 0,0 0,0.01 -0.01,0.01 0,0 0,0.01 0,0 0,0.01 0,0.01 -0.01,0.01 0,0 0,0.01 -0.01,0 0,0.01 -0.01,0 0,0.01 -0.01,0 -0.01,0 -0.01,0.01 -0.01,0 0,0 -0.01,0 -0.01,0 0,0 -0.01,0 0,0 -0.01,0 0,0 -0.01,0 -0.01,0.01 -0.01,0 0,0 -0.01,0 -0.01,0 -0.01,0 0,0 -0.01,0 -0.01,0 -0.01,0 c -0.45,-0.44 -1.08,-0.45 -1.37,-0.45 l 0,-0.25 c 0.17,0 0.63,0 1.01,0.19 l 0,-3.55 c 0,-0.23 0,-0.32 -0.69,-0.32 l -0.27,0 0,-0.26 c 0.13,0.01 0.98,0.03 1.24,0.03 0.22,0 1.1,-0.02 1.25,-0.03 l 0,0.26 -0.26,0 c -0.7,0 -0.7,0.09 -0.7,0.32 z"
         id="path7286" /></g>    <g
       ns0:preamble=""
       ns0:text="$Q_{j+1,q-1}^m$"
       word-spacing="normal"
       letter-spacing="normal"
       font-size-adjust="none"
       font-stretch="normal"
       font-weight="normal"
       font-variant="normal"
       font-style="normal"
       stroke-miterlimit="10.433"
       xml:space="preserve"
       transform="matrix(0.58110701,0,0,-0.58110701,277.10175,476.51963)"
       id="content"
       style="font-style:normal;font-variant:normal;font-weight:normal;font-stretch:normal;letter-spacing:normal;word-spacing:normal;text-anchor:start;fill:none;fill-opacity:1;fill-rule:evenodd;stroke:#000000;stroke-linecap:butt;stroke-linejoin:miter;stroke-miterlimit:10.43299961;stroke-dasharray:none;stroke-dashoffset:0;stroke-opacity:1"><path
         id="path7367"
         d="m 227.8,707.18 0.14,0.06 0.14,0.07 0.15,0.07 0.14,0.08 0.14,0.08 0.14,0.09 0.13,0.1 0.14,0.1 0.13,0.11 0.13,0.11 0.12,0.12 0.13,0.12 0.12,0.13 0.11,0.13 0.11,0.13 0.11,0.14 0.1,0.15 0.1,0.14 0.09,0.16 0.09,0.15 0.08,0.16 0.08,0.16 0.07,0.16 0.06,0.17 0.06,0.17 0.05,0.17 0.04,0.17 0.04,0.17 0.03,0.18 0.02,0.18 0.01,0.18 0,0.18 c 0,1.6 -1.05,2.68 -2.54,2.68 l -0.05,-0.25 c 0.99,0 1.72,-0.78 1.72,-2.12 0,-0.99 -0.51,-3.32 -2.18,-4.26 -0.05,0.35 -0.15,1.08 -0.88,1.08 l 0,-0.22 c 0.42,0 0.61,-0.24 0.61,-0.85 0,-0.15 -0.01,-0.16 -0.11,-0.2 -0.26,-0.11 -0.56,-0.18 -0.84,-0.18 l 0,0 c -0.14,0 -0.46,0 -0.46,0.43 0,0.4 0.38,0.8 0.8,0.8 l 0,0.22 c -0.53,0 -1.02,-0.5 -1.02,-1.02 0,-0.2 0.06,-0.31 0.06,-0.32 l 0,0 c -0.77,0.31 -1.11,1.09 -1.11,1.98 0,0.69 0.26,2.11 1.01,3.18 0.73,1.02 1.67,1.48 2.4,1.48 l 0.05,0.25 c -2.15,0 -4.34,-2.26 -4.34,-4.59 0,-1.65 1.12,-2.66 2.55,-2.66 0.25,0 0.59,0.04 0.98,0.15 -0.04,-0.62 -0.04,-0.64 -0.04,-0.76 0,-0.32 0,-1.1 0.82,-1.1 1.19,0 1.67,1.82 1.67,1.93 0,0.07 -0.07,0.1 -0.11,0.1 -0.08,0 -0.1,-0.05 -0.12,-0.11 -0.24,-0.7 -0.82,-0.95 -1.17,-0.95 -0.46,0 -0.6,0.26 -0.7,1.02 z"
         inkscape:connector-curvature="0"
         style="fill:#000000;stroke-width:0" /><path
         id="path7369"
         d="m 234.33,711.3 0,-0.01 0,-0.02 -0.01,-0.01 0,-0.01 0,-0.02 -0.01,-0.01 -0.01,-0.04 0,-0.03 -0.01,-0.03 -0.01,-0.03 0,-0.02 -0.01,-0.01 0,-0.02 -0.01,-0.01 0,-0.02 0,-0.01 -0.01,-0.01 0,-0.02 0,-0.01 0,-0.01 -0.01,-0.01 0,-0.01 0,-0.01 0,-0.01 0,0 0,-0.01 0,-0.01 0,0 c 0,-0.15 0.12,-0.22 0.23,-0.22 0.13,0 0.24,0.09 0.28,0.15 0.03,0.06 0.09,0.29 0.12,0.43 0.04,0.14 0.11,0.46 0.15,0.63 0.05,0.15 0.09,0.31 0.12,0.47 0.08,0.3 0.08,0.31 0.22,0.53 0.22,0.34 0.57,0.74 1.12,0.74 0.39,0 0.41,-0.32 0.41,-0.49 0,-0.42 -0.3,-1.19 -0.41,-1.49 -0.08,-0.19 -0.11,-0.25 -0.11,-0.37 0,-0.37 0.31,-0.6 0.66,-0.6 0.7,0 1.01,0.96 1.01,1.06 0,0.1 -0.09,0.1 -0.11,0.1 -0.1,0 -0.11,-0.05 -0.14,-0.12 -0.16,-0.56 -0.46,-0.85 -0.74,-0.85 -0.14,0 -0.17,0.1 -0.17,0.25 0,0.16 0.03,0.25 0.16,0.56 0.08,0.22 0.37,0.96 0.37,1.35 0,0.11 0,0.4 -0.26,0.6 -0.12,0.1 -0.32,0.19 -0.65,0.19 -0.62,0 -1.01,-0.41 -1.23,-0.7 -0.06,0.59 -0.55,0.7 -0.91,0.7 -0.58,0 -0.97,-0.35 -1.18,-0.63 -0.05,0.48 -0.46,0.63 -0.74,0.63 -0.3,0 -0.46,-0.21 -0.55,-0.37 -0.16,-0.26 -0.26,-0.66 -0.26,-0.69 0,-0.09 0.1,-0.09 0.12,-0.09 0.1,0 0.11,0.02 0.16,0.2 0.1,0.42 0.23,0.76 0.51,0.76 0.18,0 0.23,-0.16 0.23,-0.34 0,-0.14 -0.07,-0.39 -0.11,-0.58 -0.05,-0.19 -0.12,-0.48 -0.16,-0.63 l -0.22,-0.89 c -0.03,-0.09 -0.07,-0.27 -0.07,-0.29 0,-0.15 0.12,-0.22 0.24,-0.22 0.12,0 0.23,0.09 0.27,0.15 0.03,0.06 0.09,0.29 0.12,0.43 0.04,0.14 0.12,0.46 0.16,0.63 0.04,0.15 0.08,0.31 0.11,0.47 0.08,0.28 0.1,0.34 0.3,0.63 0.19,0.28 0.52,0.64 1.04,0.64 0.41,0 0.42,-0.36 0.42,-0.49 0,-0.17 -0.02,-0.27 -0.12,-0.66 z"
         inkscape:connector-curvature="0"
         style="fill:#000000;stroke-width:0" /><path
         id="path7371"
         d="m 234.37,708.89 0,0.02 0,0.01 0,0.01 -0.01,0.01 0,0.01 0,0.01 0,0.01 -0.01,0.02 0,0.01 -0.01,0.01 0,0.01 -0.01,0.01 -0.01,0.01 0,0.01 -0.01,0.01 -0.01,0.01 -0.01,0.01 -0.01,0.01 -0.01,0.01 -0.01,0.01 -0.01,0 -0.01,0.01 -0.01,0.01 -0.02,0 -0.01,0.01 -0.01,0 -0.02,0.01 -0.01,0 -0.02,0.01 -0.02,0 -0.01,0 -0.02,0 c -0.2,0 -0.39,-0.2 -0.39,-0.38 0,-0.12 0.08,-0.27 0.28,-0.27 0.19,0 0.39,0.18 0.39,0.38 z"
         inkscape:connector-curvature="0"
         style="fill:#000000;stroke-width:0" /><path
         id="path7373"
         d="m 232.89,704.19 -0.01,-0.04 -0.01,-0.05 -0.02,-0.04 -0.01,-0.04 -0.02,-0.05 -0.02,-0.04 -0.02,-0.04 -0.02,-0.04 -0.02,-0.04 -0.03,-0.04 -0.02,-0.03 -0.03,-0.04 -0.02,-0.03 -0.03,-0.04 -0.03,-0.03 -0.03,-0.03 -0.03,-0.03 -0.03,-0.03 -0.03,-0.02 -0.03,-0.03 -0.04,-0.02 -0.03,-0.02 -0.04,-0.02 -0.03,-0.02 -0.04,-0.02 -0.03,-0.01 -0.04,-0.01 -0.04,-0.01 -0.03,-0.01 -0.04,-0.01 -0.04,0 -0.04,0 c -0.09,0 -0.17,0.01 -0.25,0.04 0.18,0.08 0.24,0.25 0.24,0.36 0,0.16 -0.14,0.25 -0.27,0.25 -0.22,0 -0.4,-0.18 -0.4,-0.41 0,-0.26 0.27,-0.44 0.69,-0.44 0.42,0 1.23,0.25 1.45,1.1 l 0.63,2.5 c 0.02,0.08 0.03,0.14 0.03,0.25 0,0.38 -0.33,0.65 -0.74,0.65 -0.78,0 -1.23,-0.97 -1.23,-1.07 0,-0.09 0.1,-0.09 0.12,-0.09 0.09,0 0.09,0.02 0.14,0.13 0.18,0.4 0.54,0.83 0.94,0.83 0.18,0 0.24,-0.11 0.24,-0.34 0,-0.07 -0.01,-0.17 -0.02,-0.21 z"
         inkscape:connector-curvature="0"
         style="fill:#000000;stroke-width:0" /><path
         id="path7375"
         d="m 238.23,706.11 2.14,0 c 0.09,0 0.26,0 0.26,0.17 0,0.17 -0.17,0.17 -0.26,0.17 l -2.14,0 0,2.14 c 0,0.09 0,0.26 -0.16,0.26 -0.18,0 -0.18,-0.16 -0.18,-0.26 l 0,-2.14 -2.14,0 c -0.09,0 -0.26,0 -0.26,-0.17 0,-0.17 0.16,-0.17 0.26,-0.17 l 2.14,0 0,-2.14 c 0,-0.09 0,-0.26 0.17,-0.26 0.17,0 0.17,0.16 0.17,0.26 z"
         inkscape:connector-curvature="0"
         style="fill:#000000;stroke-width:0" /><path
         id="path7377"
         d="m 243.46,708.97 0,0.01 0,0.01 0,0.01 0,0 0,0.01 0,0.01 0,0.01 0,0 0,0.01 0,0.01 0,0 0,0.01 0,0 0,0.01 0,0.01 0,0 -0.01,0.01 0,0 0,0.01 0,0.01 0,0.01 -0.01,0 0,0.01 -0.01,0 0,0.01 -0.01,0 0,0.01 -0.01,0 -0.01,0 0,0.01 -0.01,0 -0.01,0 -0.01,0 0,0 -0.01,0 0,0 -0.01,0 -0.01,0 0,0 -0.01,0 -0.01,0.01 0,0 -0.01,0 -0.01,0 -0.01,0 0,0 -0.01,0 -0.01,0 -0.01,0 -0.01,0 c -0.44,-0.44 -1.08,-0.45 -1.37,-0.45 l 0,-0.25 c 0.17,0 0.63,0 1.02,0.19 l 0,-3.55 c 0,-0.23 0,-0.32 -0.7,-0.32 l -0.27,0 0,-0.26 c 0.13,0.01 0.99,0.03 1.25,0.03 0.21,0 1.09,-0.02 1.24,-0.03 l 0,0.26 -0.26,0 c -0.7,0 -0.7,0.09 -0.7,0.32 z"
         inkscape:connector-curvature="0"
         style="fill:#000000;stroke-width:0" /><path
         id="path7379"
         d="m 246.56,704.65 0,-0.08 0,-0.07 -0.01,-0.08 0,-0.07 -0.01,-0.04 -0.01,-0.04 0,-0.04 -0.01,-0.04 -0.01,-0.04 -0.01,-0.04 -0.02,-0.04 -0.01,-0.04 -0.02,-0.04 -0.01,-0.04 -0.02,-0.04 -0.02,-0.04 -0.02,-0.04 -0.02,-0.04 -0.03,-0.04 -0.03,-0.05 -0.02,-0.04 -0.03,-0.04 -0.04,-0.04 -0.03,-0.04 -0.04,-0.04 -0.04,-0.05 -0.04,-0.04 -0.04,-0.04 c -0.03,-0.03 -0.05,-0.05 -0.05,-0.08 0,-0.05 0.06,-0.1 0.1,-0.1 0.1,0 0.69,0.56 0.69,1.39 0,0.43 -0.17,0.76 -0.49,0.76 -0.23,0 -0.4,-0.18 -0.4,-0.4 0,-0.22 0.16,-0.41 0.41,-0.41 0.17,0 0.28,0.12 0.28,0.12 z"
         inkscape:connector-curvature="0"
         style="fill:#000000;stroke-width:0" /><path
         id="path7381"
         d="m 251.01,707.41 0,0 0,0 0,0.01 0.01,0.01 0,0 0,0.01 0,0 0,0.01 0,0.01 0,0 0,0.01 0,0.01 0,0.01 0.01,0 0,0.01 0,0.01 0,0 c 0,0.04 -0.03,0.1 -0.1,0.1 -0.06,0 -0.36,-0.24 -0.5,-0.46 -0.07,0.14 -0.3,0.46 -0.74,0.46 l 0,-0.2 c 0.49,0 0.62,-0.53 0.62,-0.6 0,-0.04 -0.02,-0.08 -0.02,-0.11 l -0.33,-1.29 c -0.04,-0.12 -0.04,-0.13 -0.13,-0.24 -0.27,-0.32 -0.6,-0.51 -0.87,-0.51 -0.26,0 -0.51,0.18 -0.51,0.68 0,0.37 0.2,1.13 0.37,1.41 0.32,0.56 0.67,0.66 0.87,0.66 l 0,0.2 c -0.9,0 -1.8,-0.98 -1.8,-1.99 0,-0.67 0.45,-1.15 1.05,-1.15 0.4,0 0.73,0.25 0.88,0.38 -0.01,-0.02 -0.22,-0.9 -0.25,-1.02 -0.1,-0.38 -0.11,-0.39 -0.54,-0.4 -0.08,0 -0.18,0 -0.18,-0.15 0,-0.04 0.03,-0.1 0.11,-0.1 0.22,0 0.48,0.03 0.72,0.03 0.24,0 0.53,-0.03 0.75,-0.03 0.06,0 0.14,0.02 0.14,0.16 0,0.09 -0.1,0.09 -0.19,0.09 -0.15,0 -0.34,0 -0.34,0.09 0,0.02 0,0.03 0.04,0.15 z"
         inkscape:connector-curvature="0"
         style="fill:#000000;stroke-width:0" /><path
         id="path7383"
         d="m 256.55,706.11 0.01,0 0.01,0 0.01,0 0.02,0 0.02,0 0.01,0 0.01,0 0.01,0 0.02,0.01 0.01,0 0.01,0 0.01,0 0.01,0.01 0.01,0 0.01,0 0.01,0.01 0.01,0 0.01,0.01 0.01,0 0.01,0.01 0.01,0.01 0.01,0 0,0.01 0,0 0.01,0.01 0,0 0,0.01 0,0 0.01,0.01 0,0 0,0.01 0,0 0,0.01 0.01,0.01 0,0 0,0.01 0,0.01 0,0 0,0.01 0,0.01 c 0,0.17 -0.16,0.17 -0.28,0.17 l -4.15,0 c -0.12,0 -0.28,0 -0.28,-0.17 0,-0.17 0.16,-0.17 0.28,-0.17 z"
         inkscape:connector-curvature="0"
         style="fill:#000000;stroke-width:0" /><path
         id="path7385"
         d="m 259.92,708.97 0,0.01 0,0.01 0,0.01 0,0 0,0.01 0,0.01 0,0.01 0,0 0,0.01 0,0.01 0,0 0,0.01 0,0 0,0.01 0,0.01 0,0 0,0.01 0,0 -0.01,0.01 0,0.01 0,0.01 0,0 -0.01,0.01 0,0 -0.01,0.01 0,0 -0.01,0.01 -0.01,0 0,0 -0.01,0.01 -0.01,0 -0.01,0 0,0 -0.01,0 -0.01,0 0,0 -0.01,0 0,0 -0.01,0 -0.01,0 0,0.01 -0.01,0 -0.01,0 0,0 -0.01,0 -0.01,0 -0.01,0 -0.01,0 -0.01,0 -0.01,0 c -0.44,-0.44 -1.08,-0.45 -1.36,-0.45 l 0,-0.25 c 0.17,0 0.63,0 1.01,0.19 l 0,-3.55 c 0,-0.23 0,-0.32 -0.7,-0.32 l -0.26,0 0,-0.26 c 0.12,0.01 0.98,0.03 1.24,0.03 0.21,0 1.09,-0.02 1.25,-0.03 l 0,0.26 -0.27,0 c -0.7,0 -0.7,0.09 -0.7,0.32 z"
         inkscape:connector-curvature="0"
         style="fill:#000000;stroke-width:0" /></g>    <text
       xml:space="preserve"
       style="font-style:normal;font-variant:normal;font-weight:bold;font-stretch:normal;font-size:15px;line-height:125%;font-family:sans-serif;-inkscape-font-specification:'sans-serif Bold';letter-spacing:0px;word-spacing:0px;fill:#000000;fill-opacity:1;stroke:none;stroke-width:1px;stroke-linecap:butt;stroke-linejoin:miter;stroke-opacity:1"
       x="263.1127"
       y="85.887329"
       id="text7443"
       sodipodi:linespacing="125%"><tspan
         sodipodi:role="line"
         id="tspan7445"
         x="263.1127"
         y="85.887329">p</tspan></text>
    <text
       xml:space="preserve"
       style="font-style:normal;font-variant:normal;font-weight:bold;font-stretch:normal;font-size:15px;line-height:125%;font-family:sans-serif;-inkscape-font-specification:'sans-serif Bold';letter-spacing:0px;word-spacing:0px;fill:#000000;fill-opacity:1;stroke:none;stroke-width:1px;stroke-linecap:butt;stroke-linejoin:miter;stroke-opacity:1"
       x="450.25555"
       y="85.880005"
       id="text7447"
       sodipodi:linespacing="125%"><tspan
         sodipodi:role="line"
         id="tspan7449"
         x="450.25555"
         y="85.880005">q</tspan></text>
    <text
       xml:space="preserve"
       style="font-style:normal;font-variant:normal;font-weight:bold;font-stretch:normal;font-size:15px;line-height:125%;font-family:sans-serif;-inkscape-font-specification:'sans-serif Bold';letter-spacing:0px;word-spacing:0px;fill:#000000;fill-opacity:1;stroke:none;stroke-width:1px;stroke-linecap:butt;stroke-linejoin:miter;stroke-opacity:1"
       x="330.077"
       y="88.94519"
       id="text7451"
       sodipodi:linespacing="125%"><tspan
         sodipodi:role="line"
         id="tspan7453"
         x="330.077"
         y="88.94519">i</tspan></text>
    <text
       xml:space="preserve"
       style="font-style:normal;font-variant:normal;font-weight:bold;font-stretch:normal;font-size:15px;line-height:125%;font-family:sans-serif;-inkscape-font-specification:'sans-serif Bold';letter-spacing:0px;word-spacing:0px;fill:#000000;fill-opacity:1;stroke:none;stroke-width:1px;stroke-linecap:butt;stroke-linejoin:miter;stroke-opacity:1"
       x="385.25555"
       y="87.326538"
       id="text7455"
       sodipodi:linespacing="125%"><tspan
         sodipodi:role="line"
         id="tspan7457"
         x="385.25555"
         y="87.326538">j</tspan></text>
    <path
       inkscape:connector-curvature="0"
       id="path6370-1"
       d="m 55.52924,70.941341 179.28571,0"
       style="fill:none;fill-rule:evenodd;stroke:#000000;stroke-width:2;stroke-linecap:butt;stroke-linejoin:miter;stroke-miterlimit:4;stroke-dasharray:none;stroke-opacity:1;marker-start:url(#DotM-3);marker-end:url(#DotM-3)" />
    <ellipse
       ry="3.7716763"
       rx="3.7716761"
       cy="70.941338"
       cx="216.95782"
       id="path6691-0"
       style="fill:#00ffff;fill-opacity:1;stroke:#00ffff;stroke-width:1.4566474;stroke-miterlimit:4;stroke-dasharray:none;stroke-dashoffset:0;stroke-opacity:1" />
    <ellipse
       ry="3.7716763"
       rx="3.7716761"
       cy="70.941338"
       cx="156.31494"
       id="path6691-2-6"
       style="fill:#00ffff;fill-opacity:1;stroke:#00ffff;stroke-width:1.4566474;stroke-miterlimit:4;stroke-dasharray:none;stroke-dashoffset:0;stroke-opacity:1" />
    <ellipse
       ry="3.7716763"
       rx="3.7716761"
       cy="70.941338"
       cx="141.17209"
       id="path6691-2-9-3-1-6"
       style="fill:#000000;fill-opacity:0.86163522;stroke:#000000;stroke-width:1.4566474;stroke-miterlimit:4;stroke-dasharray:none;stroke-dashoffset:0;stroke-opacity:1" />
    <ellipse
       ry="3.7716763"
       rx="3.7716761"
       cy="70.941338"
       cx="70.207787"
       id="path6691-2-9-3-1-9-1"
       style="fill:#000000;fill-opacity:0.86163522;stroke:#000000;stroke-width:1.4566474;stroke-miterlimit:4;stroke-dasharray:none;stroke-dashoffset:0;stroke-opacity:1" />
    <path
       inkscape:connector-curvature="0"
       id="path6813-5"
       d="m 156.7909,70.941341 57.16515,0"
       style="fill:none;fill-rule:evenodd;stroke:#00ffff;stroke-width:2.2;stroke-linecap:butt;stroke-linejoin:miter;stroke-miterlimit:4;stroke-dasharray:none;stroke-opacity:1" />
    <text
       xml:space="preserve"
       style="font-style:normal;font-variant:normal;font-weight:bold;font-stretch:normal;font-size:15px;line-height:125%;font-family:sans-serif;-inkscape-font-specification:'sans-serif Bold';letter-spacing:0px;word-spacing:0px;fill:#000000;fill-opacity:1;stroke:none;stroke-width:1px;stroke-linecap:butt;stroke-linejoin:miter;stroke-opacity:1"
       x="46.600647"
       y="85.887329"
       id="text7443-5"
       sodipodi:linespacing="125%"><tspan
         sodipodi:role="line"
         id="tspan7445-4"
         x="46.600647"
         y="85.887329">p</tspan></text>
    <text
       xml:space="preserve"
       style="font-style:normal;font-variant:normal;font-weight:bold;font-stretch:normal;font-size:15px;line-height:125%;font-family:sans-serif;-inkscape-font-specification:'sans-serif Bold';letter-spacing:0px;word-spacing:0px;fill:#000000;fill-opacity:1;stroke:none;stroke-width:1px;stroke-linecap:butt;stroke-linejoin:miter;stroke-opacity:1"
       x="233.74353"
       y="85.880005"
       id="text7447-7"
       sodipodi:linespacing="125%"><tspan
         sodipodi:role="line"
         id="tspan7449-6"
         x="233.74353"
         y="85.880005">q</tspan></text>
    <text
       xml:space="preserve"
       style="font-style:normal;font-variant:normal;font-weight:bold;font-stretch:normal;font-size:15px;line-height:125%;font-family:sans-serif;-inkscape-font-specification:'sans-serif Bold';letter-spacing:0px;word-spacing:0px;fill:#000000;fill-opacity:1;stroke:none;stroke-width:1px;stroke-linecap:butt;stroke-linejoin:miter;stroke-opacity:1"
       x="150.84793"
       y="88.94519"
       id="text7451-5"
       sodipodi:linespacing="125%"><tspan
         sodipodi:role="line"
         id="tspan7453-6"
         x="150.84793"
         y="88.94519">i</tspan></text>
    <text
       xml:space="preserve"
       style="font-style:normal;font-variant:normal;font-weight:bold;font-stretch:normal;font-size:15px;line-height:125%;font-family:sans-serif;-inkscape-font-specification:'sans-serif Bold';letter-spacing:0px;word-spacing:0px;fill:#000000;fill-opacity:1;stroke:none;stroke-width:1px;stroke-linecap:butt;stroke-linejoin:miter;stroke-opacity:1"
       x="217.23085"
       y="87.326538"
       id="text7455-9"
       sodipodi:linespacing="125%"><tspan
         sodipodi:role="line"
         id="tspan7457-3"
         x="217.23085"
         y="87.326538">j</tspan></text>
    <path
       sodipodi:nodetypes="cc"
       inkscape:connector-curvature="0"
       id="path7136-8"
       d="m 54.580232,68.98676 c 11.422651,-31.832151 154.262788,-43.291923 181.534158,0"
       style="fill:none;fill-rule:evenodd;stroke:#000000;stroke-width:1.4989841;stroke-linecap:butt;stroke-linejoin:miter;stroke-miterlimit:4;stroke-dasharray:none;stroke-opacity:1" />
    <path
       inkscape:connector-curvature="0"
       id="path6370-3"
       d="m 488.55338,70.941341 179.2857,0"
       style="fill:none;fill-rule:evenodd;stroke:#000000;stroke-width:2;stroke-linecap:butt;stroke-linejoin:miter;stroke-miterlimit:4;stroke-dasharray:none;stroke-opacity:1;marker-start:url(#DotM-6);marker-end:url(#DotM-6)" />
    <ellipse
       ry="3.7716763"
       rx="3.7716761"
       cy="70.941338"
       cx="565.98193"
       id="path6691-1"
       style="fill:#00ffff;fill-opacity:1;stroke:#00ffff;stroke-width:1.4566474;stroke-miterlimit:4;stroke-dasharray:none;stroke-dashoffset:0;stroke-opacity:1" />
    <ellipse
       ry="3.7716763"
       rx="3.7716761"
       cy="70.941338"
       cx="507.86188"
       id="path6691-2-4"
       style="fill:#00ffff;fill-opacity:1;stroke:#00ffff;stroke-width:1.4566474;stroke-miterlimit:4;stroke-dasharray:none;stroke-dashoffset:0;stroke-opacity:1" />
    <path
       sodipodi:nodetypes="cc"
       inkscape:connector-curvature="0"
       id="path7136-9"
       d="m 487.83532,68.632423 c 11.3315,-31.83703 162.55444,-41.248042 180.02479,0"
       style="fill:none;fill-rule:evenodd;stroke:#000000;stroke-width:1.49287319;stroke-linecap:butt;stroke-linejoin:miter;stroke-miterlimit:4;stroke-dasharray:none;stroke-opacity:1" />
    <text
       xml:space="preserve"
       style="font-style:normal;font-variant:normal;font-weight:bold;font-stretch:normal;font-size:15px;line-height:125%;font-family:sans-serif;-inkscape-font-specification:'sans-serif Bold';letter-spacing:0px;word-spacing:0px;fill:#000000;fill-opacity:1;stroke:none;stroke-width:1px;stroke-linecap:butt;stroke-linejoin:miter;stroke-opacity:1"
       x="479.62479"
       y="85.887329"
       id="text7443-9"
       sodipodi:linespacing="125%"><tspan
         sodipodi:role="line"
         id="tspan7445-0"
         x="479.62479"
         y="85.887329">p</tspan></text>
    <text
       xml:space="preserve"
       style="font-style:normal;font-variant:normal;font-weight:bold;font-stretch:normal;font-size:15px;line-height:125%;font-family:sans-serif;-inkscape-font-specification:'sans-serif Bold';letter-spacing:0px;word-spacing:0px;fill:#000000;fill-opacity:1;stroke:none;stroke-width:1px;stroke-linecap:butt;stroke-linejoin:miter;stroke-opacity:1"
       x="666.76764"
       y="85.880005"
       id="text7447-9"
       sodipodi:linespacing="125%"><tspan
         sodipodi:role="line"
         id="tspan7449-1"
         x="666.76764"
         y="85.880005">q</tspan></text>
    <text
       xml:space="preserve"
       style="font-style:normal;font-variant:normal;font-weight:bold;font-stretch:normal;font-size:15px;line-height:125%;font-family:sans-serif;-inkscape-font-specification:'sans-serif Bold';letter-spacing:0px;word-spacing:0px;fill:#000000;fill-opacity:1;stroke:none;stroke-width:1px;stroke-linecap:butt;stroke-linejoin:miter;stroke-opacity:1"
       x="500.58905"
       y="88.94519"
       id="text7451-7"
       sodipodi:linespacing="125%"><tspan
         sodipodi:role="line"
         id="tspan7453-7"
         x="500.58905"
         y="88.94519">i</tspan></text>
    <text
       xml:space="preserve"
       style="font-style:normal;font-variant:normal;font-weight:bold;font-stretch:normal;font-size:15px;line-height:125%;font-family:sans-serif;-inkscape-font-specification:'sans-serif Bold';letter-spacing:0px;word-spacing:0px;fill:#000000;fill-opacity:1;stroke:none;stroke-width:1px;stroke-linecap:butt;stroke-linejoin:miter;stroke-opacity:1"
       x="568.56805"
       y="87.326538"
       id="text7455-1"
       sodipodi:linespacing="125%"><tspan
         sodipodi:role="line"
         id="tspan7457-1"
         x="568.56805"
         y="87.326538">j</tspan></text>
    <g
       ns0:preamble=""
       ns0:text="$Q_{p+1, i-1}^{m2}$"
       word-spacing="normal"
       letter-spacing="normal"
       font-size-adjust="none"
       font-stretch="normal"
       font-weight="normal"
       font-variant="normal"
       font-style="normal"
       stroke-miterlimit="10.433"
       xml:space="preserve"
       transform="matrix(0.78833304,0,0,-0.78833304,-84.882914,623.63913)"
       id="g11281"
       style="font-style:normal;font-variant:normal;font-weight:normal;font-stretch:normal;letter-spacing:normal;word-spacing:normal;text-anchor:start;fill:none;fill-opacity:1;fill-rule:evenodd;stroke:#000000;stroke-linecap:butt;stroke-linejoin:miter;stroke-miterlimit:10.43299961;stroke-dasharray:none;stroke-dashoffset:0;stroke-opacity:1"><path
         id="path11283"
         d="m 227.8,707.18 0.14,0.06 0.14,0.07 0.15,0.07 0.14,0.08 0.14,0.08 0.14,0.09 0.13,0.1 0.14,0.1 0.13,0.11 0.13,0.11 0.12,0.12 0.13,0.12 0.12,0.13 0.11,0.13 0.11,0.13 0.11,0.14 0.1,0.15 0.1,0.14 0.09,0.16 0.09,0.15 0.08,0.16 0.08,0.16 0.07,0.16 0.06,0.17 0.06,0.17 0.05,0.17 0.04,0.17 0.04,0.17 0.03,0.18 0.02,0.18 0.01,0.18 0,0.18 c 0,1.6 -1.05,2.68 -2.54,2.68 l -0.05,-0.25 c 0.99,0 1.72,-0.78 1.72,-2.12 0,-0.99 -0.51,-3.32 -2.18,-4.26 -0.05,0.35 -0.15,1.08 -0.88,1.08 l 0,-0.22 c 0.42,0 0.61,-0.24 0.61,-0.85 0,-0.15 -0.01,-0.16 -0.11,-0.2 -0.26,-0.11 -0.56,-0.18 -0.84,-0.18 l 0,0 c -0.14,0 -0.46,0 -0.46,0.43 0,0.4 0.38,0.8 0.8,0.8 l 0,0.22 c -0.53,0 -1.02,-0.5 -1.02,-1.02 0,-0.2 0.06,-0.31 0.06,-0.32 l 0,0 c -0.77,0.31 -1.11,1.09 -1.11,1.98 0,0.69 0.26,2.11 1.01,3.18 0.73,1.02 1.67,1.48 2.4,1.48 l 0.05,0.25 c -2.15,0 -4.34,-2.26 -4.34,-4.59 0,-1.65 1.12,-2.66 2.55,-2.66 0.25,0 0.59,0.04 0.98,0.15 -0.04,-0.62 -0.04,-0.64 -0.04,-0.76 0,-0.32 0,-1.1 0.82,-1.1 1.19,0 1.67,1.82 1.67,1.93 0,0.07 -0.07,0.1 -0.11,0.1 -0.08,0 -0.1,-0.05 -0.12,-0.11 -0.24,-0.7 -0.82,-0.95 -1.17,-0.95 -0.46,0 -0.6,0.26 -0.7,1.02 z"
         inkscape:connector-curvature="0"
         style="fill:#000000;stroke-width:0" /><path
         id="path11285"
         d="m 234.33,711.3 0,-0.01 0,-0.02 -0.01,-0.01 0,-0.01 0,-0.02 -0.01,-0.01 -0.01,-0.04 0,-0.03 -0.01,-0.03 -0.01,-0.03 0,-0.02 -0.01,-0.01 0,-0.02 -0.01,-0.01 0,-0.02 0,-0.01 -0.01,-0.01 0,-0.02 0,-0.01 0,-0.01 -0.01,-0.01 0,-0.01 0,-0.01 0,-0.01 0,0 0,-0.01 0,-0.01 0,0 c 0,-0.15 0.12,-0.22 0.23,-0.22 0.13,0 0.24,0.09 0.28,0.15 0.03,0.06 0.09,0.29 0.12,0.43 0.04,0.14 0.11,0.46 0.15,0.63 0.05,0.15 0.09,0.31 0.12,0.47 0.08,0.3 0.08,0.31 0.22,0.53 0.22,0.34 0.57,0.74 1.12,0.74 0.39,0 0.41,-0.32 0.41,-0.49 0,-0.42 -0.3,-1.19 -0.41,-1.49 -0.08,-0.19 -0.11,-0.25 -0.11,-0.37 0,-0.37 0.31,-0.6 0.66,-0.6 0.7,0 1.01,0.96 1.01,1.06 0,0.1 -0.09,0.1 -0.11,0.1 -0.1,0 -0.11,-0.05 -0.14,-0.12 -0.16,-0.56 -0.46,-0.85 -0.74,-0.85 -0.14,0 -0.17,0.1 -0.17,0.25 0,0.16 0.03,0.25 0.16,0.56 0.08,0.22 0.37,0.96 0.37,1.35 0,0.11 0,0.4 -0.26,0.6 -0.12,0.1 -0.32,0.19 -0.65,0.19 -0.62,0 -1.01,-0.41 -1.23,-0.7 -0.06,0.59 -0.55,0.7 -0.91,0.7 -0.58,0 -0.97,-0.35 -1.18,-0.63 -0.05,0.48 -0.46,0.63 -0.74,0.63 -0.3,0 -0.46,-0.21 -0.55,-0.37 -0.16,-0.26 -0.26,-0.66 -0.26,-0.69 0,-0.09 0.1,-0.09 0.12,-0.09 0.1,0 0.11,0.02 0.16,0.2 0.1,0.42 0.23,0.76 0.51,0.76 0.18,0 0.23,-0.16 0.23,-0.34 0,-0.14 -0.07,-0.39 -0.11,-0.58 -0.05,-0.19 -0.12,-0.48 -0.16,-0.63 l -0.22,-0.89 c -0.03,-0.09 -0.07,-0.27 -0.07,-0.29 0,-0.15 0.12,-0.22 0.24,-0.22 0.12,0 0.23,0.09 0.27,0.15 0.03,0.06 0.09,0.29 0.12,0.43 0.04,0.14 0.12,0.46 0.16,0.63 0.04,0.15 0.08,0.31 0.11,0.47 0.08,0.28 0.1,0.34 0.3,0.63 0.19,0.28 0.52,0.64 1.04,0.64 0.41,0 0.42,-0.36 0.42,-0.49 0,-0.17 -0.02,-0.27 -0.12,-0.66 z"
         inkscape:connector-curvature="0"
         style="fill:#000000;stroke-width:0" /><path
         id="path11287"
         d="m 241.9,712.01 -0.24,0 c -0.02,-0.16 -0.09,-0.57 -0.18,-0.64 -0.05,-0.04 -0.59,-0.04 -0.69,-0.04 l -1.28,0 c 0.73,0.65 0.98,0.84 1.39,1.17 0.52,0.41 1,0.85 1,1.51 0,0.84 -0.74,1.36 -1.63,1.36 -0.87,0 -1.45,-0.61 -1.45,-1.25 0,-0.36 0.3,-0.39 0.37,-0.39 0.17,0 0.37,0.12 0.37,0.37 0,0.12 -0.05,0.37 -0.41,0.37 0.21,0.49 0.69,0.65 1.01,0.65 0.7,0 1.07,-0.55 1.07,-1.11 0,-0.61 -0.44,-1.09 -0.66,-1.34 l -1.68,-1.66 c -0.07,-0.06 -0.07,-0.08 -0.07,-0.27 l 2.87,0 z"
         inkscape:connector-curvature="0"
         style="fill:#000000;stroke-width:0" /><path
         id="path11289"
         d="m 231.83,703.68 0,-0.01 -0.01,-0.02 0,-0.02 -0.01,-0.01 0,-0.02 0,-0.01 -0.01,-0.01 0,-0.02 -0.01,-0.01 0,-0.01 -0.01,-0.01 -0.01,-0.01 0,-0.01 -0.01,-0.01 -0.01,-0.01 0,0 -0.01,-0.01 -0.01,-0.01 -0.01,0 -0.01,-0.01 -0.02,0 -0.01,-0.01 -0.01,0 -0.02,-0.01 -0.01,0 -0.01,0 -0.01,0 -0.01,0 -0.01,0 -0.01,0 -0.01,0 -0.01,0 -0.01,-0.01 -0.01,0 -0.01,0 -0.01,0 -0.02,0 -0.01,0 -0.01,0 c -0.09,0 -0.19,0 -0.19,-0.14 0,-0.08 0.06,-0.11 0.1,-0.11 0.18,0 0.41,0.03 0.6,0.03 0.24,0 0.5,-0.03 0.73,-0.03 0.06,0 0.14,0.02 0.14,0.16 0,0.09 -0.1,0.09 -0.18,0.09 -0.15,0 -0.34,0 -0.34,0.09 0,0.03 0.05,0.21 0.07,0.32 0.09,0.37 0.18,0.74 0.26,1.04 0.08,-0.14 0.3,-0.41 0.72,-0.41 l 0,0.19 c -0.5,0 -0.62,0.54 -0.62,0.61 0,0.02 0.01,0.07 0.02,0.1 l 0.35,1.4 c 0.4,0.54 0.75,0.64 0.97,0.64 0.28,0 0.51,-0.2 0.51,-0.67 0,-0.29 -0.15,-1 -0.36,-1.4 -0.17,-0.35 -0.51,-0.68 -0.87,-0.68 l 0,-0.19 c 0.85,0 1.79,0.94 1.79,1.98 0,0.81 -0.56,1.16 -1.04,1.16 -0.44,0 -0.81,-0.29 -0.99,-0.49 -0.12,0.4 -0.51,0.49 -0.72,0.49 -0.28,0 -0.44,-0.18 -0.55,-0.37 -0.14,-0.24 -0.26,-0.65 -0.26,-0.7 0,-0.09 0.1,-0.09 0.12,-0.09 0.1,0 0.11,0.02 0.16,0.21 0.1,0.41 0.23,0.75 0.51,0.75 0.18,0 0.23,-0.15 0.23,-0.34 0,-0.07 -0.02,-0.16 -0.02,-0.21 z"
         inkscape:connector-curvature="0"
         style="fill:#000000;stroke-width:0" /><path
         id="path11291"
         d="m 238.65,706.11 2.13,0 c 0.09,0 0.26,0 0.26,0.17 0,0.17 -0.16,0.17 -0.26,0.17 l -2.13,0 0,2.14 c 0,0.09 0,0.26 -0.17,0.26 -0.18,0 -0.18,-0.16 -0.18,-0.26 l 0,-2.14 -2.14,0 c -0.09,0 -0.25,0 -0.25,-0.17 0,-0.17 0.16,-0.17 0.25,-0.17 l 2.14,0 0,-2.14 c 0,-0.09 0,-0.26 0.17,-0.26 0.18,0 0.18,0.16 0.18,0.26 z"
         inkscape:connector-curvature="0"
         style="fill:#000000;stroke-width:0" /><path
         id="path11293"
         d="m 243.87,708.97 0,0.01 0,0.01 0,0.01 0,0 0,0.01 0,0.01 0,0.01 0,0 -0.01,0.01 0,0.01 0,0 0,0.01 0,0 0,0.01 0,0.01 0,0 0,0.01 0,0 0,0.01 -0.01,0.01 0,0.01 0,0 -0.01,0.01 0,0 -0.01,0.01 0,0 -0.01,0.01 0,0 -0.01,0 -0.01,0.01 -0.01,0 -0.01,0 0,0 -0.01,0 0,0 -0.01,0 -0.01,0 0,0 -0.01,0 0,0 -0.01,0.01 -0.01,0 -0.01,0 0,0 -0.01,0 -0.01,0 -0.01,0 -0.01,0 0,0 -0.01,0 c -0.45,-0.44 -1.08,-0.45 -1.37,-0.45 l 0,-0.25 c 0.17,0 0.63,0 1.01,0.19 l 0,-3.55 c 0,-0.23 0,-0.32 -0.7,-0.32 l -0.26,0 0,-0.26 c 0.12,0.01 0.98,0.03 1.24,0.03 0.22,0 1.1,-0.02 1.25,-0.03 l 0,0.26 -0.27,0 c -0.69,0 -0.69,0.09 -0.69,0.32 z"
         inkscape:connector-curvature="0"
         style="fill:#000000;stroke-width:0" /><path
         id="path11295"
         d="m 246.98,704.65 0,-0.08 -0.01,-0.07 0,-0.08 -0.01,-0.07 -0.01,-0.04 0,-0.04 -0.01,-0.04 -0.01,-0.04 -0.01,-0.04 -0.01,-0.04 -0.01,-0.04 -0.02,-0.04 -0.01,-0.04 -0.02,-0.04 -0.02,-0.04 -0.02,-0.04 -0.02,-0.04 -0.02,-0.04 -0.03,-0.04 -0.02,-0.05 -0.03,-0.04 -0.03,-0.04 -0.03,-0.04 -0.04,-0.04 -0.03,-0.04 -0.04,-0.05 -0.04,-0.04 -0.05,-0.04 c -0.03,-0.03 -0.05,-0.05 -0.05,-0.08 0,-0.05 0.06,-0.1 0.1,-0.1 0.1,0 0.69,0.56 0.69,1.39 0,0.43 -0.17,0.76 -0.49,0.76 -0.23,0 -0.39,-0.18 -0.39,-0.4 0,-0.22 0.16,-0.41 0.4,-0.41 0.17,0 0.28,0.12 0.29,0.12 z"
         inkscape:connector-curvature="0"
         style="fill:#000000;stroke-width:0" /><path
         id="path11297"
         d="m 250.13,708.89 0,0.01 0,0.02 -0.01,0.01 0,0.01 0,0.01 0,0.01 -0.01,0.01 0,0.01 0,0.01 -0.01,0.01 0,0.02 -0.01,0.01 -0.01,0.01 0,0.01 -0.01,0.01 -0.01,0.01 -0.01,0.01 -0.01,0.01 -0.01,0.01 -0.01,0 -0.01,0.01 -0.01,0.01 -0.01,0.01 -0.02,0 -0.01,0.01 -0.01,0 -0.02,0.01 -0.01,0 -0.02,0.01 -0.02,0 -0.01,0 -0.02,0 c -0.19,0 -0.39,-0.18 -0.39,-0.38 0,-0.12 0.09,-0.27 0.28,-0.27 0.2,0 0.39,0.2 0.39,0.38 z"
         inkscape:connector-curvature="0"
         style="fill:#000000;stroke-width:0" /><path
         id="path11299"
         d="m 248.7,705.35 0,-0.02 -0.01,-0.01 -0.01,-0.04 0,-0.01 -0.01,-0.02 0,-0.02 -0.01,-0.01 0,-0.02 -0.01,-0.02 0,-0.02 0,-0.02 0,-0.01 0,-0.01 -0.01,-0.01 0,-0.01 0,-0.01 0,-0.01 0,-0.01 0,-0.01 c 0,-0.33 0.28,-0.59 0.66,-0.59 0.7,0 1.01,0.96 1.01,1.06 0,0.09 -0.09,0.09 -0.11,0.09 -0.1,0 -0.11,-0.04 -0.14,-0.12 -0.16,-0.55 -0.46,-0.84 -0.74,-0.84 -0.13,0 -0.17,0.09 -0.17,0.25 0,0.16 0.05,0.29 0.11,0.44 0.07,0.19 0.15,0.38 0.23,0.56 0.06,0.17 0.31,0.8 0.34,0.88 0.02,0.07 0.04,0.16 0.04,0.23 0,0.32 -0.28,0.59 -0.66,0.59 -0.69,0 -1.01,-0.95 -1.01,-1.07 0,-0.09 0.09,-0.09 0.11,-0.09 0.1,0 0.11,0.04 0.13,0.11 0.18,0.6 0.49,0.85 0.75,0.85 0.11,0 0.17,-0.05 0.17,-0.24 0,-0.16 -0.04,-0.26 -0.22,-0.7 z"
         inkscape:connector-curvature="0"
         style="fill:#000000;stroke-width:0" /><path
         id="path11301"
         d="m 255.88,706.11 0.01,0 0.01,0 0.01,0 0.01,0 0.02,0 0.02,0 0.01,0 0.01,0 0.01,0.01 0.01,0 0.01,0 0.01,0 0.02,0.01 0.01,0 0.01,0 0.01,0.01 0.01,0 0.01,0.01 0.01,0 0,0.01 0.01,0.01 0.01,0 0,0.01 0.01,0 0,0.01 0,0 0.01,0.01 0,0 0,0.01 0,0 0.01,0.01 0,0 0,0.01 0,0.01 0,0 0,0.01 0,0.01 0,0 0,0.01 0,0.01 c 0,0.17 -0.16,0.17 -0.27,0.17 l -4.16,0 c -0.11,0 -0.28,0 -0.28,-0.17 0,-0.17 0.16,-0.17 0.28,-0.17 z"
         inkscape:connector-curvature="0"
         style="fill:#000000;stroke-width:0" /><path
         id="path11303"
         d="m 259.25,708.97 0,0.01 0,0.01 0,0.01 0,0 0,0.01 0,0.01 0,0.01 0,0 0,0.01 0,0.01 0,0 0,0.01 0,0 0,0.01 -0.01,0.01 0,0 0,0.01 0,0 0,0.01 0,0.01 -0.01,0.01 0,0 0,0.01 -0.01,0 0,0.01 -0.01,0 0,0.01 -0.01,0 -0.01,0 -0.01,0.01 -0.01,0 0,0 -0.01,0 -0.01,0 0,0 -0.01,0 0,0 -0.01,0 0,0 -0.01,0 -0.01,0.01 -0.01,0 0,0 -0.01,0 -0.01,0 -0.01,0 0,0 -0.01,0 -0.01,0 -0.01,0 c -0.45,-0.44 -1.08,-0.45 -1.37,-0.45 l 0,-0.25 c 0.17,0 0.63,0 1.01,0.19 l 0,-3.55 c 0,-0.23 0,-0.32 -0.69,-0.32 l -0.27,0 0,-0.26 c 0.13,0.01 0.98,0.03 1.24,0.03 0.22,0 1.1,-0.02 1.25,-0.03 l 0,0.26 -0.26,0 c -0.7,0 -0.7,0.09 -0.7,0.32 z"
         inkscape:connector-curvature="0"
         style="fill:#000000;stroke-width:0" /></g>    <g
       style="font-style:normal;font-variant:normal;font-weight:normal;font-stretch:normal;letter-spacing:normal;word-spacing:normal;text-anchor:start;fill:none;fill-opacity:1;fill-rule:evenodd;stroke:#000000;stroke-linecap:butt;stroke-linejoin:miter;stroke-miterlimit:10.43299961;stroke-dasharray:none;stroke-dashoffset:0;stroke-opacity:1"
       id="g11047"
       transform="matrix(0.79478372,0,0,-0.79478372,424.17174,628.31289)"
       xml:space="preserve"
       stroke-miterlimit="10.433"
       font-style="normal"
       font-variant="normal"
       font-weight="normal"
       font-stretch="normal"
       font-size-adjust="none"
       letter-spacing="normal"
       word-spacing="normal"
       ns0:text="$Q_{j+1,q-1}^{m2}$"
       ns0:preamble=""><path
         style="fill:#000000;stroke-width:0"
         inkscape:connector-curvature="0"
         d="m 227.8,707.18 0.14,0.06 0.14,0.07 0.15,0.07 0.14,0.08 0.14,0.08 0.14,0.09 0.13,0.1 0.14,0.1 0.13,0.11 0.13,0.11 0.12,0.12 0.13,0.12 0.12,0.13 0.11,0.13 0.11,0.13 0.11,0.14 0.1,0.15 0.1,0.14 0.09,0.16 0.09,0.15 0.08,0.16 0.08,0.16 0.07,0.16 0.06,0.17 0.06,0.17 0.05,0.17 0.04,0.17 0.04,0.17 0.03,0.18 0.02,0.18 0.01,0.18 0,0.18 c 0,1.6 -1.05,2.68 -2.54,2.68 l -0.05,-0.25 c 0.99,0 1.72,-0.78 1.72,-2.12 0,-0.99 -0.51,-3.32 -2.18,-4.26 -0.05,0.35 -0.15,1.08 -0.88,1.08 l 0,-0.22 c 0.42,0 0.61,-0.24 0.61,-0.85 0,-0.15 -0.01,-0.16 -0.11,-0.2 -0.26,-0.11 -0.56,-0.18 -0.84,-0.18 l 0,0 c -0.14,0 -0.46,0 -0.46,0.43 0,0.4 0.38,0.8 0.8,0.8 l 0,0.22 c -0.53,0 -1.02,-0.5 -1.02,-1.02 0,-0.2 0.06,-0.31 0.06,-0.32 l 0,0 c -0.77,0.31 -1.11,1.09 -1.11,1.98 0,0.69 0.26,2.11 1.01,3.18 0.73,1.02 1.67,1.48 2.4,1.48 l 0.05,0.25 c -2.15,0 -4.34,-2.26 -4.34,-4.59 0,-1.65 1.12,-2.66 2.55,-2.66 0.25,0 0.59,0.04 0.98,0.15 -0.04,-0.62 -0.04,-0.64 -0.04,-0.76 0,-0.32 0,-1.1 0.82,-1.1 1.19,0 1.67,1.82 1.67,1.93 0,0.07 -0.07,0.1 -0.11,0.1 -0.08,0 -0.1,-0.05 -0.12,-0.11 -0.24,-0.7 -0.82,-0.95 -1.17,-0.95 -0.46,0 -0.6,0.26 -0.7,1.02 z"
         id="path11049" /><path
         style="fill:#000000;stroke-width:0"
         inkscape:connector-curvature="0"
         d="m 234.33,711.3 0,-0.01 0,-0.02 -0.01,-0.01 0,-0.01 0,-0.02 -0.01,-0.01 -0.01,-0.04 0,-0.03 -0.01,-0.03 -0.01,-0.03 0,-0.02 -0.01,-0.01 0,-0.02 -0.01,-0.01 0,-0.02 0,-0.01 -0.01,-0.01 0,-0.02 0,-0.01 0,-0.01 -0.01,-0.01 0,-0.01 0,-0.01 0,-0.01 0,0 0,-0.01 0,-0.01 0,0 c 0,-0.15 0.12,-0.22 0.23,-0.22 0.13,0 0.24,0.09 0.28,0.15 0.03,0.06 0.09,0.29 0.12,0.43 0.04,0.14 0.11,0.46 0.15,0.63 0.05,0.15 0.09,0.31 0.12,0.47 0.08,0.3 0.08,0.31 0.22,0.53 0.22,0.34 0.57,0.74 1.12,0.74 0.39,0 0.41,-0.32 0.41,-0.49 0,-0.42 -0.3,-1.19 -0.41,-1.49 -0.08,-0.19 -0.11,-0.25 -0.11,-0.37 0,-0.37 0.31,-0.6 0.66,-0.6 0.7,0 1.01,0.96 1.01,1.06 0,0.1 -0.09,0.1 -0.11,0.1 -0.1,0 -0.11,-0.05 -0.14,-0.12 -0.16,-0.56 -0.46,-0.85 -0.74,-0.85 -0.14,0 -0.17,0.1 -0.17,0.25 0,0.16 0.03,0.25 0.16,0.56 0.08,0.22 0.37,0.96 0.37,1.35 0,0.11 0,0.4 -0.26,0.6 -0.12,0.1 -0.32,0.19 -0.65,0.19 -0.62,0 -1.01,-0.41 -1.23,-0.7 -0.06,0.59 -0.55,0.7 -0.91,0.7 -0.58,0 -0.97,-0.35 -1.18,-0.63 -0.05,0.48 -0.46,0.63 -0.74,0.63 -0.3,0 -0.46,-0.21 -0.55,-0.37 -0.16,-0.26 -0.26,-0.66 -0.26,-0.69 0,-0.09 0.1,-0.09 0.12,-0.09 0.1,0 0.11,0.02 0.16,0.2 0.1,0.42 0.23,0.76 0.51,0.76 0.18,0 0.23,-0.16 0.23,-0.34 0,-0.14 -0.07,-0.39 -0.11,-0.58 -0.05,-0.19 -0.12,-0.48 -0.16,-0.63 l -0.22,-0.89 c -0.03,-0.09 -0.07,-0.27 -0.07,-0.29 0,-0.15 0.12,-0.22 0.24,-0.22 0.12,0 0.23,0.09 0.27,0.15 0.03,0.06 0.09,0.29 0.12,0.43 0.04,0.14 0.12,0.46 0.16,0.63 0.04,0.15 0.08,0.31 0.11,0.47 0.08,0.28 0.1,0.34 0.3,0.63 0.19,0.28 0.52,0.64 1.04,0.64 0.41,0 0.42,-0.36 0.42,-0.49 0,-0.17 -0.02,-0.27 -0.12,-0.66 z"
         id="path11051" /><path
         style="fill:#000000;stroke-width:0"
         inkscape:connector-curvature="0"
         d="m 241.9,712.01 -0.24,0 c -0.02,-0.16 -0.09,-0.57 -0.18,-0.64 -0.05,-0.04 -0.59,-0.04 -0.69,-0.04 l -1.28,0 c 0.73,0.65 0.98,0.84 1.39,1.17 0.52,0.41 1,0.85 1,1.51 0,0.84 -0.74,1.36 -1.63,1.36 -0.87,0 -1.45,-0.61 -1.45,-1.25 0,-0.36 0.3,-0.39 0.37,-0.39 0.17,0 0.37,0.12 0.37,0.37 0,0.12 -0.05,0.37 -0.41,0.37 0.21,0.49 0.69,0.65 1.01,0.65 0.7,0 1.07,-0.55 1.07,-1.11 0,-0.61 -0.44,-1.09 -0.66,-1.34 l -1.68,-1.66 c -0.07,-0.06 -0.07,-0.08 -0.07,-0.27 l 2.87,0 z"
         id="path11053" /><path
         style="fill:#000000;stroke-width:0"
         inkscape:connector-curvature="0"
         d="m 234.37,708.89 0,0.02 0,0.01 0,0.01 -0.01,0.01 0,0.01 0,0.01 0,0.01 -0.01,0.02 0,0.01 -0.01,0.01 0,0.01 -0.01,0.01 -0.01,0.01 0,0.01 -0.01,0.01 -0.01,0.01 -0.01,0.01 -0.01,0.01 -0.01,0.01 -0.01,0.01 -0.01,0 -0.01,0.01 -0.01,0.01 -0.02,0 -0.01,0.01 -0.01,0 -0.02,0.01 -0.01,0 -0.02,0.01 -0.02,0 -0.01,0 -0.02,0 c -0.2,0 -0.39,-0.2 -0.39,-0.38 0,-0.12 0.08,-0.27 0.28,-0.27 0.19,0 0.39,0.18 0.39,0.38 z"
         id="path11055" /><path
         style="fill:#000000;stroke-width:0"
         inkscape:connector-curvature="0"
         d="m 232.89,704.19 -0.01,-0.04 -0.01,-0.05 -0.02,-0.04 -0.01,-0.04 -0.02,-0.05 -0.02,-0.04 -0.02,-0.04 -0.02,-0.04 -0.02,-0.04 -0.03,-0.04 -0.02,-0.03 -0.03,-0.04 -0.02,-0.03 -0.03,-0.04 -0.03,-0.03 -0.03,-0.03 -0.03,-0.03 -0.03,-0.03 -0.03,-0.02 -0.03,-0.03 -0.04,-0.02 -0.03,-0.02 -0.04,-0.02 -0.03,-0.02 -0.04,-0.02 -0.03,-0.01 -0.04,-0.01 -0.04,-0.01 -0.03,-0.01 -0.04,-0.01 -0.04,0 -0.04,0 c -0.09,0 -0.17,0.01 -0.25,0.04 0.18,0.08 0.24,0.25 0.24,0.36 0,0.16 -0.14,0.25 -0.27,0.25 -0.22,0 -0.4,-0.18 -0.4,-0.41 0,-0.26 0.27,-0.44 0.69,-0.44 0.42,0 1.23,0.25 1.45,1.1 l 0.63,2.5 c 0.02,0.08 0.03,0.14 0.03,0.25 0,0.38 -0.33,0.65 -0.74,0.65 -0.78,0 -1.23,-0.97 -1.23,-1.07 0,-0.09 0.1,-0.09 0.12,-0.09 0.09,0 0.09,0.02 0.14,0.13 0.18,0.4 0.54,0.83 0.94,0.83 0.18,0 0.24,-0.11 0.24,-0.34 0,-0.07 -0.01,-0.17 -0.02,-0.21 z"
         id="path11057" /><path
         style="fill:#000000;stroke-width:0"
         inkscape:connector-curvature="0"
         d="m 238.23,706.11 2.14,0 c 0.09,0 0.26,0 0.26,0.17 0,0.17 -0.17,0.17 -0.26,0.17 l -2.14,0 0,2.14 c 0,0.09 0,0.26 -0.16,0.26 -0.18,0 -0.18,-0.16 -0.18,-0.26 l 0,-2.14 -2.14,0 c -0.09,0 -0.26,0 -0.26,-0.17 0,-0.17 0.16,-0.17 0.26,-0.17 l 2.14,0 0,-2.14 c 0,-0.09 0,-0.26 0.17,-0.26 0.17,0 0.17,0.16 0.17,0.26 z"
         id="path11059" /><path
         style="fill:#000000;stroke-width:0"
         inkscape:connector-curvature="0"
         d="m 243.46,708.97 0,0.01 0,0.01 0,0.01 0,0 0,0.01 0,0.01 0,0.01 0,0 0,0.01 0,0.01 0,0 0,0.01 0,0 0,0.01 0,0.01 0,0 -0.01,0.01 0,0 0,0.01 0,0.01 0,0.01 -0.01,0 0,0.01 -0.01,0 0,0.01 -0.01,0 0,0.01 -0.01,0 -0.01,0 0,0.01 -0.01,0 -0.01,0 -0.01,0 0,0 -0.01,0 0,0 -0.01,0 -0.01,0 0,0 -0.01,0 -0.01,0.01 0,0 -0.01,0 -0.01,0 -0.01,0 0,0 -0.01,0 -0.01,0 -0.01,0 -0.01,0 c -0.44,-0.44 -1.08,-0.45 -1.37,-0.45 l 0,-0.25 c 0.17,0 0.63,0 1.02,0.19 l 0,-3.55 c 0,-0.23 0,-0.32 -0.7,-0.32 l -0.27,0 0,-0.26 c 0.13,0.01 0.99,0.03 1.25,0.03 0.21,0 1.09,-0.02 1.24,-0.03 l 0,0.26 -0.26,0 c -0.7,0 -0.7,0.09 -0.7,0.32 z"
         id="path11061" /><path
         style="fill:#000000;stroke-width:0"
         inkscape:connector-curvature="0"
         d="m 246.56,704.65 0,-0.08 0,-0.07 -0.01,-0.08 0,-0.07 -0.01,-0.04 -0.01,-0.04 0,-0.04 -0.01,-0.04 -0.01,-0.04 -0.01,-0.04 -0.02,-0.04 -0.01,-0.04 -0.02,-0.04 -0.01,-0.04 -0.02,-0.04 -0.02,-0.04 -0.02,-0.04 -0.02,-0.04 -0.03,-0.04 -0.03,-0.05 -0.02,-0.04 -0.03,-0.04 -0.04,-0.04 -0.03,-0.04 -0.04,-0.04 -0.04,-0.05 -0.04,-0.04 -0.04,-0.04 c -0.03,-0.03 -0.05,-0.05 -0.05,-0.08 0,-0.05 0.06,-0.1 0.1,-0.1 0.1,0 0.69,0.56 0.69,1.39 0,0.43 -0.17,0.76 -0.49,0.76 -0.23,0 -0.4,-0.18 -0.4,-0.4 0,-0.22 0.16,-0.41 0.41,-0.41 0.17,0 0.28,0.12 0.28,0.12 z"
         id="path11063" /><path
         style="fill:#000000;stroke-width:0"
         inkscape:connector-curvature="0"
         d="m 251.01,707.41 0,0 0,0 0,0.01 0.01,0.01 0,0 0,0.01 0,0 0,0.01 0,0.01 0,0 0,0.01 0,0.01 0,0.01 0.01,0 0,0.01 0,0.01 0,0 c 0,0.04 -0.03,0.1 -0.1,0.1 -0.06,0 -0.36,-0.24 -0.5,-0.46 -0.07,0.14 -0.3,0.46 -0.74,0.46 l 0,-0.2 c 0.49,0 0.62,-0.53 0.62,-0.6 0,-0.04 -0.02,-0.08 -0.02,-0.11 l -0.33,-1.29 c -0.04,-0.12 -0.04,-0.13 -0.13,-0.24 -0.27,-0.32 -0.6,-0.51 -0.87,-0.51 -0.26,0 -0.51,0.18 -0.51,0.68 0,0.37 0.2,1.13 0.37,1.41 0.32,0.56 0.67,0.66 0.87,0.66 l 0,0.2 c -0.9,0 -1.8,-0.98 -1.8,-1.99 0,-0.67 0.45,-1.15 1.05,-1.15 0.4,0 0.73,0.25 0.88,0.38 -0.01,-0.02 -0.22,-0.9 -0.25,-1.02 -0.1,-0.38 -0.11,-0.39 -0.54,-0.4 -0.08,0 -0.18,0 -0.18,-0.15 0,-0.04 0.03,-0.1 0.11,-0.1 0.22,0 0.48,0.03 0.72,0.03 0.24,0 0.53,-0.03 0.75,-0.03 0.06,0 0.14,0.02 0.14,0.16 0,0.09 -0.1,0.09 -0.19,0.09 -0.15,0 -0.34,0 -0.34,0.09 0,0.02 0,0.03 0.04,0.15 z"
         id="path11065" /><path
         style="fill:#000000;stroke-width:0"
         inkscape:connector-curvature="0"
         d="m 256.55,706.11 0.01,0 0.01,0 0.01,0 0.02,0 0.02,0 0.01,0 0.01,0 0.01,0 0.02,0.01 0.01,0 0.01,0 0.01,0 0.01,0.01 0.01,0 0.01,0 0.01,0.01 0.01,0 0.01,0.01 0.01,0 0.01,0.01 0.01,0.01 0.01,0 0,0.01 0,0 0.01,0.01 0,0 0,0.01 0,0 0.01,0.01 0,0 0,0.01 0,0 0,0.01 0.01,0.01 0,0 0,0.01 0,0.01 0,0 0,0.01 0,0.01 c 0,0.17 -0.16,0.17 -0.28,0.17 l -4.15,0 c -0.12,0 -0.28,0 -0.28,-0.17 0,-0.17 0.16,-0.17 0.28,-0.17 z"
         id="path11067" /><path
         style="fill:#000000;stroke-width:0"
         inkscape:connector-curvature="0"
         d="m 259.92,708.97 0,0.01 0,0.01 0,0.01 0,0 0,0.01 0,0.01 0,0.01 0,0 0,0.01 0,0.01 0,0 0,0.01 0,0 0,0.01 0,0.01 0,0 0,0.01 0,0 -0.01,0.01 0,0.01 0,0.01 0,0 -0.01,0.01 0,0 -0.01,0.01 0,0 -0.01,0.01 -0.01,0 0,0 -0.01,0.01 -0.01,0 -0.01,0 0,0 -0.01,0 -0.01,0 0,0 -0.01,0 0,0 -0.01,0 -0.01,0 0,0.01 -0.01,0 -0.01,0 0,0 -0.01,0 -0.01,0 -0.01,0 -0.01,0 -0.01,0 -0.01,0 c -0.44,-0.44 -1.08,-0.45 -1.36,-0.45 l 0,-0.25 c 0.17,0 0.63,0 1.01,0.19 l 0,-3.55 c 0,-0.23 0,-0.32 -0.7,-0.32 l -0.26,0 0,-0.26 c 0.12,0.01 0.98,0.03 1.24,0.03 0.21,0 1.09,-0.02 1.25,-0.03 l 0,0.26 -0.27,0 c -0.7,0 -0.7,0.09 -0.7,0.32 z"
         id="path11069" /></g>    <path
       inkscape:connector-curvature="0"
       id="path6813-5-9"
       d="m 508.56356,70.892297 57.16514,0"
       style="fill:none;fill-rule:evenodd;stroke:#00ffff;stroke-width:2.20000005;stroke-linecap:butt;stroke-linejoin:miter;stroke-miterlimit:4;stroke-dasharray:none;stroke-opacity:1" />
  </g>
</svg>
