<?xml version="1.0" encoding="UTF-8" standalone="no"?>
<!-- Created with Inkscape (http://www.inkscape.org/) -->

<svg
   xmlns:ns0="http://www.iki.fi/pav/software/textext/"
   xmlns:dc="http://purl.org/dc/elements/1.1/"
   xmlns:cc="http://creativecommons.org/ns#"
   xmlns:rdf="http://www.w3.org/1999/02/22-rdf-syntax-ns#"
   xmlns:svg="http://www.w3.org/2000/svg"
   xmlns="http://www.w3.org/2000/svg"
   xmlns:sodipodi="http://sodipodi.sourceforge.net/DTD/sodipodi-0.dtd"
   xmlns:inkscape="http://www.inkscape.org/namespaces/inkscape"
   width="72.627632mm"
   height="12.757121mm"
   viewBox="0 0 257.342 45.202397"
   id="svg8820"
   version="1.1"
   inkscape:version="0.91 r13725"
   sodipodi:docname="UNO.svg">
  <sodipodi:namedview
     id="base"
     pagecolor="#ffffff"
     bordercolor="#666666"
     borderopacity="1.0"
     inkscape:pageopacity="0.0"
     inkscape:pageshadow="2"
     inkscape:zoom="2.8"
     inkscape:cx="116.91406"
     inkscape:cy="51.356509"
     inkscape:document-units="px"
     inkscape:current-layer="layer1"
     showgrid="false"
     inkscape:window-width="1855"
     inkscape:window-height="1056"
     inkscape:window-x="65"
     inkscape:window-y="24"
     inkscape:window-maximized="1"
     fit-margin-top="0"
     fit-margin-left="0"
     fit-margin-right="0"
     fit-margin-bottom="0" />
  <defs
     id="defs8822">
    <marker
       inkscape:stockid="DotM"
       orient="auto"
       refY="0"
       refX="0"
       id="DotM"
       style="overflow:visible"
       inkscape:isstock="true">
      <path
         id="path9442"
         d="m -2.5,-1 c 0,2.76 -2.24,5 -5,5 -2.76,0 -5,-2.24 -5,-5 0,-2.76 2.24,-5 5,-5 2.76,0 5,2.24 5,5 z"
         style="fill:#000000;fill-opacity:1;fill-rule:evenodd;stroke:#000000;stroke-width:1pt;stroke-opacity:1"
         transform="matrix(0.4,0,0,0.4,2.96,0.4)"
         inkscape:connector-curvature="0" />
    </marker>
  </defs>
  <metadata
     id="metadata8825">
    <rdf:RDF>
      <cc:Work
         rdf:about="">
        <dc:format>image/svg+xml</dc:format>
        <dc:type
           rdf:resource="http://purl.org/dc/dcmitype/StillImage" />
        <dc:title></dc:title>
      </cc:Work>
    </rdf:RDF>
  </metadata>
  <g
     inkscape:label="Layer 1"
     inkscape:groupmode="layer"
     id="layer1"
     transform="translate(-27.049036,-74.861399)">
    <path
       style="fill:none;fill-rule:evenodd;stroke:#000000;stroke-width:2;stroke-linecap:butt;stroke-linejoin:miter;stroke-miterlimit:4;stroke-dasharray:none;stroke-opacity:1;marker-start:url(#DotM);marker-end:url(#DotM)"
       d="m 36.870568,98.778201 238.396002,0"
       id="path9372"
       inkscape:connector-curvature="0" />
    <circle
       style="fill:#000000;fill-opacity:1;stroke:#000000;stroke-width:1.07177877;stroke-miterlimit:4;stroke-dasharray:none;stroke-dashoffset:0;stroke-opacity:1"
       id="path9672"
       cx="215.53052"
       cy="98.395493"
       r="3.9641106" />
    <circle
       style="fill:#000000;fill-opacity:1;stroke:#000000;stroke-width:1.07177877;stroke-miterlimit:4;stroke-dasharray:none;stroke-dashoffset:0;stroke-opacity:1"
       id="path9672-2"
       cx="98.530479"
       cy="98.395493"
       r="3.9641106" />
    <circle
       style="fill:#00ffff;fill-opacity:1;stroke:#00ffff;stroke-width:1.07177877;stroke-miterlimit:4;stroke-dasharray:none;stroke-dashoffset:0;stroke-opacity:1"
       id="path9672-5"
       cx="198.5965"
       cy="98.395493"
       r="3.9641106" />
    <circle
       style="fill:#00ffff;fill-opacity:1;stroke:#00ffff;stroke-width:1.07177877;stroke-miterlimit:4;stroke-dasharray:none;stroke-dashoffset:0;stroke-opacity:1"
       id="path9672-4"
       cx="115.88222"
       cy="98.395493"
       r="3.9641106" />
    <path
       style="fill:#000000;fill-opacity:0.38431373;fill-rule:evenodd;stroke:#000000;stroke-width:1.66208911;stroke-linecap:butt;stroke-linejoin:miter;stroke-miterlimit:4;stroke-dasharray:none;stroke-opacity:1"
       d="M 35.862345,98.868961 C 43.018988,88.378166 50.175632,81.446999 57.332275,78.075464 71.267402,71.510543 85.202528,78.441709 99.137656,98.868961"
       id="path9724"
       inkscape:connector-curvature="0"
       sodipodi:nodetypes="csc" />
    <path
       style="fill:#000000;fill-opacity:0.38431373;fill-rule:evenodd;stroke:#000000;stroke-width:1.66208911;stroke-linecap:butt;stroke-linejoin:miter;stroke-miterlimit:4;stroke-dasharray:none;stroke-opacity:1"
       d="m 213.5052,99.63182 c 7.15665,-10.490795 14.31329,-17.421962 21.46993,-20.793497 13.93513,-6.564921 27.87025,0.366245 41.80538,20.793497"
       id="path9724-7"
       inkscape:connector-curvature="0"
       sodipodi:nodetypes="csc" />
    <path
       style="fill:none;fill-rule:evenodd;stroke:#00ffff;stroke-width:2.04260826;stroke-linecap:butt;stroke-linejoin:miter;stroke-miterlimit:4;stroke-dasharray:none;stroke-opacity:1"
       d="m 118.64285,98.755057 77.85715,0"
       id="path9753"
       inkscape:connector-curvature="0" />
    <text
       xml:space="preserve"
       style="font-style:normal;font-variant:normal;font-weight:bold;font-stretch:normal;font-size:15px;line-height:125%;font-family:sans-serif;-inkscape-font-specification:'sans-serif Bold';letter-spacing:0px;word-spacing:0px;fill:#000000;fill-opacity:1;stroke:none;stroke-width:1px;stroke-linecap:butt;stroke-linejoin:miter;stroke-opacity:1"
       x="25.357141"
       y="118.21443"
       id="text9755"
       sodipodi:linespacing="125%"><tspan
         sodipodi:role="line"
         id="tspan9757"
         x="25.357141"
         y="118.21443">1</tspan></text>
    <text
       xml:space="preserve"
       style="font-style:normal;font-variant:normal;font-weight:bold;font-stretch:normal;font-size:15px;line-height:125%;font-family:sans-serif;-inkscape-font-specification:'sans-serif Bold';letter-spacing:0px;word-spacing:0px;fill:#000000;fill-opacity:1;stroke:none;stroke-width:1px;stroke-linecap:butt;stroke-linejoin:miter;stroke-opacity:1"
       x="273.21429"
       y="118.21443"
       id="text9759"
       sodipodi:linespacing="125%"><tspan
         sodipodi:role="line"
         id="tspan9761"
         x="273.21429"
         y="118.21443">N</tspan></text>
    <text
       xml:space="preserve"
       style="font-style:normal;font-variant:normal;font-weight:bold;font-stretch:normal;font-size:15px;line-height:125%;font-family:sans-serif;-inkscape-font-specification:'sans-serif Bold';letter-spacing:0px;word-spacing:0px;fill:#000000;fill-opacity:1;stroke:none;stroke-width:1px;stroke-linecap:butt;stroke-linejoin:miter;stroke-opacity:1"
       x="86.571426"
       y="118.44514"
       id="text9763"
       sodipodi:linespacing="125%"><tspan
         sodipodi:role="line"
         id="tspan9765"
         x="86.571426"
         y="118.44514">i-1</tspan></text>
    <text
       xml:space="preserve"
       style="font-style:normal;font-variant:normal;font-weight:bold;font-stretch:normal;font-size:15px;line-height:125%;font-family:sans-serif;-inkscape-font-specification:'sans-serif Bold';letter-spacing:0px;word-spacing:0px;fill:#000000;fill-opacity:1;stroke:none;stroke-width:1px;stroke-linecap:butt;stroke-linejoin:miter;stroke-opacity:1"
       x="111.78571"
       y="118.44514"
       id="text9767"
       sodipodi:linespacing="125%"><tspan
         sodipodi:role="line"
         id="tspan9769"
         x="111.78571"
         y="118.44514">i</tspan></text>
    <text
       xml:space="preserve"
       style="font-style:normal;font-variant:normal;font-weight:bold;font-stretch:normal;font-size:15px;line-height:125%;font-family:sans-serif;-inkscape-font-specification:'sans-serif Bold';letter-spacing:0px;word-spacing:0px;fill:#000000;fill-opacity:1;stroke:none;stroke-width:1px;stroke-linecap:butt;stroke-linejoin:miter;stroke-opacity:1"
       x="195.71428"
       y="116.82649"
       id="text9771"
       sodipodi:linespacing="125%"><tspan
         sodipodi:role="line"
         id="tspan9773"
         x="195.71428"
         y="116.82649">j</tspan></text>
    <text
       xml:space="preserve"
       style="font-style:normal;font-variant:normal;font-weight:bold;font-stretch:normal;font-size:15px;line-height:125%;font-family:sans-serif;-inkscape-font-specification:'sans-serif Bold';letter-spacing:0px;word-spacing:0px;fill:#000000;fill-opacity:1;stroke:none;stroke-width:1px;stroke-linecap:butt;stroke-linejoin:miter;stroke-opacity:1"
       x="208.57144"
       y="116.82649"
       id="text9775"
       sodipodi:linespacing="125%"><tspan
         sodipodi:role="line"
         id="tspan9777"
         x="208.57144"
         y="116.82649">j+1</tspan></text>
    <g
       id="content"
       transform="matrix(1,0,0,-1,-170.71429,798.07071)"
       xml:space="preserve"
       stroke-miterlimit="10.433"
       font-style="normal"
       font-variant="normal"
       font-weight="normal"
       font-stretch="normal"
       font-size-adjust="none"
       letter-spacing="normal"
       word-spacing="normal"
       ns0:text="$Q_{1, i-1}$"
       ns0:preamble=""
       style="font-style:normal;font-variant:normal;font-weight:normal;font-stretch:normal;letter-spacing:normal;word-spacing:normal;text-anchor:start;fill:none;fill-opacity:1;fill-rule:evenodd;stroke:#000000;stroke-linecap:butt;stroke-linejoin:miter;stroke-miterlimit:10.43299961;stroke-dasharray:none;stroke-dashoffset:0;stroke-opacity:1"><path
         d="m 227.8,707.18 0.14,0.06 0.14,0.07 0.15,0.07 0.14,0.08 0.14,0.08 0.14,0.09 0.13,0.1 0.14,0.1 0.13,0.11 0.13,0.11 0.12,0.12 0.13,0.12 0.12,0.13 0.11,0.13 0.11,0.13 0.11,0.14 0.1,0.15 0.1,0.14 0.09,0.16 0.09,0.15 0.08,0.16 0.08,0.16 0.07,0.16 0.06,0.17 0.06,0.17 0.05,0.17 0.04,0.17 0.04,0.17 0.03,0.18 0.02,0.18 0.01,0.18 0,0.18 c 0,1.6 -1.05,2.68 -2.54,2.68 l -0.05,-0.25 c 0.99,0 1.72,-0.78 1.72,-2.12 0,-0.99 -0.51,-3.32 -2.18,-4.26 -0.05,0.35 -0.15,1.08 -0.88,1.08 l 0,-0.22 c 0.42,0 0.61,-0.24 0.61,-0.85 0,-0.15 -0.01,-0.16 -0.11,-0.2 -0.26,-0.11 -0.56,-0.18 -0.84,-0.18 l 0,0 c -0.14,0 -0.46,0 -0.46,0.43 0,0.4 0.38,0.8 0.8,0.8 l 0,0.22 c -0.53,0 -1.02,-0.5 -1.02,-1.02 0,-0.2 0.06,-0.31 0.06,-0.32 l 0,0 c -0.77,0.31 -1.11,1.09 -1.11,1.98 0,0.69 0.26,2.11 1.01,3.18 0.73,1.02 1.67,1.48 2.4,1.48 l 0.05,0.25 c -2.15,0 -4.34,-2.26 -4.34,-4.59 0,-1.65 1.12,-2.66 2.55,-2.66 0.25,0 0.59,0.04 0.98,0.15 -0.04,-0.62 -0.04,-0.64 -0.04,-0.76 0,-0.32 0,-1.1 0.82,-1.1 1.19,0 1.67,1.82 1.67,1.93 0,0.07 -0.07,0.1 -0.11,0.1 -0.08,0 -0.1,-0.05 -0.12,-0.11 -0.24,-0.7 -0.82,-0.95 -1.17,-0.95 -0.46,0 -0.6,0.26 -0.7,1.02 z"
         id="path9807"
         inkscape:connector-curvature="0"
         style="fill:#000000;stroke-width:0" /><path
         d="m 233.64,710.07 0,0 0,0.01 0,0.01 0,0.01 0,0.01 0,0 0,0.01 0,0.01 0,0 0,0.01 0,0.01 0,0 0,0.01 0,0 0,0.01 0,0.01 0,0 0,0.01 -0.01,0 0,0.01 0,0.01 0,0.01 -0.01,0 0,0.01 -0.01,0 0,0.01 -0.01,0 -0.01,0.01 0,0 -0.01,0 -0.01,0 -0.01,0.01 0,0 -0.01,0 -0.01,0 0,0 -0.01,0 0,0 -0.01,0 -0.01,0 0,0 -0.01,0 -0.01,0 0,0 -0.01,0 -0.01,0 -0.01,0 -0.01,0 -0.01,0 -0.01,0 c -0.44,-0.44 -1.08,-0.45 -1.36,-0.45 l 0,-0.25 c 0.17,0 0.63,0 1.01,0.2 l 0,-3.56 c 0,-0.23 0,-0.32 -0.7,-0.32 l -0.26,0 0,-0.25 c 0.12,0.01 0.98,0.03 1.24,0.03 0.21,0 1.09,-0.02 1.25,-0.03 l 0,0.25 -0.27,0 c -0.7,0 -0.7,0.09 -0.7,0.32 z"
         id="path9809"
         inkscape:connector-curvature="0"
         style="fill:#000000;stroke-width:0" /><path
         d="m 236.75,705.74 0,-0.07 0,-0.07 -0.01,-0.08 0,-0.08 -0.01,-0.04 -0.01,-0.03 0,-0.04 -0.01,-0.04 -0.01,-0.04 -0.01,-0.04 -0.02,-0.04 -0.01,-0.04 -0.02,-0.04 -0.01,-0.04 -0.02,-0.04 -0.02,-0.05 -0.02,-0.04 -0.02,-0.04 -0.03,-0.04 -0.03,-0.04 -0.02,-0.04 -0.03,-0.04 -0.04,-0.05 -0.03,-0.04 -0.04,-0.04 -0.04,-0.04 -0.04,-0.04 -0.04,-0.04 c -0.03,-0.03 -0.05,-0.05 -0.05,-0.09 0,-0.05 0.06,-0.1 0.1,-0.1 0.1,0 0.69,0.56 0.69,1.39 0,0.43 -0.17,0.76 -0.49,0.76 -0.23,0 -0.4,-0.18 -0.4,-0.4 0,-0.22 0.16,-0.4 0.41,-0.4 0.16,0 0.28,0.11 0.28,0.11 z"
         id="path9811"
         inkscape:connector-curvature="0"
         style="fill:#000000;stroke-width:0" /><path
         d="m 239.9,709.99 0,0.01 0,0.01 0,0.01 0,0.01 0,0.01 0,0.01 -0.01,0.02 0,0.01 -0.01,0.01 0,0.01 -0.01,0.01 0,0.01 -0.01,0.01 -0.01,0.01 0,0.01 -0.01,0.01 -0.01,0.01 -0.01,0.01 -0.01,0.01 -0.01,0.01 -0.01,0.01 -0.01,0 -0.02,0.01 -0.01,0.01 -0.01,0 -0.02,0.01 -0.01,0 -0.02,0.01 -0.01,0 -0.02,0 -0.02,0 -0.01,0 c -0.19,0 -0.39,-0.18 -0.39,-0.38 0,-0.12 0.09,-0.27 0.27,-0.27 0.21,0 0.39,0.2 0.39,0.39 z"
         id="path9813"
         inkscape:connector-curvature="0"
         style="fill:#000000;stroke-width:0" /><path
         d="m 238.48,706.45 0,-0.02 -0.01,-0.02 -0.01,-0.03 -0.01,-0.02 0,-0.02 -0.01,-0.01 0,-0.02 0,-0.02 -0.01,-0.02 0,-0.01 -0.01,-0.02 0,-0.01 0,-0.01 0,-0.01 0,-0.01 0,-0.01 0,-0.02 0,-0.01 0,-0.01 c 0,-0.32 0.28,-0.59 0.66,-0.59 0.7,0 1.01,0.96 1.01,1.07 0,0.09 -0.1,0.09 -0.12,0.09 -0.09,0 -0.1,-0.04 -0.13,-0.12 -0.16,-0.56 -0.46,-0.84 -0.74,-0.84 -0.14,0 -0.17,0.09 -0.17,0.24 0,0.16 0.05,0.29 0.11,0.45 0.07,0.18 0.15,0.37 0.22,0.55 0.07,0.17 0.32,0.81 0.34,0.89 0.03,0.07 0.05,0.15 0.05,0.22 0,0.33 -0.28,0.6 -0.67,0.6 -0.69,0 -1.01,-0.95 -1.01,-1.07 0,-0.09 0.1,-0.09 0.12,-0.09 0.1,0 0.11,0.03 0.13,0.11 0.18,0.6 0.49,0.85 0.74,0.85 0.11,0 0.18,-0.06 0.18,-0.24 0,-0.16 -0.04,-0.27 -0.22,-0.7 z"
         id="path9815"
         inkscape:connector-curvature="0"
         style="fill:#000000;stroke-width:0" /><path
         d="m 245.65,707.21 0.01,0 0.02,0 0.01,0 0.01,0 0.02,0 0.01,0 0.01,0 0.02,0 0.01,0 0.01,0 0.01,0 0.01,0.01 0.01,0 0.01,0 0.01,0.01 0.01,0 0.01,0.01 0.01,0 0.01,0.01 0.01,0 0.01,0.01 0.01,0.01 0,0 0,0.01 0.01,0 0,0.01 0,0 0.01,0.01 0,0 0,0.01 0,0 0,0.01 0.01,0 0,0.01 0,0.01 0,0 0,0.01 0,0.01 0,0.01 0,0 c 0,0.18 -0.16,0.18 -0.28,0.18 l -4.15,0 c -0.11,0 -0.28,0 -0.28,-0.17 0,-0.17 0.16,-0.17 0.28,-0.17 z"
         id="path9817"
         inkscape:connector-curvature="0"
         style="fill:#000000;stroke-width:0" /><path
         d="m 249.03,710.07 0,0 0,0.01 0,0.01 0,0.01 0,0.01 0,0 0,0.01 0,0.01 -0.01,0 0,0.01 0,0.01 0,0 0,0.01 0,0 0,0.01 0,0.01 0,0 0,0.01 0,0 -0.01,0.01 0,0.01 0,0.01 -0.01,0 0,0.01 -0.01,0 0,0.01 -0.01,0 0,0.01 -0.01,0 -0.01,0 -0.01,0 -0.01,0.01 0,0 -0.01,0 0,0 -0.01,0 -0.01,0 0,0 -0.01,0 0,0 -0.01,0 -0.01,0 -0.01,0 0,0 -0.01,0 -0.01,0 -0.01,0 -0.01,0 0,0 -0.01,0 c -0.45,-0.44 -1.08,-0.45 -1.37,-0.45 l 0,-0.25 c 0.17,0 0.63,0 1.01,0.2 l 0,-3.56 c 0,-0.23 0,-0.32 -0.7,-0.32 l -0.26,0 0,-0.25 c 0.12,0.01 0.98,0.03 1.24,0.03 0.22,0 1.1,-0.02 1.25,-0.03 l 0,0.25 -0.27,0 c -0.69,0 -0.69,0.09 -0.69,0.32 z"
         id="path9819"
         inkscape:connector-curvature="0"
         style="fill:#000000;stroke-width:0" /></g>    <g
       ns0:preamble=""
       ns0:text="$Q_{j+1,N}$"
       word-spacing="normal"
       letter-spacing="normal"
       font-size-adjust="none"
       font-stretch="normal"
       font-weight="normal"
       font-variant="normal"
       font-style="normal"
       stroke-miterlimit="10.433"
       xml:space="preserve"
       transform="matrix(1,0,0,-1,6.7857146,798.03571)"
       id="g9889"
       style="font-style:normal;font-variant:normal;font-weight:normal;font-stretch:normal;letter-spacing:normal;word-spacing:normal;text-anchor:start;fill:none;fill-opacity:1;fill-rule:evenodd;stroke:#000000;stroke-linecap:butt;stroke-linejoin:miter;stroke-miterlimit:10.43299961;stroke-dasharray:none;stroke-dashoffset:0;stroke-opacity:1"><path
         id="path9891"
         d="m 227.8,707.18 0.14,0.06 0.14,0.07 0.15,0.07 0.14,0.08 0.14,0.08 0.14,0.09 0.13,0.1 0.14,0.1 0.13,0.11 0.13,0.11 0.12,0.12 0.13,0.12 0.12,0.13 0.11,0.13 0.11,0.13 0.11,0.14 0.1,0.15 0.1,0.14 0.09,0.16 0.09,0.15 0.08,0.16 0.08,0.16 0.07,0.16 0.06,0.17 0.06,0.17 0.05,0.17 0.04,0.17 0.04,0.17 0.03,0.18 0.02,0.18 0.01,0.18 0,0.18 c 0,1.6 -1.05,2.68 -2.54,2.68 l -0.05,-0.25 c 0.99,0 1.72,-0.78 1.72,-2.12 0,-0.99 -0.51,-3.32 -2.18,-4.26 -0.05,0.35 -0.15,1.08 -0.88,1.08 l 0,-0.22 c 0.42,0 0.61,-0.24 0.61,-0.85 0,-0.15 -0.01,-0.16 -0.11,-0.2 -0.26,-0.11 -0.56,-0.18 -0.84,-0.18 l 0,0 c -0.14,0 -0.46,0 -0.46,0.43 0,0.4 0.38,0.8 0.8,0.8 l 0,0.22 c -0.53,0 -1.02,-0.5 -1.02,-1.02 0,-0.2 0.06,-0.31 0.06,-0.32 l 0,0 c -0.77,0.31 -1.11,1.09 -1.11,1.98 0,0.69 0.26,2.11 1.01,3.18 0.73,1.02 1.67,1.48 2.4,1.48 l 0.05,0.25 c -2.15,0 -4.34,-2.26 -4.34,-4.59 0,-1.65 1.12,-2.66 2.55,-2.66 0.25,0 0.59,0.04 0.98,0.15 -0.04,-0.62 -0.04,-0.64 -0.04,-0.76 0,-0.32 0,-1.1 0.82,-1.1 1.19,0 1.67,1.82 1.67,1.93 0,0.07 -0.07,0.1 -0.11,0.1 -0.08,0 -0.1,-0.05 -0.12,-0.11 -0.24,-0.7 -0.82,-0.95 -1.17,-0.95 -0.46,0 -0.6,0.26 -0.7,1.02 z"
         inkscape:connector-curvature="0"
         style="fill:#000000;stroke-width:0" /><path
         id="path9893"
         d="m 234.37,709.99 0,0.01 0,0.01 0,0.01 -0.01,0.01 0,0.02 0,0.01 0,0.01 -0.01,0.01 0,0.01 -0.01,0.01 0,0.01 -0.01,0.01 -0.01,0.02 0,0.01 -0.01,0.01 -0.01,0.01 -0.01,0.01 -0.01,0 -0.01,0.01 -0.01,0.01 -0.01,0.01 -0.01,0.01 -0.01,0 -0.02,0.01 -0.01,0 -0.01,0.01 -0.02,0 -0.01,0.01 -0.02,0 -0.02,0 -0.01,0 -0.02,0 c -0.2,0 -0.39,-0.19 -0.39,-0.38 0,-0.11 0.08,-0.27 0.28,-0.27 0.19,0 0.39,0.19 0.39,0.39 z"
         inkscape:connector-curvature="0"
         style="fill:#000000;stroke-width:0" /><path
         id="path9895"
         d="m 232.89,705.29 -0.01,-0.05 -0.01,-0.04 -0.02,-0.04 -0.01,-0.05 -0.02,-0.04 -0.02,-0.04 -0.02,-0.04 -0.02,-0.04 -0.02,-0.04 -0.03,-0.04 -0.02,-0.04 -0.03,-0.03 -0.02,-0.04 -0.03,-0.03 -0.03,-0.03 -0.03,-0.03 -0.03,-0.03 -0.03,-0.03 -0.03,-0.03 -0.03,-0.02 -0.04,-0.03 -0.03,-0.02 -0.04,-0.02 -0.03,-0.02 -0.04,-0.01 -0.03,-0.02 -0.04,-0.01 -0.04,-0.01 -0.03,-0.01 -0.04,0 -0.04,-0.01 -0.04,0 c -0.09,0 -0.17,0.02 -0.25,0.04 0.18,0.09 0.24,0.26 0.24,0.36 0,0.17 -0.14,0.26 -0.27,0.26 -0.22,0 -0.4,-0.19 -0.4,-0.41 0,-0.27 0.27,-0.44 0.69,-0.44 0.42,0 1.23,0.25 1.45,1.1 l 0.63,2.5 c 0.02,0.07 0.03,0.14 0.03,0.24 0,0.38 -0.33,0.66 -0.74,0.66 -0.78,0 -1.23,-0.97 -1.23,-1.07 0,-0.09 0.1,-0.09 0.12,-0.09 0.09,0 0.09,0.02 0.14,0.12 0.18,0.41 0.54,0.84 0.94,0.84 0.18,0 0.24,-0.12 0.24,-0.34 0,-0.08 -0.01,-0.18 -0.02,-0.21 z"
         inkscape:connector-curvature="0"
         style="fill:#000000;stroke-width:0" /><path
         id="path9897"
         d="m 238.23,707.21 2.14,0 c 0.09,0 0.26,0 0.26,0.16 0,0.18 -0.17,0.18 -0.26,0.18 l -2.14,0 0,2.14 c 0,0.09 0,0.26 -0.16,0.26 -0.18,0 -0.18,-0.16 -0.18,-0.26 l 0,-2.14 -2.14,0 c -0.09,0 -0.26,0 -0.26,-0.17 0,-0.17 0.16,-0.17 0.26,-0.17 l 2.14,0 0,-2.14 c 0,-0.1 0,-0.26 0.17,-0.26 0.17,0 0.17,0.16 0.17,0.26 z"
         inkscape:connector-curvature="0"
         style="fill:#000000;stroke-width:0" /><path
         id="path9899"
         d="m 243.46,710.07 0,0 0,0.01 0,0.01 0,0.01 0,0.01 0,0 0,0.01 0,0.01 0,0 0,0.01 0,0.01 0,0 0,0.01 0,0 0,0.01 0,0.01 -0.01,0 0,0.01 0,0 0,0.01 0,0.01 -0.01,0.01 0,0 -0.01,0.01 0,0 -0.01,0.01 0,0 -0.01,0.01 -0.01,0 0,0 -0.01,0 -0.01,0.01 -0.01,0 0,0 -0.01,0 0,0 -0.01,0 -0.01,0 0,0 -0.01,0 -0.01,0 0,0 -0.01,0 -0.01,0 -0.01,0 0,0 -0.01,0 -0.01,0 -0.01,0 -0.01,0 c -0.44,-0.44 -1.08,-0.45 -1.37,-0.45 l 0,-0.25 c 0.17,0 0.63,0 1.02,0.2 l 0,-3.56 c 0,-0.23 0,-0.32 -0.7,-0.32 l -0.27,0 0,-0.25 c 0.13,0.01 0.99,0.03 1.25,0.03 0.21,0 1.09,-0.02 1.24,-0.03 l 0,0.25 -0.26,0 c -0.7,0 -0.7,0.09 -0.7,0.32 z"
         inkscape:connector-curvature="0"
         style="fill:#000000;stroke-width:0" /><path
         id="path9901"
         d="m 246.56,705.74 0,-0.07 0,-0.07 -0.01,-0.08 0,-0.08 -0.01,-0.04 -0.01,-0.03 0,-0.04 -0.01,-0.04 -0.01,-0.04 -0.01,-0.04 -0.02,-0.04 -0.01,-0.04 -0.02,-0.04 -0.01,-0.04 -0.02,-0.04 -0.02,-0.05 -0.02,-0.04 -0.02,-0.04 -0.03,-0.04 -0.03,-0.04 -0.02,-0.04 -0.03,-0.04 -0.04,-0.05 -0.03,-0.04 -0.04,-0.04 -0.04,-0.04 -0.04,-0.04 -0.04,-0.04 c -0.03,-0.03 -0.05,-0.05 -0.05,-0.09 0,-0.05 0.06,-0.1 0.1,-0.1 0.1,0 0.69,0.56 0.69,1.39 0,0.43 -0.17,0.76 -0.49,0.76 -0.23,0 -0.4,-0.18 -0.4,-0.4 0,-0.22 0.16,-0.4 0.41,-0.4 0.17,0 0.28,0.11 0.28,0.11 z"
         inkscape:connector-curvature="0"
         style="fill:#000000;stroke-width:0" /><path
         id="path9903"
         d="m 253.28,709.63 0.01,0.05 0.02,0.05 0.01,0.02 0.01,0.03 0,0.02 0.02,0.02 0.01,0.02 0.01,0.03 0.01,0.02 0.02,0.02 0.01,0.02 0.02,0.02 0.02,0.01 0.02,0.02 0.02,0.02 0.02,0.01 0.02,0.02 0.03,0.01 0.02,0.02 0.03,0.01 0.03,0.01 0.04,0.01 0.03,0.01 0.04,0.01 0.04,0.01 0.04,0.01 0.04,0 0.03,0 0.02,0.01 0.02,0 0.03,0 0.02,0 0.03,0 c 0.03,0 0.14,0.01 0.14,0.15 0,0.05 -0.04,0.1 -0.11,0.1 -0.23,0 -0.48,-0.03 -0.72,-0.03 -0.17,0 -0.57,0.03 -0.74,0.03 -0.04,0 -0.14,0 -0.14,-0.15 0,-0.09 0.09,-0.1 0.15,-0.1 0.33,0 0.45,-0.11 0.45,-0.28 0,-0.06 -0.01,-0.09 -0.03,-0.17 l -0.76,-3.04 -1.77,3.63 c -0.06,0.11 -0.07,0.11 -0.24,0.11 l -0.95,0 c -0.14,0 -0.23,0 -0.23,-0.15 0,-0.1 0.09,-0.1 0.23,-0.1 0.15,0 0.3,0 0.45,-0.03 l -0.93,-3.73 c -0.07,-0.27 -0.19,-0.48 -0.73,-0.5 -0.05,0 -0.15,-0.01 -0.15,-0.15 0,-0.07 0.06,-0.1 0.11,-0.1 0.23,0 0.49,0.03 0.72,0.03 0.17,0 0.58,-0.03 0.74,-0.03 0.07,0 0.14,0.03 0.14,0.15 0,0.09 -0.08,0.1 -0.16,0.1 -0.44,0.02 -0.44,0.2 -0.44,0.29 0,0.03 0,0.07 0.03,0.18 l 0.89,3.57 2.04,-4.17 c 0.06,-0.11 0.08,-0.12 0.15,-0.12 0.11,0 0.11,0.02 0.15,0.15 z"
         inkscape:connector-curvature="0"
         style="fill:#000000;stroke-width:0" /></g>  </g>
</svg>
